STARTFONT 2.3
FONT -FontForge-Pacifico-Book-R-Normal--12-120-72-72-P-70-ISO10646-1
SIZE 12 72 72  4
FONTBOUNDINGBOX 28 25 -8 -6
COMMENT "Generated by fontforge, http://fontforge.sourceforge.net"
COMMENT "Copyright 2018 The Pacifico Project Authors (https://github.com/googlefonts/Pacifico)"
STARTPROPERTIES 41
FOUNDRY "FontForge"
FAMILY_NAME "Pacifico"
WEIGHT_NAME "Book"
SLANT "R"
SETWIDTH_NAME "Normal"
ADD_STYLE_NAME ""
PIXEL_SIZE 12
POINT_SIZE 120
RESOLUTION_X 72
RESOLUTION_Y 72
SPACING "P"
AVERAGE_WIDTH 70
CHARSET_REGISTRY "ISO10646"
CHARSET_ENCODING "1"
FONTNAME_REGISTRY ""
CHARSET_COLLECTIONS "ISO8859-2 ISO8859-5 ISO8859-9 ISO8859-4 ISO10646-1"
BITS_PER_PIXEL 4
FONT_NAME "Pacifico-Regular"
FACE_NAME "Pacifico Regular"
COPYRIGHT "Copyright 2018 The Pacifico Project Authors (https://github.com/googlefonts/Pacifico)"
FONT_VERSION "3.001"
FONT_ASCENT 10
FONT_DESCENT 2
UNDERLINE_POSITION -1
UNDERLINE_THICKNESS 1
X_HEIGHT 5
CAP_HEIGHT 10
DEFAULT_CHAR 1
RAW_ASCENT 800
RAW_DESCENT 200
NORM_SPACE 3
RELATIVE_WEIGHT 40
RELATIVE_SETWIDTH 50
SUPERSCRIPT_X 0
SUPERSCRIPT_Y 4
SUPERSCRIPT_SIZE 7
SUBSCRIPT_X 0
SUBSCRIPT_Y 0
SUBSCRIPT_SIZE 7
AVG_LOWERCASE_WIDTH 57
AVG_UPPERCASE_WIDTH 98
ENDPROPERTIES
CHARS 1514
STARTCHAR NULL.dup1
ENCODING 0
SWIDTH 0 0
DWIDTH 0 0
BBX 1 1 0 0
BITMAP
00
ENDCHAR
STARTCHAR nonmarkingreturn
ENCODING 13
SWIDTH 265 0
DWIDTH 3 0
BBX 1 1 0 0
BITMAP
00
ENDCHAR
STARTCHAR space
ENCODING 32
SWIDTH 265 0
DWIDTH 3 0
BBX 1 1 0 0
BITMAP
00
ENDCHAR
STARTCHAR exclam
ENCODING 33
SWIDTH 340 0
DWIDTH 4 0
BBX 5 11 0 0
BITMAP
003E40
008F30
00BE00
00EB00
02F700
05F300
07E000
099000
021000
7F8000
6E6000
ENDCHAR
STARTCHAR quotedbl
ENCODING 34
SWIDTH 510 0
DWIDTH 6 0
BBX 5 4 1 7
BITMAP
3E58E0
7F5CE0
8F1EB0
8B0D60
ENDCHAR
STARTCHAR numbersign
ENCODING 35
SWIDTH 700 0
DWIDTH 8 0
BBX 9 8 0 0
BITMAP
0006106100
004F35F200
1EFFFFFE10
05EB6FB500
03F74F6000
8FFFFFF900
1CD4DC4200
0A60C50000
ENDCHAR
STARTCHAR dollar
ENCODING 36
SWIDTH 524 0
DWIDTH 6 0
BBX 6 11 0 -2
BITMAP
000840
000A30
04DFD4
0E9DAB
0F9D23
07FE60
125DF7
7D67D9
3EFEE3
02C710
00B100
ENDCHAR
STARTCHAR percent
ENCODING 37
SWIDTH 896 0
DWIDTH 11 0
BBX 11 10 0 0
BITMAP
06EB101B4000
2F7F84CF3000
6E1DFFFA0000
4F2D79F20000
0BFB2E900000
00109E28EB00
0002F85E4E60
0009E18C0B80
002F706E3E50
003D101BE900
ENDCHAR
STARTCHAR ampersand
ENCODING 38
SWIDTH 851 0
DWIDTH 10 0
BBX 10 13 0 -1
BITMAP
0000100000
000AFF8000
007F79F100
00CB04F300
00BC09E000
007FBF5000
007FF40000
08FBF8008C
3F80BF56F6
6F401DEF90
3FC77DFF20
05CFDA8FC0
00000009D1
ENDCHAR
STARTCHAR quotesingle
ENCODING 39
SWIDTH 290 0
DWIDTH 3 0
BBX 3 4 1 7
BITMAP
3E50
7F50
8F10
8B00
ENDCHAR
STARTCHAR parenleft
ENCODING 40
SWIDTH 613 0
DWIDTH 7 0
BBX 8 15 1 -3
BITMAP
0004CEC5
005FB7BB
01EB0001
08F30000
0EB00000
3F700000
7F300000
AF000000
CD000000
DC000000
DB000000
CC001300
8F44CA00
1CFFB100
00330000
ENDCHAR
STARTCHAR parenright
ENCODING 41
SWIDTH 613 0
DWIDTH 7 0
BBX 8 15 -1 -3
BITMAP
0008EE70
00AE7AF4
007200E9
000000DB
000000DC
000000FB
000001F9
000004F6
000008F2
00000CD0
00002F80
0000BE20
9629F600
AFFE7000
02410000
ENDCHAR
STARTCHAR asterisk
ENCODING 42
SWIDTH 520 0
DWIDTH 6 0
BBX 6 5 1 7
BITMAP
3D6A00
09ECD3
7CDD50
01F6C0
006000
ENDCHAR
STARTCHAR plus
ENCODING 43
SWIDTH 700 0
DWIDTH 8 0
BBX 7 8 1 0
BITMAP
00051000
001F4000
003F3000
126F3200
EFFFFF70
45AD5510
00AB0000
00A70000
ENDCHAR
STARTCHAR comma
ENCODING 44
SWIDTH 257 0
DWIDTH 3 0
BBX 3 5 0 -2
BITMAP
1710
7F50
8F30
AC00
B500
ENDCHAR
STARTCHAR hyphen
ENCODING 45
SWIDTH 403 0
DWIDTH 5 0
BBX 5 2 0 3
BITMAP
056820
3FEC30
ENDCHAR
STARTCHAR period
ENCODING 46
SWIDTH 257 0
DWIDTH 3 0
BBX 3 3 0 0
BITMAP
0200
8F70
7E50
ENDCHAR
STARTCHAR slash
ENCODING 47
SWIDTH 509 0
DWIDTH 6 0
BBX 7 12 0 0
BITMAP
00000980
00003F70
0000AE10
0003F700
000AE100
003F7000
00AE1000
03F70000
0AE10000
3F700000
AE100000
B6000000
ENDCHAR
STARTCHAR zero
ENCODING 48
SWIDTH 543 0
DWIDTH 7 0
BBX 6 8 0 0
BITMAP
000100
02CFE4
0CD5DD
3F507F
5F207F
5F30AD
2FB8F7
06DE80
ENDCHAR
STARTCHAR one
ENCODING 49
SWIDTH 376 0
DWIDTH 5 0
BBX 4 8 0 0
BITMAP
0155
3EFE
16DC
00EA
01F8
03F6
05F4
04E1
ENDCHAR
STARTCHAR two
ENCODING 50
SWIDTH 560 0
DWIDTH 7 0
BBX 7 9 0 0
BITMAP
00010000
03DFE500
0CC5DE00
0F609F00
0410DC00
0009F400
01BF6000
3EF96600
5FFFFE20
ENDCHAR
STARTCHAR three
ENCODING 51
SWIDTH 520 0
DWIDTH 6 0
BBX 6 9 0 0
BITMAP
000100
06EFE4
2F95EB
2B00EA
005CD2
008ED3
6601FA
9E79F8
2BEE91
ENDCHAR
STARTCHAR four
ENCODING 52
SWIDTH 577 0
DWIDTH 7 0
BBX 7 8 0 0
BITMAP
00260000
00DC0000
05F46D00
0CC0BC00
3F72DA00
5FFFFF80
0446F810
0001E300
ENDCHAR
STARTCHAR five
ENCODING 53
SWIDTH 518 0
DWIDTH 6 0
BBX 6 8 0 0
BITMAP
001221
1DFFFE
0BC443
0DFFA1
0359F8
4B00EA
5F98F7
09EE90
ENDCHAR
STARTCHAR six
ENCODING 54
SWIDTH 541 0
DWIDTH 6 0
BBX 7 9 0 0
BITMAP
00011000
01AFF800
0AE6AF20
1F611600
5FCFE200
6FB5EA00
5F50CC00
1EB8F800
05DE9100
ENDCHAR
STARTCHAR seven
ENCODING 55
SWIDTH 497 0
DWIDTH 6 0
BBX 7 8 0 0
BITMAP
01222100
5FFFFF20
1449F900
004F7000
00DC0000
04F60000
07F30000
05D00000
ENDCHAR
STARTCHAR eight
ENCODING 56
SWIDTH 512 0
DWIDTH 6 0
BBX 6 9 0 0
BITMAP
000100
04EFE4
0EC5DC
0F80CB
09FDD2
0BDDF4
6F11DA
6F88F8
1AEEA1
ENDCHAR
STARTCHAR nine
ENCODING 57
SWIDTH 541 0
DWIDTH 6 0
BBX 6 9 0 0
BITMAP
000100
03DFD3
0DC5EB
2F70AF
1FA3DF
08FFDE
2432BA
7F79F3
1AED50
ENDCHAR
STARTCHAR colon
ENCODING 58
SWIDTH 257 0
DWIDTH 3 0
BBX 3 6 0 0
BITMAP
0110
2FD0
2EB0
0200
8F70
7E50
ENDCHAR
STARTCHAR semicolon
ENCODING 59
SWIDTH 257 0
DWIDTH 3 0
BBX 3 8 0 -2
BITMAP
0110
2FD0
2EB0
1710
7F50
8F30
AC00
B500
ENDCHAR
STARTCHAR less
ENCODING 60
SWIDTH 700 0
DWIDTH 8 0
BBX 7 6 1 1
BITMAP
00016CA0
049EFB30
BFD72000
DFC60000
05BFE810
00039E20
ENDCHAR
STARTCHAR equal
ENCODING 61
SWIDTH 700 0
DWIDTH 8 0
BBX 8 5 0 1
BITMAP
0AFFFFF9
04666662
01222220
1FFFFFF5
04444440
ENDCHAR
STARTCHAR greater
ENCODING 62
SWIDTH 700 0
DWIDTH 8 0
BBX 8 6 0 1
BITMAP
08D61000
03BFE920
00028EF6
00049EF5
07DFD710
2E940000
ENDCHAR
STARTCHAR question
ENCODING 63
SWIDTH 476 0
DWIDTH 6 0
BBX 7 11 0 0
BITMAP
02BFD600
0BD7DF20
0D708F30
0421DD00
000AF400
007F5000
00E70000
02E00000
01100000
2FD00000
2EB00000
ENDCHAR
STARTCHAR at
ENCODING 64
SWIDTH 1015 0
DWIDTH 12 0
BBX 12 14 0 -4
BITMAP
000000110000
00018DFFE910
003EE8558ED1
02EC100003F7
0AE108E930BB
1F808F9F709C
5F31F92F40BA
7F14F46F22F6
7F13F8CF7CD0
5F40AE7AEB20
1EC000000000
05FC52248D90
004CFFFFE910
000023420000
ENDCHAR
STARTCHAR A
ENCODING 65
SWIDTH 786 0
DWIDTH 9 0
BBX 11 11 0 0
BITMAP
00006BEFEA00
001BFC98AA00
00BF60097000
06F7001FA000
0CE0004F7000
2FA0007F4000
4F7000BF1000
5F7002FF0000
3FA009FF01A0
0CF9ADBF9CA0
02BEC32CE910
ENDCHAR
STARTCHAR B
ENCODING 66
SWIDTH 827 0
DWIDTH 10 0
BBX 11 12 0 -1
BITMAP
016ADEFD9200
5EFB867AFE10
982410008F60
007F30007F40
00BE0026EC00
00EB0EFE7100
02F806AF9000
04F6000BF100
06F4001DE000
08F878DF6000
09FFFDA40000
036000000000
ENDCHAR
STARTCHAR C
ENCODING 67
SWIDTH 686 0
DWIDTH 8 0
BBX 10 11 0 0
BITMAP
0005CED600
007FB7BF20
03FA003F60
0BF1004F40
1FB0000400
2F90000000
3F90000000
2FB0000000
0CF3000013
03EF977AF9
002AEFDB61
ENDCHAR
STARTCHAR D
ENCODING 68
SWIDTH 836 0
DWIDTH 10 0
BBX 10 11 0 0
BITMAP
028CEEC700
4FEA78CFB0
4724000AF5
009F1002FA
00CD0000FC
01FA0000FB
03F70003F9
06F50009F4
08F3005FB0
0AF77BFC10
07EFEB6000
ENDCHAR
STARTCHAR E
ENCODING 69
SWIDTH 686 0
DWIDTH 8 0
BBX 10 11 0 0
BITMAP
0018DFD600
00CF96AF40
05F8001F80
06F5002F70
02FC310610
008FFA0000
1CE8520000
7F50000000
9F40000012
3FE9678BEA
03ADFEDB71
ENDCHAR
STARTCHAR F
ENCODING 70
SWIDTH 712 0
DWIDTH 9 0
BBX 12 11 0 0
BITMAP
0039CEFFEEC2
06F97FA66650
0D804F600000
0DA05F500000
05507F400000
000BFFFFD000
0004CF663000
0000CD000000
8102FA000000
DC7CF4000000
3BED50000000
ENDCHAR
STARTCHAR G
ENCODING 71
SWIDTH 811 0
DWIDTH 10 0
BBX 11 17 0 -6
BITMAP
0004BEE91000
007FC78F8000
03FA000DB000
0AF1000E8000
1FB000010000
2F9000121000
3F9005FFE000
2FB0014AE000
0CF30009C2C0
03EF968EDE70
003AEFCFE400
0000009F5000
000009DF2000
00005C7D0000
0000D4B90000
0000F9F30000
00009E700000
ENDCHAR
STARTCHAR H
ENCODING 72
SWIDTH 873 0
DWIDTH 10 0
BBX 13 12 -1 0
BITMAP
00000000000100
008EE30004EE20
0BC7F9001EAB60
2B00EA007F1B50
0000F900BB5F10
0004F823FEF800
00BFFFFFFE7000
002BF524F60000
000BE004F60000
000EB002F801C0
002F8000CE7CA0
002E30003DE900
ENDCHAR
STARTCHAR I
ENCODING 73
SWIDTH 495 0
DWIDTH 6 0
BBX 8 11 -1 0
BITMAP
009FFFF8
0037FC62
0003F800
0005F600
0007F300
0009F100
000BE000
000DC000
001FA000
047FB500
2FFFFE20
ENDCHAR
STARTCHAR J
ENCODING 74
SWIDTH 743 0
DWIDTH 9 0
BBX 10 13 0 -2
BITMAP
006BEFFDA1
0AFA768FC1
1F60004F70
1F70005F50
0840007F30
000017EF10
0003DEEC00
004EB1E900
00DC03F500
03F609E000
03F86F6000
00BFF90000
0003200000
ENDCHAR
STARTCHAR K
ENCODING 75
SWIDTH 937 0
DWIDTH 11 0
BBX 13 11 0 0
BITMAP
019DFEA001D600
0CD77FC007F400
2F404F601DD000
1F606F409F4000
05209F6AF50000
0007FFFC200000
0001DDAF600000
0000EA0EE10000
9703F708F603A0
8F7CF201EE9E60
1AED50005DE700
ENDCHAR
STARTCHAR L
ENCODING 76
SWIDTH 673 0
DWIDTH 8 0
BBX 11 11 -1 0
BITMAP
00002AEEA100
0002EE78F900
0009F300CC00
000ED000D900
001FA0002100
002F90000000
003F70000000
003F50000000
19DF92000480
6FFFFFB78E40
3ED549DFD500
ENDCHAR
STARTCHAR M
ENCODING 77
SWIDTH 1232 0
DWIDTH 15 0
BBX 17 11 0 0
BITMAP
06ED11AE903CE70000
7D8F6CAAF3D8DF1000
D22FA904FB60AF1000
103FE205FD00BF0000
005FB007F800EC0000
007F7009F402F90000
009F300CF005F60000
00BF000EC007F30000
00ED002FA009F20630
00FA003F8006F98E10
00D7002E4001AEC300
ENDCHAR
STARTCHAR N
ENCODING 78
SWIDTH 884 0
DWIDTH 11 0
BBX 13 11 0 0
BITMAP
06DE208ED40000
7D8F78B7FC0000
D22F9B00CE0000
103FD300EC0000
005FC002F90000
007F7005F60000
009F3008F40000
00BF000AF10000
00ED000BF00810
00FA0009F8AC00
00D70002BEB100
ENDCHAR
STARTCHAR O
ENCODING 79
SWIDTH 816 0
DWIDTH 10 0
BBX 10 11 0 0
BITMAP
0005CEE800
007FB7AFA0
03FA000AF3
0AF10005F7
0EB00003F8
2F900004F7
3F800006F5
2FA0000BF1
0DE1004F80
06FC79FB10
005CFD7100
ENDCHAR
STARTCHAR P
ENCODING 80
SWIDTH 805 0
DWIDTH 10 0
BBX 10 12 0 -1
BITMAP
00029DFD60
004EC77DF6
01E87D01FC
09C0BE00EC
0E60DC04F8
3F36FC8ED1
5F2FFFD810
6E05F50000
6E08F20000
4F3AF00000
0DCEC00000
03CE500000
ENDCHAR
STARTCHAR Q
ENCODING 81
SWIDTH 816 0
DWIDTH 10 0
BBX 11 16 0 -5
BITMAP
0004BEE80000
007FB7AFA000
03FA000AF300
0AF20005F700
0EB00003F800
2F900004F800
3F800006F500
2FA0000BF100
0EE1004FA000
06FC68FD1000
007EFFB20000
00009F700000
00001EE10140
000008F93B60
000001CFFA00
000000033000
ENDCHAR
STARTCHAR R
ENCODING 82
SWIDTH 880 0
DWIDTH 11 0
BBX 13 11 0 0
BITMAP
0003ADFC600000
006FB77EF40000
03F62404FA0000
0BA0BD02FA0000
1F40EC06F60000
3F11FA5EB00000
5F0EFFF8000000
5F07F9ED100000
2F38F26F800710
0CBDE00DF8AD00
02CE7003CFB200
ENDCHAR
STARTCHAR S
ENCODING 83
SWIDTH 693 0
DWIDTH 8 0
BBX 9 11 0 0
BITMAP
004BEEB400
03FC77DE10
0AF1004F40
0AF2004F20
05FD500100
006EFD5000
00017EF600
6E0002EC00
8F0000DC00
4FB77BF600
06CEEB5000
ENDCHAR
STARTCHAR T
ENCODING 84
SWIDTH 697 0
DWIDTH 8 0
BBX 11 11 0 0
BITMAP
017BDEFFFE90
2EC77FB66740
7E004F700000
7F107F400000
18009F200000
0000CE000000
0000EC000000
0001FA000000
0003F8000000
0005F6000000
0004E3000000
ENDCHAR
STARTCHAR U
ENCODING 85
SWIDTH 890 0
DWIDTH 11 0
BBX 13 11 0 0
BITMAP
06DE40007D0000
7E7FA000BF0000
D20FB000DD0000
102F9001FB0000
005F6004F90000
008F3008F60000
00BF000DF40000
00EC005DF20000
00FB02D9F20920
00EFAE77FCCD00
005ED701BEB200
ENDCHAR
STARTCHAR V
ENCODING 86
SWIDTH 763 0
DWIDTH 9 0
BBX 10 11 1 0
BITMAP
1E6007EC10
4F702F8F70
6F505D0F70
7F404E3F50
8F301DEF31
8F3002FFFC
7F3005F532
6F500CB000
3F907F3000
0DFCF60000
04DD600000
ENDCHAR
STARTCHAR W
ENCODING 87
SWIDTH 1217 0
DWIDTH 15 0
BBX 16 11 1 0
BITMAP
1D60006E102CE600
4F7000BF10BBCE00
6F5000EE00E58E00
7F4002FD00D7BB00
8F3006FC007EF920
8F200AFC000AFFF4
8F301EDC000DB340
6F406D8D005F3000
4F81E76F21E90000
0EFDD12FDED10000
05EC2008EB200000
ENDCHAR
STARTCHAR X
ENCODING 88
SWIDTH 712 0
DWIDTH 9 0
BBX 11 11 -1 0
BITMAP
009ED3007E20
0AB8FC04FA00
0700AF4ED100
00005FEE2000
00001FF40000
00005FE00000
0003EFF20000
001DD6F60000
00CF31FA0090
09F700AF7BC0
1E90002CEA10
ENDCHAR
STARTCHAR Y
ENCODING 89
SWIDTH 851 0
DWIDTH 10 0
BBX 12 16 0 -5
BITMAP
06DE40007D00
7E7FB000BF00
D20FA000ED00
002F9002FB00
005F6006F900
008F300BF700
00AF104EF500
009F54D8F200
003EFE58FCE7
000144AFFA61
00008FEEB000
0007F81E8000
000E903F4000
001F93CC0000
000AFFD20000
000033000000
ENDCHAR
STARTCHAR Z
ENCODING 90
SWIDTH 721 0
DWIDTH 9 0
BBX 11 11 0 0
BITMAP
028DEFEC9100
1DD867AFE300
4F4000AF3000
2F5004FA0000
05100CE10000
00007F700000
0003FD000000
001DF4000000
3BDFB1000B20
BFFFFE96BC00
7EC46BEEA100
ENDCHAR
STARTCHAR bracketleft
ENCODING 91
SWIDTH 405 0
DWIDTH 5 0
BBX 6 14 0 -2
BITMAP
008FFC
00DC64
00F900
02F700
04F600
06F400
08F200
09F000
0BD000
0DB000
0FA000
2F9200
2FFF80
034410
ENDCHAR
STARTCHAR backslash
ENCODING 92
SWIDTH 509 0
DWIDTH 6 0
BBX 5 12 1 0
BITMAP
7A0000
9E0000
5F4000
1F8000
0CC000
08F100
04F500
01F900
00BD00
007F20
003F60
000C50
ENDCHAR
STARTCHAR bracketright
ENCODING 93
SWIDTH 405 0
DWIDTH 5 0
BBX 6 14 -1 -2
BITMAP
02EFF6
0057F8
0003F6
0005F5
0007F3
0009F1
000BE0
000CC0
000EA0
001F80
003F60
026F40
7FFF20
144200
ENDCHAR
STARTCHAR asciicircum
ENCODING 94
SWIDTH 700 0
DWIDTH 8 0
BBX 6 7 1 1
BITMAP
001D40
008F90
01FAD0
09D2F3
2F50C7
9D008B
C5004C
ENDCHAR
STARTCHAR underscore
ENCODING 95
SWIDTH 354 0
DWIDTH 4 0
BBX 5 3 -1 -2
BITMAP
012210
3FFFD0
044430
ENDCHAR
STARTCHAR grave
ENCODING 96
SWIDTH 600 0
DWIDTH 7 0
BBX 3 4 1 7
BITMAP
5C00
5F40
0AA0
01C0
ENDCHAR
STARTCHAR a
ENCODING 97
SWIDTH 470 0
DWIDTH 6 0
BBX 8 6 0 0
BITMAP
01AE7100
0CEAF200
5F57F000
8F0AD081
7F8FE9D0
2DD5DC20
ENDCHAR
STARTCHAR b
ENCODING 98
SWIDTH 473 0
DWIDTH 6 0
BBX 8 12 0 0
BITMAP
003DB000
00DAF200
05E2F100
0AB4C000
0E8B6000
2F9C0000
4FEFC000
5F8AF741
5F35FFF3
3F31F720
0EBAD000
05DD3000
ENDCHAR
STARTCHAR c
ENCODING 99
SWIDTH 368 0
DWIDTH 4 0
BBX 6 6 0 0
BITMAP
05DD20
2FAD60
7F1920
9E001A
6F97D9
09ED80
ENDCHAR
STARTCHAR d
ENCODING 100
SWIDTH 515 0
DWIDTH 6 0
BBX 8 12 0 0
BITMAP
00001BC1
00007DE4
0000C7C4
0001F4D2
0004F3D0
0006F790
02AFEC30
0CDBFB00
5F38F400
8E07E028
7F8EF8D6
1CD5AE70
ENDCHAR
STARTCHAR e
ENCODING 101
SWIDTH 393 0
DWIDTH 5 0
BBX 7 6 0 0
BITMAP
05DE4000
3F9D9000
8E2D6000
9FD71930
5F97DD10
08EE9100
ENDCHAR
STARTCHAR f
ENCODING 102
SWIDTH 371 0
DWIDTH 4 0
BBX 6 17 0 -5
BITMAP
0009E3
006EC8
00D898
04F3B6
08E1E1
0CB780
0EBC10
2FE300
4F5221
5FAFF9
5FA941
6F7900
5F6A00
4F6B00
2F9A00
0CF400
013000
ENDCHAR
STARTCHAR g
ENCODING 103
SWIDTH 479 0
DWIDTH 6 0
BBX 7 12 0 -6
BITMAP
01AE7100
0CEAF200
5F57F000
8F0AC2B0
7F8FDE90
2DDEE600
009F6000
09DF2000
5C6E0000
C5B90000
F9F30000
9E700000
ENDCHAR
STARTCHAR h
ENCODING 104
SWIDTH 502 0
DWIDTH 6 0
BBX 8 12 0 0
BITMAP
003DB000
00DAF200
04F2F100
09B4C000
0D8A6000
1FAC0000
3FE7E700
4F7FF800
5FC6F500
5FC3F347
5F85F8E4
4E22ED40
ENDCHAR
STARTCHAR i
ENCODING 105
SWIDTH 246 0
DWIDTH 3 0
BBX 5 9 0 0
BITMAP
001000
0BF300
023000
0C7000
2F6000
5F3000
6F1560
5F8E30
1DD400
ENDCHAR
STARTCHAR j
ENCODING 106
SWIDTH 254 0
DWIDTH 3 0
BBX 8 14 -3 -6
BITMAP
0001ED00
00003200
0000C700
0001F600
0003F400
0005F284
0006FCD1
0008F910
004EB000
04DE7000
1D4F4000
796E0000
ABD80000
5EB10000
ENDCHAR
STARTCHAR k
ENCODING 107
SWIDTH 525 0
DWIDTH 6 0
BBX 8 12 0 0
BITMAP
003DB000
00DAF200
04F2F100
09B4C000
0D8A5000
1FAB0000
3FD6EB00
4F7DAF20
5FC4AD00
5FCAE32A
4F7BE7D8
2E33DE80
ENDCHAR
STARTCHAR l
ENCODING 108
SWIDTH 326 0
DWIDTH 4 0
BBX 6 12 0 0
BITMAP
003DA0
00DAF1
04E1F1
09B2F0
0D86B0
1F5B60
3F6E10
4FC700
5FD100
4F5055
1EA8E2
06ED40
ENDCHAR
STARTCHAR m
ENCODING 109
SWIDTH 744 0
DWIDTH 9 0
BBX 11 6 0 0
BITMAP
0B77E45E5000
2F8FF8FF7000
5FD6FD6F4000
6FB5FB5F1550
6F66F66F8E30
3E23E13ED400
ENDCHAR
STARTCHAR n
ENCODING 110
SWIDTH 496 0
DWIDTH 6 0
BBX 8 6 0 0
BITMAP
0B76E600
2F8FF700
5FD6F400
6FC4F256
6F66F8E3
3E22ED40
ENDCHAR
STARTCHAR o
ENCODING 111
SWIDTH 451 0
DWIDTH 5 0
BBX 7 6 0 0
BITMAP
05DE6000
3FAEF330
8F0AFFE0
9E05F410
5F8CA000
09EB1000
ENDCHAR
STARTCHAR p
ENCODING 112
SWIDTH 481 0
DWIDTH 6 0
BBX 10 12 -2 -6
BITMAP
002E7DB000
003FD9F400
003F44F400
005F48F173
00CF8FC9E1
04EFEAEC20
0AAF200000
0E6F000000
3C7D000000
6A9A000000
6DD5000000
2DB0000000
ENDCHAR
STARTCHAR q
ENCODING 113
SWIDTH 500 0
DWIDTH 6 0
BBX 8 12 0 -5
BITMAP
00004400
01AEF900
0CE9F500
5F56F100
8F0BC121
7F8F9DF7
2DDF7E41
002F5D10
004F4E00
004F5D00
002FD900
000AD200
ENDCHAR
STARTCHAR r
ENCODING 114
SWIDTH 455 0
DWIDTH 5 0
BBX 8 6 0 0
BITMAP
0B75E600
2F7FF700
5FC7F7A1
6FC1EFB0
6F702400
3E200000
ENDCHAR
STARTCHAR s
ENCODING 115
SWIDTH 427 0
DWIDTH 5 0
BBX 8 6 -1 0
BITMAP
000A9000
003F7000
00AED100
05D3F859
1E7BFEF5
024EFE70
ENDCHAR
STARTCHAR t
ENCODING 116
SWIDTH 393 0
DWIDTH 5 0
BBX 7 12 0 0
BITMAP
00001000
002DE100
00BAF300
02F3F200
06E5B000
0ADD3000
DFFFF400
5EB65000
0E800000
0DA00720
09E7AD10
01BEB200
ENDCHAR
STARTCHAR u
ENCODING 117
SWIDTH 462 0
DWIDTH 6 0
BBX 7 6 0 0
BITMAP
0B81D300
1F55F100
5F2AD000
6F3FA0A0
6FEDCAB0
1D96EA10
ENDCHAR
STARTCHAR v
ENCODING 118
SWIDTH 449 0
DWIDTH 5 0
BBX 7 6 0 0
BITMAP
4E07E200
6F1DF430
6F2DFFD0
5F9E3310
3FF80000
0DB00000
ENDCHAR
STARTCHAR w
ENCODING 119
SWIDTH 700 0
DWIDTH 8 0
BBX 10 6 0 0
BITMAP
4E03E06E20
6F1AF1CF43
6F3FF2DFFE
5FACF8E331
3FF5FF8000
0DA0BB1000
ENDCHAR
STARTCHAR x
ENCODING 120
SWIDTH 529 0
DWIDTH 6 0
BBX 8 6 0 0
BITMAP
0AE79E50
0EAFDC60
022F8100
684F6019
BCCFC6D8
6EA6DE80
ENDCHAR
STARTCHAR y
ENCODING 121
SWIDTH 479 0
DWIDTH 6 0
BBX 7 12 0 -6
BITMAP
0B81D300
1F55F200
5F2AE000
6F3FC2B0
6FEEDE90
1DACE500
009F5000
09DF2000
5C7D0000
D4B90000
F9F30000
AE700000
ENDCHAR
STARTCHAR z
ENCODING 122
SWIDTH 445 0
DWIDTH 5 0
BBX 7 6 0 0
BITMAP
3FFFF900
169FD400
07F70000
2F8002B0
2FC68E80
06DFC600
ENDCHAR
STARTCHAR braceleft
ENCODING 123
SWIDTH 490 0
DWIDTH 6 0
BBX 7 14 0 -2
BITMAP
0002BEC0
000AE840
000EA000
001F8000
003F6000
029F2000
4FF70000
05DC0000
00BE0000
00CC0000
00EA0000
00DC2000
007FF900
00024100
ENDCHAR
STARTCHAR bar
ENCODING 124
SWIDTH 326 0
DWIDTH 4 0
BBX 4 16 0 -4
BITMAP
008A
00CA
00E9
01F7
03F5
05F3
07F1
09D0
0BB0
0D90
0F70
2F50
4F30
6F10
8E00
8B00
ENDCHAR
STARTCHAR braceright
ENCODING 125
SWIDTH 490 0
DWIDTH 6 0
BBX 7 14 -1 -2
BITMAP
02EE8000
006BF300
0003F600
0005F500
0006F300
0006F710
0001EFB0
0009E620
000EB000
001F9000
002F7000
029F4000
6FFA0000
14200000
ENDCHAR
STARTCHAR asciitilde
ENCODING 126
SWIDTH 700 0
DWIDTH 8 0
BBX 7 3 1 2
BITMAP
3EB20880
CDDE8F50
E307EA00
ENDCHAR
STARTCHAR uni00A0
ENCODING 160
SWIDTH 265 0
DWIDTH 3 0
BBX 1 1 0 0
BITMAP
00
ENDCHAR
STARTCHAR exclamdown
ENCODING 161
SWIDTH 340 0
DWIDTH 4 0
BBX 5 11 -1 -5
BITMAP
004E70
007F80
000300
008A00
00D800
02F600
06F300
0AF000
0EC000
3F8000
292000
ENDCHAR
STARTCHAR cent
ENCODING 162
SWIDTH 466 0
DWIDTH 6 0
BBX 6 9 0 -2
BITMAP
000B00
003C10
08FFD0
3F99F1
6F6650
5F94A2
1DFEB0
01D400
00B000
ENDCHAR
STARTCHAR sterling
ENCODING 163
SWIDTH 525 0
DWIDTH 6 0
BBX 7 8 0 0
BITMAP
00001000
009FFA00
07F77F30
0CC21200
9FFFB000
2EA42000
3FA66500
AFFFFD00
ENDCHAR
STARTCHAR currency
ENCODING 164
SWIDTH 700 0
DWIDTH 8 0
BBX 6 7 1 1
BITMAP
000100
6CDFBE
0E95D8
2E006B
0E62B8
3EFFEC
67131C
ENDCHAR
STARTCHAR yen
ENCODING 165
SWIDTH 497 0
DWIDTH 6 0
BBX 7 8 0 0
BITMAP
35000620
6F408E20
0CC5F400
05FF8000
5FFFF700
16DD6100
7FFFF500
24E94100
ENDCHAR
STARTCHAR brokenbar
ENCODING 166
SWIDTH 326 0
DWIDTH 4 0
BBX 4 16 0 -4
BITMAP
008A
00CA
00E8
01F6
03F4
05F2
05D0
0000
0000
0B70
0F80
2F60
4F40
6F20
8F00
8B00
ENDCHAR
STARTCHAR section
ENCODING 167
SWIDTH 607 0
DWIDTH 7 0
BBX 7 11 0 0
BITMAP
004CFC20
00EB7DA0
02F50AA0
00EE6210
05EAFC10
09C03F60
05FC6F30
024BFB00
1F309E00
1FA6CC00
06DEB300
ENDCHAR
STARTCHAR dieresis
ENCODING 168
SWIDTH 600 0
DWIDTH 7 0
BBX 5 2 1 7
BITMAP
3E4AB0
3E3AA0
ENDCHAR
STARTCHAR copyright
ENCODING 169
SWIDTH 647 0
DWIDTH 8 0
BBX 7 9 1 4
BITMAP
00010000
07EFE600
6B9FCB50
C3E6C2C0
D49020E0
D5C263D0
7DCFBD70
09FFF900
00242000
ENDCHAR
STARTCHAR ordfeminine
ENCODING 170
SWIDTH 393 0
DWIDTH 5 0
BBX 5 5 1 5
BITMAP
09E900
8D6F10
E77D00
F5CC00
AEBB00
ENDCHAR
STARTCHAR guillemotleft
ENCODING 171
SWIDTH 615 0
DWIDTH 7 0
BBX 7 5 0 1
BITMAP
02B81AA0
4ED5DE40
9F27F500
2DD3CE40
02C61B90
ENDCHAR
STARTCHAR logicalnot
ENCODING 172
SWIDTH 700 0
DWIDTH 8 0
BBX 7 5 1 0
BITMAP
12222100
DFFFFF70
34444F70
00002F50
00002A10
ENDCHAR
STARTCHAR uni00AD
ENCODING 173
SWIDTH 403 0
DWIDTH 5 0
BBX 5 2 0 3
BITMAP
056820
3FEC30
ENDCHAR
STARTCHAR registered
ENCODING 174
SWIDTH 647 0
DWIDTH 8 0
BBX 7 9 1 4
BITMAP
00010000
07EFE600
6DEECE50
C393C3C0
D0BD30E0
D2C682D0
7D626D70
09FFF900
00242000
ENDCHAR
STARTCHAR macron
ENCODING 175
SWIDTH 600 0
DWIDTH 7 0
BBX 5 3 1 6
BITMAP
012200
3FFF70
044410
ENDCHAR
STARTCHAR degree
ENCODING 176
SWIDTH 385 0
DWIDTH 5 0
BBX 4 5 1 6
BITMAP
4EE4
BAAB
C78B
6FF4
0220
ENDCHAR
STARTCHAR plusminus
ENCODING 177
SWIDTH 700 0
DWIDTH 8 0
BBX 7 8 1 0
BITMAP
00051000
001F4000
024F5200
5FFFFF20
159F5400
007C0000
47777400
BFFFF900
ENDCHAR
STARTCHAR uni00B2
ENCODING 178
SWIDTH 450 0
DWIDTH 5 0
BBX 6 6 0 4
BITMAP
04DEA0
0C75F4
0616F2
003E80
08F820
3FFFF5
ENDCHAR
STARTCHAR uni00B3
ENCODING 179
SWIDTH 450 0
DWIDTH 5 0
BBX 6 6 0 4
BITMAP
03CEC1
0C73F6
012AC1
005DC1
1E25F4
09EE90
ENDCHAR
STARTCHAR acute
ENCODING 180
SWIDTH 600 0
DWIDTH 7 0
BBX 3 4 3 7
BITMAP
0890
1E90
6D10
A300
ENDCHAR
STARTCHAR uni00B5
ENCODING 181
SWIDTH 462 0
DWIDTH 6 0
BBX 7 10 0 -4
BITMAP
0B81D300
1F55F100
4F2AD000
6F3FA0A0
7FEDCAB0
8FA6EA10
9C000000
AC000000
AC000000
34000000
ENDCHAR
STARTCHAR paragraph
ENCODING 182
SWIDTH 739 0
DWIDTH 9 0
BBX 8 11 1 0
BITMAP
06CEFEA1
7FFFCAF6
BFFF86F4
9FFF68F2
1AEF4AF0
008F1CC0
00AE0FA0
00DC2F80
00FA4F60
02F96F40
01E54E20
ENDCHAR
STARTCHAR periodcentered
ENCODING 183
SWIDTH 257 0
DWIDTH 3 0
BBX 3 3 0 2
BITMAP
0100
4FA0
4E80
ENDCHAR
STARTCHAR cedilla
ENCODING 184
SWIDTH 600 0
DWIDTH 7 0
BBX 5 6 0 -4
BITMAP
001000
08FA00
027F20
025F10
3FF800
033000
ENDCHAR
STARTCHAR uni00B9
ENCODING 185
SWIDTH 450 0
DWIDTH 5 0
BBX 4 6 1 4
BITMAP
3AE7
78F6
02F4
04F2
06F0
06C0
ENDCHAR
STARTCHAR ordmasculine
ENCODING 186
SWIDTH 408 0
DWIDTH 5 0
BBX 5 6 1 4
BITMAP
2CE600
B97E00
F53F20
D76E00
6FE500
011000
ENDCHAR
STARTCHAR guillemotright
ENCODING 187
SWIDTH 615 0
DWIDTH 7 0
BBX 7 5 0 1
BITMAP
3D31D500
1BE49F60
01DC0BF0
1BF69F90
5D32D500
ENDCHAR
STARTCHAR onequarter
ENCODING 188
SWIDTH 955 0
DWIDTH 11 0
BBX 11 10 1 0
BITMAP
3AE700000000
78F600C40000
02F407F20000
04F21E800000
06F09E1D5000
06C3F67E5500
000BC0D8C800
004F43F2E600
007A06FFFE10
00000024E300
ENDCHAR
STARTCHAR onehalf
ENCODING 189
SWIDTH 1024 0
DWIDTH 12 0
BBX 11 10 1 0
BITMAP
3AE700000000
78F600C40000
02F407F20000
04F21E800000
06F09E2AFD30
06C3F67C2D90
000BC0341E70
004F4001BC10
007A004DC310
000000DFFFA0
ENDCHAR
STARTCHAR threequarters
ENCODING 190
SWIDTH 1035 0
DWIDTH 12 0
BBX 12 10 0 0
BITMAP
03CEC1000000
0C73F600C400
012AC107E200
005DC11E7000
1E25F49D1D40
09EE93F57E55
00000BC0D7C8
00005F34F2E5
00008906FFFE
0000000035E2
ENDCHAR
STARTCHAR questiondown
ENCODING 191
SWIDTH 476 0
DWIDTH 6 0
BBX 6 11 -1 -5
BITMAP
0002DB
0003FC
000030
0005D0
001D90
01CC10
1DD200
6F50A6
7F73E8
2EFFD2
013300
ENDCHAR
STARTCHAR Agrave
ENCODING 192
SWIDTH 786 0
DWIDTH 9 0
BBX 11 15 0 0
BITMAP
0000D8000000
00009F900000
000003C60000
000000000000
00006BEFEA00
001BFC98AA00
00BF60097000
06F7001FA000
0CE0004F7000
2FA0007F4000
4F7000BF1000
5F7002FF0000
3FA009FF01A0
0CF9ADBF9CA0
02BEC32CE910
ENDCHAR
STARTCHAR Aacute
ENCODING 193
SWIDTH 786 0
DWIDTH 9 0
BBX 11 15 0 0
BITMAP
000000005D30
00000006FC10
0000002D5000
000000000000
00006BEFEA00
001BFC98AA00
00BF60097000
06F7001FA000
0CE0004F7000
2FA0007F4000
4F7000BF1000
5F7002FF0000
3FA009FF01A0
0CF9ADBF9CA0
02BEC32CE910
ENDCHAR
STARTCHAR Acircumflex
ENCODING 194
SWIDTH 786 0
DWIDTH 9 0
BBX 11 16 0 0
BITMAP
000000162000
000000CFA000
000006F7F100
00000B71D300
000000000000
00006BEFEA00
001BFC98AA00
00BF60097000
06F7001FA000
0CE0004F7000
2FA0007F4000
4F7000BF1000
5F7002FF0000
3FA009FF01A0
0CF9ADBF9CA0
02BEC32CE910
ENDCHAR
STARTCHAR Atilde
ENCODING 195
SWIDTH 786 0
DWIDTH 9 0
BBX 11 15 0 0
BITMAP
000002600600
00000DFC8D00
00003D29E400
000000000000
00006BEFEA00
001BFC98AA00
00BF60097000
06F7001FA000
0CE0004F7000
2FA0007F4000
4F7000BF1000
5F7002FF0000
3FA009FF01A0
0CF9ADBF9CA0
02BEC32CE910
ENDCHAR
STARTCHAR Adieresis
ENCODING 196
SWIDTH 786 0
DWIDTH 9 0
BBX 11 14 0 0
BITMAP
00000AC3F500
000009B3E400
000000000000
00006BEFEA00
001BFC98AA00
00BF60097000
06F7001FA000
0CE0004F7000
2FA0007F4000
4F7000BF1000
5F7002FF0000
3FA009FF01A0
0CF9ADBF9CA0
02BEC32CE910
ENDCHAR
STARTCHAR Aring
ENCODING 197
SWIDTH 786 0
DWIDTH 9 0
BBX 11 16 0 0
BITMAP
000000010000
000000BFA000
000002F8F000
000001EFA000
000000130000
00006BEFEA00
001BFC98AA00
00BF60097000
06F7001FA000
0CE0004F7000
2FA0007F4000
4F7000BF1000
5F7002FF0000
3FA009FF01A0
0CF9ADBF9CA0
02BEC32CE910
ENDCHAR
STARTCHAR AE
ENCODING 198
SWIDTH 1015 0
DWIDTH 12 0
BBX 14 11 0 0
BITMAP
00007CE2CFFFC0
001CFC87F86630
00CF600AE00000
06F7000EC00000
0DE1003F900000
2FA0007FFFFE10
4F8000BF866400
5F7001FF200000
3FA008FF500013
0CF88F5EE879E8
02BED503BEEC70
ENDCHAR
STARTCHAR Ccedilla
ENCODING 199
SWIDTH 686 0
DWIDTH 8 0
BBX 10 15 0 -4
BITMAP
0005CED600
007FB7BF20
03FA003F60
0BF1004F40
0FB0000400
2F90000000
3F90000000
2FB0000000
0CF3000013
04FF977AFA
003EFFEB71
0005BC0000
00028D0000
007FF60000
0014200000
ENDCHAR
STARTCHAR Egrave
ENCODING 200
SWIDTH 686 0
DWIDTH 8 0
BBX 10 15 0 0
BITMAP
006C200000
003EE30000
00018C0000
0000000000
0018DFD600
00CF96AF40
05F8001F80
06F5002F70
02FC310610
008FFA0000
1CE8520000
7F50000000
9F40000012
3FE9678BEA
03ADFEDB71
ENDCHAR
STARTCHAR Eacute
ENCODING 201
SWIDTH 686 0
DWIDTH 8 0
BBX 10 15 0 0
BITMAP
0000001BA0
000001CF60
0000099200
0000000000
0018DFD600
00CF96AF40
05F8001F80
06F5002F70
02FC310610
008FFA0000
1CE8520000
7F50000000
9F40000012
3FE9678BEA
03ADFEDB71
ENDCHAR
STARTCHAR Ecircumflex
ENCODING 202
SWIDTH 686 0
DWIDTH 8 0
BBX 10 16 0 0
BITMAP
0000045000
00004FF200
0001D9C800
0004D17900
0000000000
0018DFD600
00CF96AF40
05F8001F80
06F5002F70
02FC310610
008FFA0000
1CE8520000
7F50000000
9F40000012
3FE9678BEA
03ADFEDB71
ENDCHAR
STARTCHAR Edieresis
ENCODING 203
SWIDTH 686 0
DWIDTH 8 0
BBX 10 14 0 0
BITMAP
0003F5AC00
0003E4AB00
0000000000
0018DFD600
00CF96AF40
05F8001F80
06F5002F70
02FC310610
008FFA0000
1CE8520000
7F50000000
9F40000012
3FE9678BEA
03ADFEDB71
ENDCHAR
STARTCHAR Igrave
ENCODING 204
SWIDTH 495 0
DWIDTH 6 0
BBX 8 15 -1 0
BITMAP
01D70000
00AF9000
0004C500
00000000
009FFFF8
0037FC62
0003F800
0005F600
0007F300
0009F100
000BE000
000DC000
001FA000
047FB500
2FFFFE20
ENDCHAR
STARTCHAR Iacute
ENCODING 205
SWIDTH 495 0
DWIDTH 6 0
BBX 9 15 -1 0
BITMAP
0000005D20
000006FC10
00003D5000
0000000000
009FFFF800
0037FC6200
0003F80000
0005F60000
0007F30000
0009F10000
000BE00000
000DC00000
001FA00000
047FB50000
2FFFFE2000
ENDCHAR
STARTCHAR Icircumflex
ENCODING 206
SWIDTH 495 0
DWIDTH 6 0
BBX 8 16 -1 0
BITMAP
00001610
0000CF90
0007E7E1
000C71E2
00000000
009FFFF8
0037FC62
0003F800
0005F600
0007F300
0009F100
000BE000
000DC000
001FA000
047FB500
2FFFFE20
ENDCHAR
STARTCHAR Idieresis
ENCODING 207
SWIDTH 495 0
DWIDTH 6 0
BBX 8 14 -1 0
BITMAP
000BC3F4
000AB3E4
00000000
009FFFF8
0037FC62
0003F800
0005F600
0007F300
0009F100
000BE000
000DC000
001FA000
047FB500
2FFFFE20
ENDCHAR
STARTCHAR Eth
ENCODING 208
SWIDTH 821 0
DWIDTH 10 0
BBX 10 11 0 0
BITMAP
000BFEC600
004F97CF90
007F200CF3
00BD0005F8
01EB2002F9
AFFFFE03F8
29F74306F6
09F1000BF1
0BE0008F80
0DE67CF900
0AEFDB4000
ENDCHAR
STARTCHAR Ntilde
ENCODING 209
SWIDTH 884 0
DWIDTH 11 0
BBX 13 15 0 0
BITMAP
00000530330000
00006FF7D60000
0000A64DB00000
00000000000000
06DE208ED40000
7D8F78B7FC0000
D22F9B00CE0000
103FD300EC0000
005FC002F90000
007F7005F60000
009F3008F40000
00BF000AF10000
00ED000BF00810
00FA0009F8AC00
00D70002BEB100
ENDCHAR
STARTCHAR Ograve
ENCODING 210
SWIDTH 816 0
DWIDTH 10 0
BBX 10 15 0 0
BITMAP
004D400000
002DF50000
00006D1000
0000000000
0005CEE800
007FB7AFA0
03FA000AF3
0AF10005F7
0EB00003F8
2F900004F7
3F800006F5
2FA0000BF1
0DE1004F80
06FC79FB10
005CFD7100
ENDCHAR
STARTCHAR Oacute
ENCODING 211
SWIDTH 816 0
DWIDTH 10 0
BBX 10 15 0 0
BITMAP
00000008C0
000000AF80
000007B300
0000000000
0005CEE800
007FB7AFA0
03FA000AF3
0AF10005F7
0EB00003F8
2F900004F7
3F800006F5
2FA0000BF1
0DE1004F80
06FC79FB10
005CFD7100
ENDCHAR
STARTCHAR Ocircumflex
ENCODING 212
SWIDTH 816 0
DWIDTH 10 0
BBX 10 16 0 0
BITMAP
0000036000
00002EF500
0000BCAB00
0002E35C00
0000000000
0005CEE800
007FB7AFA0
03FA000AF3
0AF10005F7
0EB00003F8
2F900004F7
3F800006F5
2FA0000BF1
0DE1004F80
06FC79FB10
005CFD7100
ENDCHAR
STARTCHAR Otilde
ENCODING 213
SWIDTH 816 0
DWIDTH 10 0
BBX 10 15 0 0
BITMAP
0000440240
0003FF9B80
000893CC10
0000000000
0005CEE800
007FB7AFA0
03FA000AF3
0AF10005F7
0EB00003F8
2F900004F7
3F800006F5
2FA0000BF1
0DE1004F80
06FC79FB10
005CFD7100
ENDCHAR
STARTCHAR Odieresis
ENCODING 214
SWIDTH 816 0
DWIDTH 10 0
BBX 10 14 0 0
BITMAP
0001E77E10
0001D77D10
0000000000
0005CEE800
007FB7AFA0
03FA000AF3
0AF10005F7
0EB00003F8
2F900004F7
3F800006F5
2FA0000BF1
0DE1004F80
06FC79FB10
005CFD7100
ENDCHAR
STARTCHAR multiply
ENCODING 215
SWIDTH 700 0
DWIDTH 8 0
BBX 7 6 1 1
BITMAP
1D403D20
0DE4EB00
03EFB100
03EF9000
3EB8F600
8A00A800
ENDCHAR
STARTCHAR Oslash
ENCODING 216
SWIDTH 816 0
DWIDTH 10 0
BBX 10 14 0 -2
BITMAP
000000D400
0005CEF910
007FBCFFB0
03F90B8AF3
0AF10F55F7
0EB03F13F8
2F907C04F7
3F80B906F5
2FA0E50BF1
0DE4F24F80
06FEE8EB10
006EFD7100
000E500000
0006100000
ENDCHAR
STARTCHAR Ugrave
ENCODING 217
SWIDTH 890 0
DWIDTH 11 0
BBX 13 15 0 0
BITMAP
0009B100000000
0006EC10000000
000029A0000000
00000000000000
06DE40007D0000
7E7FA000BF0000
D20FB000DD0000
102F9001FB0000
005F6004F90000
008F3008F60000
00BF000DF40000
00EC005DF20000
00FB02D9F20920
00EFAE77FCCD00
005ED701BEB200
ENDCHAR
STARTCHAR Uacute
ENCODING 218
SWIDTH 890 0
DWIDTH 11 0
BBX 13 15 0 0
BITMAP
00000002C70000
0000003EE40000
000000C8100000
00000000000000
06DE40007D0000
7E7FA000BF0000
D20FB000DD0000
102F9001FB0000
005F6004F90000
008F3008F60000
00BF000DF40000
00EC005DF20000
00FB02D9F20920
00EFAE77FCCD00
005ED701BEB200
ENDCHAR
STARTCHAR Ucircumflex
ENCODING 219
SWIDTH 890 0
DWIDTH 11 0
BBX 13 16 0 0
BITMAP
00000064000000
000007FE000000
00002F7F500000
00007B0A600000
00000000000000
06DE40007D0000
7E7FA000BF0000
D20FB000DD0000
102F9001FB0000
005F6004F90000
008F3008F60000
00BF000DF40000
00EC005DF20000
00FB02D9F20920
00EFAE77FCCD00
005ED701BEB200
ENDCHAR
STARTCHAR Udieresis
ENCODING 220
SWIDTH 890 0
DWIDTH 11 0
BBX 13 14 0 0
BITMAP
00006F2D900000
00005E2D800000
00000000000000
06DE40007D0000
7E7FA000BF0000
D20FB000DD0000
102F9001FB0000
005F6004F90000
008F3008F60000
00BF000DF40000
00EC005DF20000
00FB02D9F20920
00EFAE77FCCD00
005ED701BEB200
ENDCHAR
STARTCHAR Yacute
ENCODING 221
SWIDTH 851 0
DWIDTH 10 0
BBX 12 20 0 -5
BITMAP
00000001B900
0000002CE500
000000A91000
000000000000
06DE40007D00
7E7FB000BF00
D20FA000ED00
002F9002FB00
005F6006F900
008F300BF700
00AF104EF500
009F54D8F200
003EFE58FCE7
000144AFFA61
00008FEEB000
0007F81E8000
000E903F4000
001F93CC0000
000AFFD20000
000033000000
ENDCHAR
STARTCHAR Thorn
ENCODING 222
SWIDTH 776 0
DWIDTH 9 0
BBX 10 14 0 -2
BITMAP
00006E1000
0000AF1000
0000CE1000
002CFFFC40
02EEFB7EE1
0AD4F808F5
1F65F508F4
4F17F33ED0
6E5EFDFD30
7D2EE85000
6E0EB00000
3F5F800000
0BFF400000
0176000000
ENDCHAR
STARTCHAR germandbls
ENCODING 223
SWIDTH 596 0
DWIDTH 7 0
BBX 9 14 0 -3
BITMAP
0000100000
004DFE4000
02EA5CC000
0AD00AC000
0E809E4000
2F59E20000
4F3BE30000
5F28FFCA40
6F6F5CE650
6F9F7DC000
7F3CFC3000
7F10000000
7F10000000
2600000000
ENDCHAR
STARTCHAR agrave
ENCODING 224
SWIDTH 470 0
DWIDTH 6 0
BBX 8 11 0 0
BITMAP
04D00000
03F50000
008C0000
000C1000
00000000
01AE7100
0CEAF200
5F57F000
8F0AD081
7F8FE9D0
2DD5DC20
ENDCHAR
STARTCHAR aacute
ENCODING 225
SWIDTH 470 0
DWIDTH 6 0
BBX 8 11 0 0
BITMAP
00007B00
0000EA00
0005E100
00094000
00000000
01AE7100
0CEAF200
5F57F000
8F0AD081
7F8FE9D0
2DD5DC20
ENDCHAR
STARTCHAR acircumflex
ENCODING 226
SWIDTH 470 0
DWIDTH 6 0
BBX 8 11 0 0
BITMAP
0009D100
004EE400
00D7B800
04D18900
00000000
01AE7100
0CEAF200
5F57F000
8F0AD081
7F8FE9D0
2DD5DC20
ENDCHAR
STARTCHAR atilde
ENCODING 227
SWIDTH 470 0
DWIDTH 6 0
BBX 8 10 0 0
BITMAP
00530320
05FF7D50
0A64DA00
00000000
01AE7100
0CEAF200
5F57F000
8F0AD081
7F8FE9D0
2DD5DC20
ENDCHAR
STARTCHAR adieresis
ENCODING 228
SWIDTH 470 0
DWIDTH 6 0
BBX 8 9 0 0
BITMAP
02E59C00
02E49B00
00000000
01AE7100
0CEAF200
5F57F000
8F0AD081
7F8FE9D0
2DD5DC20
ENDCHAR
STARTCHAR aring
ENCODING 229
SWIDTH 470 0
DWIDTH 6 0
BBX 8 10 0 0
BITMAP
004EE300
00ABC700
007FE300
00032000
01AE7100
0CEAF200
5F57F000
8F0AD081
7F8FE9D0
2DD5DC20
ENDCHAR
STARTCHAR ae
ENCODING 230
SWIDTH 653 0
DWIDTH 8 0
BBX 10 6 0 0
BITMAP
01AEACE500
0CE8FACB00
5F35F2C800
8F0AFE8184
7F8EFA7CE2
1CE57EEA20
ENDCHAR
STARTCHAR ccedilla
ENCODING 231
SWIDTH 368 0
DWIDTH 4 0
BBX 6 10 0 -4
BITMAP
05DD20
2FAD60
7F1B30
9E0007
6F53BA
0BFE70
027E10
025F10
3FF900
033000
ENDCHAR
STARTCHAR egrave
ENCODING 232
SWIDTH 393 0
DWIDTH 5 0
BBX 7 11 0 0
BITMAP
0C600000
0BD00000
02E40000
00580000
00000000
05DE4000
3F9D9000
8E2D6000
9FD71930
5F97DD10
08EE9100
ENDCHAR
STARTCHAR eacute
ENCODING 233
SWIDTH 393 0
DWIDTH 5 0
BBX 7 11 0 0
BITMAP
0001D400
0006F200
000C8000
002B0000
00000000
05DE4000
3F9D9000
8E2D6000
9FD71930
5F97DD10
08EE9100
ENDCHAR
STARTCHAR ecircumflex
ENCODING 234
SWIDTH 393 0
DWIDTH 5 0
BBX 7 11 0 0
BITMAP
003D6000
00CCC000
05E4F100
0B61E200
00000000
05DE4000
3F9D9000
8E2D6000
9FD71930
5F97DD10
08EE9100
ENDCHAR
STARTCHAR edieresis
ENCODING 235
SWIDTH 393 0
DWIDTH 5 0
BBX 7 9 0 0
BITMAP
09C2E500
09B2E400
00000000
05DE4000
3F9D9000
8E2D6000
9FD71930
5F97DD10
08EE9100
ENDCHAR
STARTCHAR igrave
ENCODING 236
SWIDTH 246 0
DWIDTH 3 0
BBX 6 11 -1 0
BITMAP
1D3000
0DA000
04F200
008500
000000
00C700
02F600
05F300
06F156
05F8E3
01DD40
ENDCHAR
STARTCHAR iacute
ENCODING 237
SWIDTH 246 0
DWIDTH 3 0
BBX 5 11 0 0
BITMAP
003D10
009E10
01E500
049000
000000
0C7000
2F6000
5F3000
6F1560
5F8E30
1DD400
ENDCHAR
STARTCHAR icircumflex
ENCODING 238
SWIDTH 246 0
DWIDTH 3 0
BBX 5 11 0 0
BITMAP
05E400
1EC900
8C6D00
D43D00
000000
0C7000
2F6000
5F3000
6F1560
5F8E30
1DD400
ENDCHAR
STARTCHAR idieresis
ENCODING 239
SWIDTH 246 0
DWIDTH 3 0
BBX 5 9 0 0
BITMAP
B94E20
C95E20
000000
0C7000
2F6000
5F3000
6F1560
5F8E30
1DD400
ENDCHAR
STARTCHAR eth
ENCODING 240
SWIDTH 451 0
DWIDTH 5 0
BBX 7 12 0 0
BITMAP
02E50400
008EAE20
007FE300
05DBE000
0004F300
0002F500
06EEF600
3FA9F600
8E02F500
8E05F100
5F8DA000
09EB2000
ENDCHAR
STARTCHAR ntilde
ENCODING 241
SWIDTH 496 0
DWIDTH 6 0
BBX 8 10 0 0
BITMAP
00540330
04FF7C60
0873DB00
00000000
0B76E600
2F8FF700
5FD6F400
6FC4F256
6F66F8E3
3E22ED40
ENDCHAR
STARTCHAR ograve
ENCODING 242
SWIDTH 451 0
DWIDTH 5 0
BBX 7 11 0 0
BITMAP
0C500000
0CC00000
02E30000
00670000
00000000
05DE6000
3FAEF330
8F0AFFE0
9E05F410
5F8CA000
09EB1000
ENDCHAR
STARTCHAR oacute
ENCODING 243
SWIDTH 451 0
DWIDTH 5 0
BBX 7 11 0 0
BITMAP
0001D300
0007F200
000D7000
002B0000
00000000
05DE6000
3FAEF330
8F0AFFE0
9E05F410
5F8CA000
09EB1000
ENDCHAR
STARTCHAR ocircumflex
ENCODING 244
SWIDTH 451 0
DWIDTH 5 0
BBX 7 11 0 0
BITMAP
003E6000
00CCB000
06D5E000
0B62E100
00000000
05DE6000
3FAEF330
8F0AFFE0
9E05F410
5F8CA000
09EB1000
ENDCHAR
STARTCHAR otilde
ENCODING 245
SWIDTH 451 0
DWIDTH 5 0
BBX 7 10 0 0
BITMAP
02600500
0DFC8C00
3C19E300
00000000
05DE6000
3FAEF330
8F0AFFE0
9E05F410
5F8CA000
09EB1000
ENDCHAR
STARTCHAR odieresis
ENCODING 246
SWIDTH 451 0
DWIDTH 5 0
BBX 7 9 0 0
BITMAP
09B2E400
0AB3E400
00000000
05DE6000
3FAEF330
8F0AFFE0
9E05F410
5F8CA000
09EB1000
ENDCHAR
STARTCHAR divide
ENCODING 247
SWIDTH 700 0
DWIDTH 8 0
BBX 7 8 1 0
BITMAP
00010000
004F5000
00030000
12222200
DFFFFF70
34444410
00430000
00DA0000
ENDCHAR
STARTCHAR oslash
ENCODING 248
SWIDTH 459 0
DWIDTH 6 0
BBX 8 10 0 -2
BITMAP
00050000
000D0000
06EF6000
3FCEF200
8E78FCD1
9D96FA60
6FEBD000
0AFC3000
02B00000
01400000
ENDCHAR
STARTCHAR ugrave
ENCODING 249
SWIDTH 462 0
DWIDTH 6 0
BBX 7 11 0 0
BITMAP
07B00000
06F30000
00B90000
002C0000
00000000
0B81D300
1F55F100
5F2AD000
6F3FA0A0
6FEDCAB0
1D96EA10
ENDCHAR
STARTCHAR uacute
ENCODING 250
SWIDTH 462 0
DWIDTH 6 0
BBX 7 11 0 0
BITMAP
0000A800
0002F700
0007C000
000B2000
00000000
0B81D300
1F55F100
5F2AD000
6F3FA0A0
6FEDCAB0
1D96EA10
ENDCHAR
STARTCHAR ucircumflex
ENCODING 251
SWIDTH 462 0
DWIDTH 6 0
BBX 7 11 0 0
BITMAP
000BB000
007CF200
01E5E600
06B0A600
00000000
0B81D300
1F55F100
5F2AD000
6F3FA0A0
6FEDCAB0
1D96EA10
ENDCHAR
STARTCHAR udieresis
ENCODING 252
SWIDTH 462 0
DWIDTH 6 0
BBX 7 9 0 0
BITMAP
04E2B900
04E2C900
00000000
0B81D300
1F55F100
5F2AD000
6F3FA0A0
6FEDCAB0
1D96EA10
ENDCHAR
STARTCHAR yacute
ENCODING 253
SWIDTH 479 0
DWIDTH 6 0
BBX 7 17 0 -6
BITMAP
0000A800
0002F700
0007C000
000B2000
00000000
0B81D300
1F55F200
5F2AE000
6F3FC2B0
6FEEDE90
1DACE500
009F5000
09DF2000
5C7D0000
D4B90000
F9F30000
AE700000
ENDCHAR
STARTCHAR thorn
ENCODING 254
SWIDTH 508 0
DWIDTH 6 0
BBX 8 14 0 -4
BITMAP
04E10000
09E00000
0BB00000
0E800000
1F6AE400
3FB9F900
5FC0E800
7F63F548
8F7DF7E4
9FE9DD50
AC000000
AC000000
BC000000
99000000
ENDCHAR
STARTCHAR ydieresis
ENCODING 255
SWIDTH 479 0
DWIDTH 6 0
BBX 7 15 0 -6
BITMAP
04E2B900
04E2C900
00000000
0B81D300
1F55F200
5F2AE000
6F3FC2B0
6FEEDE90
1DACE500
009F5000
09DF2000
5C7D0000
D4B90000
F9F30000
AE700000
ENDCHAR
STARTCHAR Amacron
ENCODING 256
SWIDTH 786 0
DWIDTH 9 0
BBX 11 14 0 0
BITMAP
000000221000
000009FFF100
000002443000
00006BEFEA00
001BFC98AA00
00BF60097000
06F7001FA000
0CE0004F7000
2FA0007F4000
4F7000BF1000
5F7002FF0000
3FA009FF01A0
0CF9ADBF9CA0
02BEC32CE910
ENDCHAR
STARTCHAR amacron
ENCODING 257
SWIDTH 470 0
DWIDTH 6 0
BBX 8 9 0 0
BITMAP
00122000
02FFF800
00444100
01AE7100
0CEAF200
5F57F000
8F0AD081
7F8FE9D0
2DD5DC20
ENDCHAR
STARTCHAR Abreve
ENCODING 258
SWIDTH 786 0
DWIDTH 9 0
BBX 11 15 0 0
BITMAP
000002000200
00001F72AC00
000009FFE400
000000341000
00006BEFEA00
001BFC98AA00
00BF60097000
06F7001FA000
0CE0004F7000
2FA0007F4000
4F7000BF1000
5F7002FF0000
3FA009FF01A0
0CF9ADBF9CA0
02BEC32CE910
ENDCHAR
STARTCHAR abreve
ENCODING 259
SWIDTH 470 0
DWIDTH 6 0
BBX 8 10 0 0
BITMAP
04600820
08F46F30
01DFF900
00042000
01AE7100
0CEAF200
5F57F000
8F0AD081
7F8FE9D0
2DD5DC20
ENDCHAR
STARTCHAR Aogonek
ENCODING 260
SWIDTH 786 0
DWIDTH 9 0
BBX 11 15 0 -4
BITMAP
00006BEFEA00
001BFB768900
00BF500A8000
06F6001FA000
0CE0004F7000
2FA0007F4000
4F8000BF1000
5F7002FF0000
3FA008FE0090
0CF89EBF8BA0
02BEC32DFA10
0000001D7000
0000003F3000
0000001CFD00
000000003100
ENDCHAR
STARTCHAR aogonek
ENCODING 261
SWIDTH 470 0
DWIDTH 6 0
BBX 8 10 0 -4
BITMAP
01AE7100
0CEAF200
5F57F000
8F0AD081
7F8FE9D0
2DD6FC20
000BA000
000E6000
0009FE10
00002100
ENDCHAR
STARTCHAR Cacute
ENCODING 262
SWIDTH 686 0
DWIDTH 8 0
BBX 10 15 0 0
BITMAP
00000009C0
000000AF80
000007B300
0000000000
0005CED600
007FB7BF20
03FA003F60
0BF1004F40
1FB0000400
2F90000000
3F90000000
2FB0000000
0CF3000013
03EF977AF9
002AEFDB61
ENDCHAR
STARTCHAR cacute
ENCODING 263
SWIDTH 368 0
DWIDTH 4 0
BBX 6 11 0 0
BITMAP
0001D3
0007F2
000D70
003A00
000000
05DD20
2FAD60
7F1920
9E001A
6F97D9
09ED80
ENDCHAR
STARTCHAR Ccircumflex
ENCODING 264
SWIDTH 686 0
DWIDTH 8 0
BBX 10 16 0 0
BITMAP
0000036000
00002EF500
0000BCAA00
0002E35C00
0000000000
0005CED600
007FB7BF20
03FA003F60
0BF1004F40
1FB0000400
2F90000000
3F90000000
2FB0000000
0CF3000013
03EF977AF9
002AEFDB61
ENDCHAR
STARTCHAR ccircumflex
ENCODING 265
SWIDTH 368 0
DWIDTH 4 0
BBX 6 11 0 0
BITMAP
003E50
00DCB0
06D5E0
0C52E1
000000
05DD20
2FAD60
7F1920
9E001A
6F97D9
09ED80
ENDCHAR
STARTCHAR Cdotaccent
ENCODING 266
SWIDTH 686 0
DWIDTH 8 0
BBX 10 14 0 0
BITMAP
00001DD000
00001DC000
0000000000
0005CED600
007FB7BF20
03FA003F60
0BF1004F40
1FB0000400
2F90000000
3F90000000
2FB0000000
0CF3000013
03EF977AF9
002AEFDB61
ENDCHAR
STARTCHAR cdotaccent
ENCODING 267
SWIDTH 368 0
DWIDTH 4 0
BBX 6 9 0 0
BITMAP
000100
00AF30
002300
05DD20
2FAD60
7F1920
9E001A
6F97D9
09ED80
ENDCHAR
STARTCHAR Ccaron
ENCODING 268
SWIDTH 686 0
DWIDTH 8 0
BBX 10 15 0 0
BITMAP
0000B62E20
00007CB900
00001CB100
0000000000
0005CED600
007FB7BF20
03FA003F60
0BF1004F40
1FB0000400
2F90000000
3F90000000
2FB0000000
0CF3000013
03EF977AF9
002AEFDB61
ENDCHAR
STARTCHAR ccaron
ENCODING 269
SWIDTH 368 0
DWIDTH 4 0
BBX 6 11 0 0
BITMAP
04D089
03F3F3
00ECA0
008D10
000000
05DD20
2FAD60
7F1920
9E001A
6F97D9
09ED80
ENDCHAR
STARTCHAR Dcaron
ENCODING 270
SWIDTH 836 0
DWIDTH 10 0
BBX 10 15 0 0
BITMAP
0003D08900
0000D8E300
00005E5000
0000000000
028CEEC700
4FEA78CFB0
4724000AF5
009F1002FA
00CD0000FC
01FA0000FB
03F70003F9
06F50009F4
08F3005FB0
0AF77BFC10
07EFEB6000
ENDCHAR
STARTCHAR dcaron
ENCODING 271
SWIDTH 470 0
DWIDTH 6 0
BBX 8 12 0 0
BITMAP
00000039
00004E9D
00008F77
0000AD00
0000CA00
0000E700
01AEF500
0CEAF200
5F57F000
8F0AD081
7F8FE9D0
2DD5DC20
ENDCHAR
STARTCHAR Dcroat
ENCODING 272
SWIDTH 821 0
DWIDTH 10 0
BBX 10 11 0 0
BITMAP
000BFEC600
004F97CF90
007F200CF3
00BD0005F8
01EB2002F9
AFFFFE03F8
29F74306F6
09F1000BF1
0BE0008F80
0DE67CF900
0AEFDB4000
ENDCHAR
STARTCHAR dcroat
ENCODING 273
SWIDTH 470 0
DWIDTH 6 0
BBX 8 11 0 0
BITMAP
00005E20
00129F10
00FFFF80
0044DB10
0000E700
01AEF400
0CEAF200
5F57E000
8F0AD081
7F8FE9D0
2DD5DC20
ENDCHAR
STARTCHAR Emacron
ENCODING 274
SWIDTH 686 0
DWIDTH 8 0
BBX 10 14 0 0
BITMAP
0000122000
0002FFF800
0000444100
0018DFD600
00CF96AF40
05F8001F80
06F5002F70
02FC310610
008FFA0000
1CE8520000
7F50000000
9F40000012
3FE9678BEA
03ADFEDB71
ENDCHAR
STARTCHAR emacron
ENCODING 275
SWIDTH 393 0
DWIDTH 5 0
BBX 7 9 0 0
BITMAP
00221000
09FFF100
02443000
05DE4000
3F9D9000
8E2D6000
9FD71930
5F97DD10
08EE9100
ENDCHAR
STARTCHAR Ebreve
ENCODING 276
SWIDTH 686 0
DWIDTH 8 0
BBX 10 15 0 0
BITMAP
0001100200
0009D35E40
0003EFFA00
0000143000
0018DFD600
00CF96AF40
05F8001F80
06F5002F70
02FC310610
008FFA0000
1CE8520000
7F50000000
9F40000012
3FE9678BEA
03ADFEDB71
ENDCHAR
STARTCHAR ebreve
ENCODING 277
SWIDTH 393 0
DWIDTH 5 0
BBX 7 10 0 0
BITMAP
09103700
1FA2CA00
07FFE300
00241000
05DE4000
3F9D9000
8E2D6000
9FD71930
5F97DD10
08EE9100
ENDCHAR
STARTCHAR Edotaccent
ENCODING 278
SWIDTH 686 0
DWIDTH 8 0
BBX 10 14 0 0
BITMAP
00002EB000
00002E9000
0000000000
0018DFD600
00CF96AF40
05F8001F80
06F5002F70
02FC310610
008FFA0000
1CE8520000
7F50000000
9F40000012
3FE9678BEA
03ADFEDB71
ENDCHAR
STARTCHAR edotaccent
ENCODING 279
SWIDTH 393 0
DWIDTH 5 0
BBX 7 9 0 0
BITMAP
00010000
009F4000
00130000
05DE4000
3F9D9000
8E2D6000
9FD71930
5F97DD10
08EE9100
ENDCHAR
STARTCHAR Eogonek
ENCODING 280
SWIDTH 686 0
DWIDTH 8 0
BBX 10 15 0 -4
BITMAP
0018DFD600
00CF96AF40
05F8001F80
06F5002F70
02FC310610
008FFA0000
1CE8520000
7F50000000
9F40000012
4FE9678BEA
04BEFFEB71
0000C80000
0000F72000
0000AFF200
0000032000
ENDCHAR
STARTCHAR eogonek
ENCODING 281
SWIDTH 393 0
DWIDTH 5 0
BBX 7 10 0 -4
BITMAP
05DE3000
2F9D9000
7E1D7000
9EE90720
6F84AE10
0AFFB200
00D60000
02F30000
00CFD000
00021000
ENDCHAR
STARTCHAR Ecaron
ENCODING 282
SWIDTH 686 0
DWIDTH 8 0
BBX 10 15 0 0
BITMAP
0000D34D00
00009AD600
00002D9000
0000000000
0018DFD600
00CF96AF40
05F8001F80
06F5002F70
02FC310610
008FFA0000
1CE8520000
7F50000000
9F40000012
3FE9678BEA
03ADFEDB71
ENDCHAR
STARTCHAR ecaron
ENCODING 283
SWIDTH 393 0
DWIDTH 5 0
BBX 7 11 0 0
BITMAP
03D07900
02F3E400
00DCA000
008D2000
00000000
05DE4000
3F9D9000
8E2D6000
9FD71930
5F97DD10
08EE9100
ENDCHAR
STARTCHAR Gcircumflex
ENCODING 284
SWIDTH 811 0
DWIDTH 10 0
BBX 11 22 0 -6
BITMAP
000002610000
00001DF80000
00009E8D0000
0000D53E1000
000000000000
0004BEE91000
007FC78F8000
03FA000DB000
0AF1000E8000
1FB000010000
2F9000121000
3F9005FFE000
2FB0014AE000
0CF30009C2C0
03EF968EDE70
003AEFCFE400
0000009F5000
000009DF2000
00005C7D0000
0000D4B90000
0000F9F30000
00009E700000
ENDCHAR
STARTCHAR gcircumflex
ENCODING 285
SWIDTH 479 0
DWIDTH 6 0
BBX 7 17 0 -6
BITMAP
0009D100
004EE400
00D7B800
04D18900
00000000
01AE7100
0CEAF200
5F57F000
8F0AC2B0
7F8FDE90
2DDEE600
009F6000
09DF2000
5C6E0000
C5B90000
F9F30000
9E700000
ENDCHAR
STARTCHAR Gbreve
ENCODING 286
SWIDTH 811 0
DWIDTH 10 0
BBX 11 21 0 -6
BITMAP
000020011000
0003F53C9000
0000CFFD2000
000003400000
0004BEE91000
007FC78F8000
03FA000DB000
0AF1000E8000
1FB000010000
2F9000121000
3F9005FFE000
2FB0014AE000
0CF30009C2C0
03EF968EDE70
003AEFCFE400
0000009F5000
000009DF2000
00005C7D0000
0000D4B90000
0000F9F30000
00009E700000
ENDCHAR
STARTCHAR gbreve
ENCODING 287
SWIDTH 479 0
DWIDTH 6 0
BBX 7 16 0 -6
BITMAP
04600820
08F46F30
01DFF900
00042000
01AE7100
0CEAF200
5F57F000
8F0AC2B0
7F8FDE90
2DDEE600
009F6000
09DF2000
5C6E0000
C5B90000
F9F30000
9E700000
ENDCHAR
STARTCHAR Gdotaccent
ENCODING 288
SWIDTH 811 0
DWIDTH 10 0
BBX 11 20 0 -6
BITMAP
00000BE20000
00000CD10000
000000000000
0004BEE91000
007FC78F8000
03FA000DB000
0AF1000E8000
1FB000010000
2F9000121000
3F9005FFE000
2FB0014AE000
0CF30009C2C0
03EF968EDE70
003AEFCFE400
0000009F5000
000009DF2000
00005C7D0000
0000D4B90000
0000F9F30000
00009E700000
ENDCHAR
STARTCHAR gdotaccent
ENCODING 289
SWIDTH 479 0
DWIDTH 6 0
BBX 7 14 0 -6
BITMAP
002FC000
00031000
01AE7100
0CEAF200
5F57F000
8F0AC2B0
7F8FDE90
2DDEE600
009F6000
09DF2000
5C6E0000
C5B90000
F9F30000
9E700000
ENDCHAR
STARTCHAR uni0122
ENCODING 290
SWIDTH 811 0
DWIDTH 10 0
BBX 11 17 0 -6
BITMAP
0004BEE91000
007FC78F8000
03FA000DB000
0AF1000E8000
1FB000010000
2F9000121000
3F9005FFE000
2FB0014AE000
0CF30009C2C0
03EF968EDE70
003AEFCFE400
0000009F5000
004909DF2000
008C5C7D0000
0077D4B90000
0000F9F30000
00009E700000
ENDCHAR
STARTCHAR uni0123
ENCODING 291
SWIDTH 479 0
DWIDTH 6 0
BBX 7 16 0 -6
BITMAP
0007A000
000A9000
000A4000
00000000
01AE7100
0CEAF200
5F57F000
8F0AC2B0
7F8FDE90
2DDEE600
009F6000
09DF2000
5C6E0000
C5B90000
F9F30000
9E700000
ENDCHAR
STARTCHAR Hcircumflex
ENCODING 292
SWIDTH 873 0
DWIDTH 10 0
BBX 13 16 -1 0
BITMAP
00000006300000
0000008FD00000
000003F7F40000
000008B0B60000
00000000000100
008EE30004EE20
0BC7F9001EAB60
2B00EA007F1B50
0000F900BB5F10
0004F823FEF800
00BFFFFFFE7000
002BF524F60000
000BE004F60000
000EB002F801C0
002F8000CE7CA0
002E30003DE900
ENDCHAR
STARTCHAR hcircumflex
ENCODING 293
SWIDTH 502 0
DWIDTH 6 0
BBX 8 17 0 0
BITMAP
00026100
001DF800
009E8D00
00D53E10
00000000
003DB000
00DAF200
04F2F100
09B4C000
0D8A6000
1FAC0000
3FE7E700
4F7FF800
5FC6F500
5FC3F347
5F85F8E4
4E22ED40
ENDCHAR
STARTCHAR Hbar
ENCODING 294
SWIDTH 856 0
DWIDTH 10 0
BBX 11 11 0 0
BITMAP
006E1001D700
00AF2113F900
0CFFFFFFFF70
03ED4448F710
00FA0008F200
3EFFFFFFFE10
19F9666ED500
07F3000FA000
0AF1002F8000
0CE0004F7000
0AA0004E3000
ENDCHAR
STARTCHAR hbar
ENCODING 295
SWIDTH 502 0
DWIDTH 6 0
BBX 8 11 0 0
BITMAP
00D70000
04F61000
4FFFF400
0BD43000
0DA00000
0F75E700
2F7FF800
3FD6F500
4FC3F347
4F85F8E4
2E32ED50
ENDCHAR
STARTCHAR Itilde
ENCODING 296
SWIDTH 495 0
DWIDTH 6 0
BBX 8 15 -1 0
BITMAP
00026006
001DFC8C
004C2AE4
00000000
009FFFF8
0037FC62
0003F800
0005F600
0007F300
0009F100
000BE000
000DC000
001FA000
047FB500
2FFFFE20
ENDCHAR
STARTCHAR itilde
ENCODING 297
SWIDTH 246 0
DWIDTH 3 0
BBX 6 10 -1 0
BITMAP
035015
1EFAAA
5B2BD2
000000
00C700
02F600
05F300
06F156
05F8E3
01DD40
ENDCHAR
STARTCHAR Imacron
ENCODING 298
SWIDTH 495 0
DWIDTH 6 0
BBX 8 14 -1 0
BITMAP
00002210
000AFFF0
00024430
009FFFF8
0037FC62
0003F800
0005F600
0007F300
0009F100
000BE000
000DC000
001FA000
047FB500
2FFFFE20
ENDCHAR
STARTCHAR imacron
ENCODING 299
SWIDTH 246 0
DWIDTH 3 0
BBX 5 9 0 0
BITMAP
122100
CFFD00
344300
0C7000
2F6000
5F3000
6F1560
5F8E30
1DD400
ENDCHAR
STARTCHAR Ibreve
ENCODING 300
SWIDTH 495 0
DWIDTH 6 0
BBX 8 15 -1 0
BITMAP
00020002
002F73AB
000AFFE4
00003410
009FFFF8
0037FC62
0003F800
0005F600
0007F300
0009F100
000BE000
000DC000
001FA000
047FB500
2FFFFE20
ENDCHAR
STARTCHAR ibreve
ENCODING 301
SWIDTH 246 0
DWIDTH 3 0
BBX 6 10 -1 0
BITMAP
190056
3F73E8
09FFC1
003300
00C700
02F600
05F300
06F156
05F8E3
01DD40
ENDCHAR
STARTCHAR Iogonek
ENCODING 302
SWIDTH 495 0
DWIDTH 6 0
BBX 8 15 -1 -4
BITMAP
009FFFF8
0037FC62
0003F800
0005F600
0007F300
0009F100
000BE000
000DC000
001FA000
047FB500
2FFFFE20
008B0000
00BA2000
007FF500
00033000
ENDCHAR
STARTCHAR iogonek
ENCODING 303
SWIDTH 246 0
DWIDTH 3 0
BBX 5 13 0 -4
BITMAP
001000
0CF100
022000
0C7000
2F6000
5F3000
6F1550
5F8E30
1FE400
6D1000
AA0000
5FF500
012000
ENDCHAR
STARTCHAR Idotaccent
ENCODING 304
SWIDTH 495 0
DWIDTH 6 0
BBX 8 14 -1 0
BITMAP
00009E30
0000AE20
00000000
009FFFF8
0037FC62
0003F800
0005F600
0007F300
0009F100
000BE000
000DC000
001FA000
047FB500
2FFFFE20
ENDCHAR
STARTCHAR dotlessi
ENCODING 305
SWIDTH 246 0
DWIDTH 3 0
BBX 5 6 0 0
BITMAP
0C7000
2F6000
5F3000
6F1560
5F8E30
1DD400
ENDCHAR
STARTCHAR Jcircumflex
ENCODING 308
SWIDTH 743 0
DWIDTH 9 0
BBX 10 18 0 -2
BITMAP
0000063000
00009FC000
0004F6F300
0009A0C500
0000000000
006BEFFDA1
0AFA768FC1
1F60004F70
1F70005F50
0840007F30
000017EF10
0003DEEC00
004EB1E900
00DC03F500
03F609E000
03F86F6000
00BFF90000
0003200000
ENDCHAR
STARTCHAR jcircumflex
ENCODING 309
SWIDTH 254 0
DWIDTH 3 0
BBX 8 17 -3 -6
BITMAP
00005E40
0001EC90
0008C7C0
000D44D0
00000000
0000C700
0001F600
0003F400
0005F284
0006FCD1
0008F910
004EB000
04DE7000
1D4F4000
796E0000
ABD80000
5EB10000
ENDCHAR
STARTCHAR uni0136
ENCODING 310
SWIDTH 937 0
DWIDTH 11 0
BBX 13 15 0 -4
BITMAP
019DFEA001D600
0CD77FC007F400
2F404F601DD000
1F606F409F4000
05209F6AF50000
0007FFFC200000
0001DDAF600000
0000EA0EE10000
9703F708F603A0
8F7CF201EE9E60
1AED50005DE700
00000000000000
00000770000000
00000B90000000
00000A40000000
ENDCHAR
STARTCHAR uni0137
ENCODING 311
SWIDTH 525 0
DWIDTH 6 0
BBX 8 16 0 -4
BITMAP
003DB000
00DAF200
04F2F100
09B4C000
0D8A5000
1FAB0000
3FD6EB00
4F7DAF20
5FC4AD00
5FCAE32A
4F7BE7D8
2E33DE80
00000000
00C50000
00F40000
00D00000
ENDCHAR
STARTCHAR kgreenlandic
ENCODING 312
SWIDTH 465 0
DWIDTH 6 0
BBX 8 6 0 0
BITMAP
0B78E900
2F9F9F00
5FDA3900
6FF90091
6FDE7BC0
3E2AFB10
ENDCHAR
STARTCHAR Lacute
ENCODING 313
SWIDTH 673 0
DWIDTH 8 0
BBX 11 15 -1 0
BITMAP
000000005D20
00000007FB10
0000003D5000
000000000000
00002AEEA100
0002EE78F900
0009F300CC00
000ED000D900
001FA0002100
002F90000000
003F70000000
003F50000000
19DF92000480
6FFFFFB78E40
3ED549DFD500
ENDCHAR
STARTCHAR lacute
ENCODING 314
SWIDTH 326 0
DWIDTH 4 0
BBX 8 16 0 0
BITMAP
000007D1
00009FA0
0005C400
00000000
003DA000
00DAF100
04E1F100
09B2F000
0D86B000
1F5B6000
3F6E1000
4FC70000
5FD10000
4F505500
1EA8E200
06ED4000
ENDCHAR
STARTCHAR uni013B
ENCODING 315
SWIDTH 673 0
DWIDTH 8 0
BBX 11 15 -1 -4
BITMAP
00002AEEA100
0002EE78F900
0009F300CC00
000ED000D900
001FA0002100
002F90000000
003F70000000
003F50000000
19DF92000480
6FFFFFB78E40
3ED549DFD500
000000000000
000094000000
0000E6000000
0000D2000000
ENDCHAR
STARTCHAR uni013C
ENCODING 316
SWIDTH 326 0
DWIDTH 4 0
BBX 6 16 0 -4
BITMAP
003DA0
00DAF1
04E1F1
09B2F0
0D86B0
1F5B60
3F6E10
4FC700
5FD100
4F5055
1EA8E2
06ED40
000000
07A000
0A9000
0A4000
ENDCHAR
STARTCHAR Lcaron
ENCODING 317
SWIDTH 673 0
DWIDTH 8 0
BBX 12 11 -1 0
BITMAP
00002AEEA166
0002EE78F9B9
0009F300CCB3
000ED000D900
001FA0002100
002F90000000
003F70000000
003F50000000
19DF92000480
6FFFFFB78E40
3ED549DFD500
ENDCHAR
STARTCHAR lcaron
ENCODING 318
SWIDTH 237 0
DWIDTH 3 0
BBX 6 12 0 0
BITMAP
0001A1
01D9F1
05F7A0
08F100
0BD000
0EA000
1F7000
3F4000
5F2000
7F0740
6F8E20
2DD300
ENDCHAR
STARTCHAR Ldot
ENCODING 319
SWIDTH 673 0
DWIDTH 8 0
BBX 11 11 -1 0
BITMAP
00002AEEA100
0002EE78F900
0009F300CC00
000ED000D900
001FA0002100
002F90100000
003F73FB0000
003F50310000
19DF92000480
6FFFFFB78E40
3ED549DFD500
ENDCHAR
STARTCHAR ldot
ENCODING 320
SWIDTH 363 0
DWIDTH 4 0
BBX 6 12 0 0
BITMAP
00AA00
01F900
04F500
07F200
0AD000
0DBCA0
1F8D90
3F4000
5F2000
6F301A
3FB7D8
08EE70
ENDCHAR
STARTCHAR Lslash
ENCODING 321
SWIDTH 673 0
DWIDTH 8 0
BBX 11 14 -1 0
BITMAP
000000011000
00006BFFFD10
0001B9654400
000019EEA100
0001DE78F800
0009F300CC00
000EC000DA00
001FA0003100
002F80000000
003F70000000
003F50000000
19DF92000480
6FFFFFB78E40
3ED549DFD500
ENDCHAR
STARTCHAR lslash
ENCODING 322
SWIDTH 326 0
DWIDTH 4 0
BBX 8 14 0 0
BITMAP
00000100
007CFFD1
05E96440
005EA000
01EAF100
07E1F100
0C93E000
1F689000
3F5E3000
5FB90000
5FE10000
3F506500
0EB8E200
06ED4000
ENDCHAR
STARTCHAR Nacute
ENCODING 323
SWIDTH 884 0
DWIDTH 11 0
BBX 13 15 0 0
BITMAP
00000001AA0000
0000001CF60000
0000009A200000
00000000000000
06DE208ED40000
7D8F78B7FC0000
D22F9B00CE0000
103FD300EC0000
005FC002F90000
007F7005F60000
009F3008F40000
00BF000AF10000
00ED000BF00810
00FA0009F8AC00
00D70002BEB100
ENDCHAR
STARTCHAR nacute
ENCODING 324
SWIDTH 496 0
DWIDTH 6 0
BBX 8 11 0 0
BITMAP
00006C00
0000DB00
0004E200
00085000
00000000
0B76E600
2F8FF700
5FD6F400
6FC4F256
6F66F8E3
3E22ED40
ENDCHAR
STARTCHAR uni0145
ENCODING 325
SWIDTH 884 0
DWIDTH 11 0
BBX 13 15 0 -4
BITMAP
06DE208ED40000
7D8F78B7FC0000
D22F9B00CE0000
103FD300EC0000
005FC002F90000
007F7005F60000
009F3008F40000
00BF000AF10000
00ED000BF00810
00FA0009F8AC00
00D70002BEB100
00000000000000
00006800000000
0000AB00000000
00009600000000
ENDCHAR
STARTCHAR uni0146
ENCODING 326
SWIDTH 496 0
DWIDTH 6 0
BBX 8 10 0 -4
BITMAP
0B76E600
2F8FF700
5FD6F400
6FC4F256
6F66F8E3
3E22ED40
00000000
00C50000
00F40000
00D00000
ENDCHAR
STARTCHAR Ncaron
ENCODING 327
SWIDTH 884 0
DWIDTH 11 0
BBX 13 15 0 0
BITMAP
00000D34D00000
000009AD700000
000002D9000000
00000000000000
06DE208ED40000
7D8F78B7FC0000
D22F9B00CE0000
103FD300EC0000
005FC002F90000
007F7005F60000
009F3008F40000
00BF000AF10000
00ED000BF00810
00FA0009F8AC00
00D70002BEB100
ENDCHAR
STARTCHAR ncaron
ENCODING 328
SWIDTH 496 0
DWIDTH 6 0
BBX 8 11 0 0
BITMAP
00971D30
008B7D00
005DE400
001D9000
00000000
0B76E600
2F8FF700
5FD6F400
6FC4F256
6F66F8E3
3E22ED40
ENDCHAR
STARTCHAR napostrophe
ENCODING 329
SWIDTH 496 0
DWIDTH 6 0
BBX 8 10 0 0
BITMAP
C5000000
F4000000
D0000000
00000000
0B76E600
2F8FF700
5FD6F400
6FC4F256
6F66F8E3
3E22ED40
ENDCHAR
STARTCHAR Eng
ENCODING 330
SWIDTH 884 0
DWIDTH 11 0
BBX 13 16 0 -5
BITMAP
06DE208ED40000
7D8F79B7FC0000
D22F9B00DD0000
003FE300EC0000
005FC002F90000
007F7005F60000
009F3008F30000
00CF000BE00000
00ED000EB00810
00FA002FD7AD00
00D7006FDFB200
0000009E100000
002000E9000000
00DB38F2000000
005FFF60000000
00014200000000
ENDCHAR
STARTCHAR eng
ENCODING 331
SWIDTH 495 0
DWIDTH 6 0
BBX 8 11 0 -5
BITMAP
0B76E600
2F8FF700
5FD6F400
6FB4F155
6F67E8E3
3E2AFD40
000D6000
113F1000
989A0000
4FD20000
01000000
ENDCHAR
STARTCHAR Omacron
ENCODING 332
SWIDTH 816 0
DWIDTH 10 0
BBX 10 14 0 0
BITMAP
0000122100
0000EFFB00
0000344200
0005CEE800
007FB7AFA0
03FA000AF3
0AF10005F7
0EB00003F8
2F900004F7
3F800006F5
2FA0000BF1
0DE1004F80
06FC79FB10
005CFD7100
ENDCHAR
STARTCHAR omacron
ENCODING 333
SWIDTH 451 0
DWIDTH 5 0
BBX 7 9 0 0
BITMAP
00221000
0AFFF000
02443000
05DE6000
3FAEF330
8F0AFFE0
9E05F410
5F8CA000
09EB1000
ENDCHAR
STARTCHAR Obreve
ENCODING 334
SWIDTH 816 0
DWIDTH 10 0
BBX 10 15 0 0
BITMAP
0000200110
0006E43D70
0001DFFC10
0000033000
0005CEE800
007FB7AFA0
03FA000AF3
0AF10005F7
0EB00003F8
2F900004F7
3F800006F5
2FA0000BF1
0DE1004F80
06FC79FB10
005CFD7100
ENDCHAR
STARTCHAR obreve
ENCODING 335
SWIDTH 451 0
DWIDTH 5 0
BBX 7 10 0 0
BITMAP
09103700
1F93DA00
07FFD200
00240000
05DE6000
3FAEF330
8F0AFFE0
9E05F410
5F8CA000
09EB1000
ENDCHAR
STARTCHAR Ohungarumlaut
ENCODING 336
SWIDTH 816 0
DWIDTH 10 0
BBX 10 15 0 0
BITMAP
00002D2D40
00006E4F20
0000866900
0000000000
0005CEE800
007FB7AFA0
03FA000AF3
0AF10005F7
0EB00003F8
2F900004F7
3F800006F5
2FA0000BF1
0DE1004F80
06FC79FB10
005CFD7100
ENDCHAR
STARTCHAR ohungarumlaut
ENCODING 337
SWIDTH 451 0
DWIDTH 5 0
BBX 7 11 0 0
BITMAP
007B4D00
00CA9D00
01F3E500
0491C000
00000000
05DE6000
3FAEF330
8F0AFFE0
9E05F410
5F8CA000
09EB1000
ENDCHAR
STARTCHAR OE
ENCODING 338
SWIDTH 1124 0
DWIDTH 13 0
BBX 15 11 0 0
BITMAP
0005CEE919FFFF20
007FB7AFDFA66500
03FA000AFF400000
0AF20005FF100000
0EB00003FE000000
2F900004FFFFF500
3F800006FB665100
2FA0000BF7000000
0DE1004FFA000030
06FC79FBCFA68DD0
005CFD7019EFD920
ENDCHAR
STARTCHAR oe
ENCODING 339
SWIDTH 668 0
DWIDTH 8 0
BBX 10 6 0 0
BITMAP
06ED4BE700
3F9CFCAD00
8E05F4AA00
8E06FEA166
5F8DFC6AF4
09EA4CEB30
ENDCHAR
STARTCHAR Racute
ENCODING 340
SWIDTH 880 0
DWIDTH 11 0
BBX 13 15 0 0
BITMAP
00000004D30000
0000005FC10000
000001D6000000
00000000000000
0003ADFC600000
006FB77EF40000
03F62404FA0000
0BA0BD02FA0000
1F40EC06F60000
3F11FA5EB00000
5F0EFFF8000000
5F07F9ED100000
2F38F26F800710
0CBDE00DF8AD00
02CE7003CFB200
ENDCHAR
STARTCHAR racute
ENCODING 341
SWIDTH 455 0
DWIDTH 5 0
BBX 8 11 0 0
BITMAP
0000A800
0002F700
0008C000
000B2000
00000000
0B75E600
2F7FF700
5FC7F7A1
6FC1EFB0
6F702400
3E200000
ENDCHAR
STARTCHAR uni0156
ENCODING 342
SWIDTH 880 0
DWIDTH 11 0
BBX 13 15 0 -4
BITMAP
0003ADFC600000
006FB77EF40000
03F62404FA0000
0BA0BD02FA0000
1F40EC06F60000
3F11FA5EB00000
5F0EFFF8000000
5F07F9ED100000
2F38F26F800710
0CBDE00DF8AD00
02CE7003CFB200
00000000000000
00000850000000
00000D70000000
00000C30000000
ENDCHAR
STARTCHAR uni0157
ENCODING 343
SWIDTH 455 0
DWIDTH 5 0
BBX 8 10 0 -4
BITMAP
0B75E600
2F7FF700
5FC7F7A1
6FC1EFB0
6F702400
3E200000
00000000
5C000000
7C000000
77000000
ENDCHAR
STARTCHAR Rcaron
ENCODING 344
SWIDTH 880 0
DWIDTH 11 0
BBX 13 15 0 0
BITMAP
00005B0A700000
00002F8D100000
000007E3000000
00000000000000
0003ADFC600000
006FB77EF40000
03F62404FA0000
0BA0BD02FA0000
1F40EC06F60000
3F11FA5EB00000
5F0EFFF8000000
5F07F9ED100000
2F38F26F800710
0CBDE00DF8AD00
02CE7003CFB200
ENDCHAR
STARTCHAR rcaron
ENCODING 345
SWIDTH 455 0
DWIDTH 5 0
BBX 8 11 0 0
BITMAP
00D43D00
00C7B900
009CE100
003E5000
00000000
0B75E600
2F7FF700
5FC7F7A1
6FC1EFB0
6F702400
3E200000
ENDCHAR
STARTCHAR Sacute
ENCODING 346
SWIDTH 693 0
DWIDTH 8 0
BBX 9 15 0 0
BITMAP
0000005D30
000006FC10
00002D5000
0000000000
004BEEB400
03FC77DE10
0AF1004F40
0AF2004F20
05FD500100
006EFD5000
00017EF600
6E0002EC00
8F0000DC00
4FB77BF600
06CEEB5000
ENDCHAR
STARTCHAR sacute
ENCODING 347
SWIDTH 427 0
DWIDTH 5 0
BBX 8 11 -1 0
BITMAP
00001D30
00007F20
0000D700
0002B000
00000000
000A9000
003F7000
00AED100
05D3F859
1E7BFEF5
024EFE70
ENDCHAR
STARTCHAR Scircumflex
ENCODING 348
SWIDTH 693 0
DWIDTH 8 0
BBX 9 16 0 0
BITMAP
0000162000
0000CFA000
0006F7F100
000B71D200
0000000000
004BEEB400
03FC77DE10
0AF1004F40
0AF2004F20
05FD500100
006EFD5000
00017EF600
6E0002EC00
8F0000DC00
4FB77BF600
06CEEB5000
ENDCHAR
STARTCHAR scircumflex
ENCODING 349
SWIDTH 427 0
DWIDTH 5 0
BBX 8 11 -1 0
BITMAP
0003E600
000CCC00
006E4F10
00B61E20
00000000
000A9000
003F7000
00AED100
05D3F859
1E7BFEF5
024EFE70
ENDCHAR
STARTCHAR Scedilla
ENCODING 350
SWIDTH 693 0
DWIDTH 8 0
BBX 9 15 0 -4
BITMAP
004BEEB300
03FC77DE10
09F1004F40
0AF2004F20
07FD500200
008FFD5000
0003AFF600
5B0004FC00
8F0000DB00
5F7227F500
06DFFB5000
0026F30000
0014F30000
02FFB00000
0033000000
ENDCHAR
STARTCHAR scedilla
ENCODING 351
SWIDTH 427 0
DWIDTH 5 0
BBX 7 10 0 -4
BITMAP
00AA0000
03F70000
09FB0000
3E9F4140
D72FAB70
66FFE900
027E1000
004F1000
3FF80000
02100000
ENDCHAR
STARTCHAR Scaron
ENCODING 352
SWIDTH 693 0
DWIDTH 8 0
BBX 9 15 0 0
BITMAP
0006A0B600
0002F8D100
00008E3000
0000000000
004BEEB400
03FC77DE10
0AF1004F40
0AF2004F20
05FD500100
006EFD5000
00017EF600
6E0002EC00
8F0000DC00
4FB77BF600
06CEEB5000
ENDCHAR
STARTCHAR scaron
ENCODING 353
SWIDTH 427 0
DWIDTH 5 0
BBX 8 11 -1 0
BITMAP
003D0890
002F3F40
000ECA00
0008D200
00000000
000A9000
003F7000
00AED100
05D3F859
1E7BFEF5
024EFE70
ENDCHAR
STARTCHAR uni0162
ENCODING 354
SWIDTH 697 0
DWIDTH 8 0
BBX 11 15 0 -4
BITMAP
028BDEFFFE90
2EC77FB66740
8E004F700000
7F107F400000
1400AF100000
0000CD000000
0000EB000000
0002F9000000
0004F7000000
0006F5000000
000EF5000000
0004BB000000
0012AA000000
00AFE3000000
001410000000
ENDCHAR
STARTCHAR uni0163
ENCODING 355
SWIDTH 393 0
DWIDTH 5 0
BBX 7 16 0 -4
BITMAP
00001000
002DE100
00BAF300
02F3F200
06E5B000
0ADD3000
DFFFF400
5EB65000
0E800000
0DA00720
09E69E10
04FFC200
038F2000
014F3000
2FFA0000
03300000
ENDCHAR
STARTCHAR Tcaron
ENCODING 356
SWIDTH 697 0
DWIDTH 8 0
BBX 11 15 0 0
BITMAP
0000790C5000
00003F8D1000
000009D20000
000000000000
017BDEFFFE90
2EC77FB66740
7E004F700000
7F107F400000
18009F200000
0000CE000000
0000EC000000
0001FA000000
0003F8000000
0005F6000000
0004E3000000
ENDCHAR
STARTCHAR tcaron
ENCODING 357
SWIDTH 343 0
DWIDTH 4 0
BBX 6 12 0 0
BITMAP
000075
0000D7
01D6C2
04F500
06F200
0AF110
BFFFB0
2FA410
1F6000
2F6036
1FC7E6
06ED60
ENDCHAR
STARTCHAR Tbar
ENCODING 358
SWIDTH 697 0
DWIDTH 8 0
BBX 11 11 0 0
BITMAP
017BDEFFFE90
2EC87FB66740
7E004F700000
8F107F400000
29009F200000
00AFFFFC0000
0046ED640000
0001FA000000
0003F8000000
0005F6000000
0004E3000000
ENDCHAR
STARTCHAR tbar
ENCODING 359
SWIDTH 343 0
DWIDTH 4 0
BBX 6 10 0 0
BITMAP
01D600
04F500
06F200
0AF110
BFFFB0
3FB510
FFFF30
4F7137
1FC7E5
06ED60
ENDCHAR
STARTCHAR Utilde
ENCODING 360
SWIDTH 890 0
DWIDTH 11 0
BBX 13 15 0 0
BITMAP
00001620510000
00009FE6F20000
0000D37E800000
00000000000000
06DE40007D0000
7E7FA000BF0000
D20FB000DD0000
102F9001FB0000
005F6004F90000
008F3008F60000
00BF000DF40000
00EC005DF20000
00FB02D9F20920
00EFAE77FCCD00
005ED701BEB200
ENDCHAR
STARTCHAR utilde
ENCODING 361
SWIDTH 462 0
DWIDTH 6 0
BBX 7 10 0 0
BITMAP
00620510
08FE6E20
0C46E800
00000000
0B81D300
1F55F100
5F2AD000
6F3FA0A0
6FEDCAB0
1D96EA10
ENDCHAR
STARTCHAR Umacron
ENCODING 362
SWIDTH 890 0
DWIDTH 11 0
BBX 13 14 0 0
BITMAP
00000122000000
00005FFF500000
00001444100000
06DE40007D0000
7E7FA000BF0000
D20FB000DD0000
102F9001FB0000
005F6004F90000
008F3008F60000
00BF000DF40000
00EC005DF20000
00FB02D9F20920
00EFAE77FCCD00
005ED701BEB200
ENDCHAR
STARTCHAR umacron
ENCODING 363
SWIDTH 462 0
DWIDTH 6 0
BBX 7 9 0 0
BITMAP
00122000
04FFF600
01444100
0B81D300
1F55F100
5F2AD000
6F3FA0A0
6FEDCAB0
1D96EA10
ENDCHAR
STARTCHAR Ubreve
ENCODING 364
SWIDTH 890 0
DWIDTH 11 0
BBX 13 15 0 0
BITMAP
00001100200000
0000CB27F10000
00005FFF800000
00000142000000
06DE40007D0000
7E7FA000BF0000
D20FB000DD0000
102F9001FB0000
005F6004F90000
008F3008F60000
00BF000DF40000
00EC005DF20000
00FB02D9F20920
00EFAE77FCCD00
005ED701BEB200
ENDCHAR
STARTCHAR ubreve
ENCODING 365
SWIDTH 462 0
DWIDTH 6 0
BBX 7 10 0 0
BITMAP
06400910
0AD38F10
03EFF600
00142000
0B81D300
1F55F100
5F2AD000
6F3FA0A0
6FEDCAB0
1D96EA10
ENDCHAR
STARTCHAR Uring
ENCODING 366
SWIDTH 890 0
DWIDTH 11 0
BBX 13 16 0 0
BITMAP
00000010000000
000007FD100000
00000D9E400000
00000AFD100000
00000031000000
06DE40007D0000
7E7FA000BF0000
D20FB000DD0000
102F9001FB0000
005F6004F90000
008F3008F60000
00BF000DF40000
00EC005DF20000
00FB02D9F20920
00EFAE77FCCD00
005ED701BEB200
ENDCHAR
STARTCHAR uring
ENCODING 367
SWIDTH 462 0
DWIDTH 6 0
BBX 7 11 0 0
BITMAP
00010000
006FD100
00C9E500
009FE100
00031000
0B81D300
1F55F100
5F2AD000
6F3FA0A0
6FEDCAB0
1D96EA10
ENDCHAR
STARTCHAR Uhungarumlaut
ENCODING 368
SWIDTH 890 0
DWIDTH 11 0
BBX 13 15 0 0
BITMAP
000007A4D00000
00000C99B00000
00000D1B300000
00000000000000
06DE40007D0000
7E7FA000BF0000
D20FB000DD0000
102F9001FB0000
005F6004F90000
008F3008F60000
00BF000DF40000
00EC005DF20000
00FB02D9F20920
00EFAE77FCCD00
005ED701BEB200
ENDCHAR
STARTCHAR uhungarumlaut
ENCODING 369
SWIDTH 462 0
DWIDTH 6 0
BBX 7 11 0 0
BITMAP
002D3D40
006F5F40
00B88B00
00C1A300
00000000
0B81D300
1F55F100
5F2AD000
6F3FA0A0
6FEDCAB0
1D96EA10
ENDCHAR
STARTCHAR Uogonek
ENCODING 370
SWIDTH 890 0
DWIDTH 11 0
BBX 13 15 0 -4
BITMAP
06DE40007C0000
7E7FA000BF0000
E30FB000DD0000
102F9001FB0000
005F6004F90000
008F3008F60000
00BF000DF40000
00EC004EF30000
00FB01CAF20720
00EE7C78F99E10
005ED702CFC300
000000006D1000
000000009B1000
000000005FF700
00000000012000
ENDCHAR
STARTCHAR uogonek
ENCODING 371
SWIDTH 462 0
DWIDTH 6 0
BBX 7 10 0 -4
BITMAP
0B81D300
1F55F100
5F2AD000
6F3FA0A0
6FEDCAB0
1D97FB10
000C8000
001F4000
000BFE00
00002100
ENDCHAR
STARTCHAR Wcircumflex
ENCODING 372
SWIDTH 1217 0
DWIDTH 15 0
BBX 16 16 1 0
BITMAP
0000000640000000
0000007FE0000000
000002F7F5000000
000007B0A6000000
0000000000000000
1D60006E102CE600
4F7000BF10BBCE00
6F5000EE00E58E00
7F4002FD00D7BB00
8F3006FC007EF920
8F200AFC000AFFF4
8F301EDC000DB340
6F406D8D005F3000
4F81E76F21E90000
0EFDD12FDED10000
05EC2008EB200000
ENDCHAR
STARTCHAR wcircumflex
ENCODING 373
SWIDTH 700 0
DWIDTH 8 0
BBX 10 11 0 0
BITMAP
0000BB0000
0006CF2000
001E5D6000
006B0A7000
0000000000
4E03E06E20
6F1AF1CF43
6F3FF2DFFE
5FACF8E331
3FF5FF8000
0DA0BB1000
ENDCHAR
STARTCHAR Ycircumflex
ENCODING 374
SWIDTH 851 0
DWIDTH 10 0
BBX 12 21 0 -5
BITMAP
000000550000
000005FF2000
00001E8D7000
00005D189000
000000000000
06DE40007D00
7E7FB000BF00
D20FA000ED00
002F9002FB00
005F6006F900
008F300BF700
00AF104EF500
009F54D8F200
003EFE58FCE7
000144AFFA61
00008FEEB000
0007F81E8000
000E903F4000
001F93CC0000
000AFFD20000
000033000000
ENDCHAR
STARTCHAR ycircumflex
ENCODING 375
SWIDTH 479 0
DWIDTH 6 0
BBX 7 17 0 -6
BITMAP
000BB000
007CF200
01E5E600
06B0A600
00000000
0B81D300
1F55F200
5F2AE000
6F3FC2B0
6FEEDE90
1DACE500
009F5000
09DF2000
5C7D0000
D4B90000
F9F30000
AE700000
ENDCHAR
STARTCHAR Ydieresis
ENCODING 376
SWIDTH 851 0
DWIDTH 10 0
BBX 12 19 0 -5
BITMAP
00003F4BB000
00003E3AA000
000000000000
06DE40007D00
7E7FB000BF00
D20FA000ED00
002F9002FB00
005F6006F900
008F300BF700
00AF104EF500
009F54D8F200
003EFE58FCE7
000144AFFA61
00008FEEB000
0007F81E8000
000E903F4000
001F93CC0000
000AFFD20000
000033000000
ENDCHAR
STARTCHAR Zacute
ENCODING 377
SWIDTH 721 0
DWIDTH 9 0
BBX 11 15 0 0
BITMAP
0000002C7000
000003DE4000
00000C810000
000000000000
028DEFEC9100
1DD867AFE300
4F4000AF3000
2F5004FA0000
05100CE10000
00007F700000
0003FD000000
001DF4000000
3BDFB1000B20
BFFFFE96BC00
7EC46BEEA100
ENDCHAR
STARTCHAR zacute
ENCODING 378
SWIDTH 445 0
DWIDTH 5 0
BBX 7 11 0 0
BITMAP
0000B700
0003F600
0009B000
000C2000
00000000
3FFFF900
169FD400
07F70000
2F8002B0
2FC68E80
06DFC600
ENDCHAR
STARTCHAR Zdotaccent
ENCODING 379
SWIDTH 721 0
DWIDTH 9 0
BBX 11 14 0 0
BITMAP
00004F800000
00005E700000
000000000000
028DEFEC9100
1DD867AFE300
4F4000AF3000
2F5004FA0000
05100CE10000
00007F700000
0003FD000000
001DF4000000
3BDFB1000B20
BFFFFE96BC00
7EC46BEEA100
ENDCHAR
STARTCHAR zdotaccent
ENCODING 380
SWIDTH 445 0
DWIDTH 5 0
BBX 7 9 0 0
BITMAP
00010000
006F8000
00131000
3FFFF900
169FD400
07F70000
2F8002B0
2FC68E80
06DFC600
ENDCHAR
STARTCHAR Zcaron
ENCODING 381
SWIDTH 721 0
DWIDTH 9 0
BBX 11 15 0 0
BITMAP
0002E16B0000
0000C8E40000
00004E700000
000000000000
028DEFEC9100
1DD867AFE300
4F4000AF3000
2F5004FA0000
05100CE10000
00007F700000
0003FD000000
001DF4000000
3BDFB1000B20
BFFFFE96BC00
7EC46BEEA100
ENDCHAR
STARTCHAR zcaron
ENCODING 382
SWIDTH 445 0
DWIDTH 5 0
BBX 7 11 0 0
BITMAP
00D34D00
00D6C800
00ACD100
004E4000
00000000
3FFFF900
169FD400
07F70000
2F8002B0
2FC68E80
06DFC600
ENDCHAR
STARTCHAR uni018F
ENCODING 399
SWIDTH 792 0
DWIDTH 10 0
BBX 10 11 0 0
BITMAP
003AEFC500
03EC77DF60
0470001EE0
00000009F3
01222228F4
2EFFFFFFF3
4FA4444DF1
3F90001FC0
0ED0009F50
06FC7AF900
006DEC6000
ENDCHAR
STARTCHAR florin
ENCODING 402
SWIDTH 478 0
DWIDTH 6 0
BBX 8 15 -1 -4
BITMAP
00000010
00008FF5
0003FA40
0007F100
0009E000
06FFFFD0
026ED620
000E9000
001F8000
003F6000
005F4000
007F2000
02CE0000
BFF60000
24100000
ENDCHAR
STARTCHAR Ohorn
ENCODING 416
SWIDTH 816 0
DWIDTH 10 0
BBX 11 13 0 0
BITMAP
000000001D30
000000006F30
0005CEFFFB00
007FB7AFE100
03FA000AF400
0AF10005F700
0EB00003F800
2F900004F700
3F800006F500
2FA0000BE100
0DE1004F8000
06FC79FB1000
005CFD710000
ENDCHAR
STARTCHAR ohorn
ENCODING 417
SWIDTH 451 0
DWIDTH 5 0
BBX 7 8 0 0
BITMAP
00000600
00006E00
05DFF700
3FAEE330
8F0AFFE0
9E05F410
5F8CA000
09EB1000
ENDCHAR
STARTCHAR Uhorn
ENCODING 431
SWIDTH 890 0
DWIDTH 11 0
BBX 13 13 0 0
BITMAP
00000000005B00
0000000001CC00
06DE40007FF500
7E7FA000BF3000
D20FB000DD0000
102F9001FB0000
005F6004F80000
008F3008F60000
00BF000DF40000
00EC005DF20000
00FB02D9F20920
00EFAE77FCCD00
005ED701BEB200
ENDCHAR
STARTCHAR uhorn
ENCODING 432
SWIDTH 512 0
DWIDTH 6 0
BBX 8 8 0 0
BITMAP
00000240
000009B0
0B81DF50
1F55F200
5F2AD000
6F3FB038
6FEDD7E5
1D95ED50
ENDCHAR
STARTCHAR uni01C4
ENCODING 452
SWIDTH 1531 0
DWIDTH 18 0
BBX 19 15 1 0
BITMAP
0000000000005B0A7000
0000000000002F8D1000
00000000000008E30000
00000000000000000000
07CEEB50003ADFEDB700
1D978EF703FC767CFC00
023001DF18E0001DD100
0DC0007F57F1008F5000
2F80005F715002FC0000
5F50005F60000BF30000
8F20007F40007F900000
BF0000DE0003FD100000
DD0009F605BEF80001B0
ED78DF800FFFFFD87D80
BEFDA4000BEA37CEE800
ENDCHAR
STARTCHAR uni01C5
ENCODING 453
SWIDTH 1191 0
DWIDTH 14 0
BBX 15 11 1 0
BITMAP
07CEEB5000C52E10
1D978EF700B8AA00
023001DF107CE200
0DC0007F502E6000
2F80005F70000000
5F50005F6EFFF700
8F20007F458FD300
BF0000DE03EB1000
DD0009F61DB00000
ED78DF807F766200
BEFDA4007FFFF700
ENDCHAR
STARTCHAR uni01C6
ENCODING 454
SWIDTH 895 0
DWIDTH 11 0
BBX 13 11 0 0
BITMAP
00004E2880C400
00008F17C6D100
0000AD04ED6000
0000CA00EB0000
0000E700100000
01AEF4CFFFE000
0CEAF258EF8000
5F57E02DB10000
8F0BC0CD000930
7F9FEBFF99DD10
2DD4DB4CFE9100
ENDCHAR
STARTCHAR uni01C7
ENCODING 455
SWIDTH 1276 0
DWIDTH 15 0
BBX 17 13 -1 -2
BITMAP
00003BEE6007DFEC40
0002ED7BF29E86DF50
000AF304F5F700CD00
000ED005F3F800EB00
001FA000207501F900
002F9000000018F700
003F70000005ECF400
003F5000007D39F100
19DF920004F30DB000
6FFFFFB78EC03F5000
3ED549DFDED3CC0000
0000000006FFD20000
000000000023000000
ENDCHAR
STARTCHAR uni01C8
ENCODING 456
SWIDTH 927 0
DWIDTH 11 0
BBX 14 17 -1 -6
BITMAP
00002AEEA10000
0002EE78F80000
0009F300CC0000
000ED000DBEE00
001FA000523200
002F900000B800
003F700000F700
003F500002F600
19DF920004F4A6
6FFFFFB78EFBB1
3ED549DFDCF700
000000003EB000
00000003DE8000
0000001D4F4000
0000006A5E0000
0000009BD80000
0000004EB10000
ENDCHAR
STARTCHAR uni01C9
ENCODING 457
SWIDTH 610 0
DWIDTH 7 0
BBX 9 18 0 -6
BITMAP
003DA00000
00DAF10000
04E1F10000
09B2F01000
0D86BBF200
1F5B623000
3F6E19B000
4FC70CA000
5FD00E8000
4F506F6670
1EB8FFCE40
06ED8FC200
0002DE0000
002DDB0000
00C7C80000
04D2F30000
06DBB00000
02DD200000
ENDCHAR
STARTCHAR uni01CA
ENCODING 458
SWIDTH 1497 0
DWIDTH 18 0
BBX 19 13 0 -2
BITMAP
07DE308ED4018CEFEB10
8D8F79B7FC0CE867FB00
C12FAB00CE3F4003F700
003FE300EC3F5005F500
005FC002F9083006F300
007F7005F600005DF100
009F3008F4002BEED000
00BF000AF102DB2E9000
00ED000BF00BD03F5000
00FA0009F8AF708E0000
00D70002BECF95F70000
00000000000BFF900000
00000000000032000000
ENDCHAR
STARTCHAR uni01CB
ENCODING 459
SWIDTH 1138 0
DWIDTH 14 0
BBX 15 17 0 -6
BITMAP
05DD208ED4000000
4E9F67B7FC000000
D42F8B00CE001000
703FC300EC06F800
005FC002F9013100
007F7005F604E100
009F3008F407F000
00BF000AF109D000
00ED000BF00BB290
00FA0009F8AFCE90
00D70002BEBFE600
00000000009F5000
0000000009DF2000
000000006B7D0000
00000000D3C80000
00000001F9F20000
00000000AE600000
ENDCHAR
STARTCHAR uni01CC
ENCODING 460
SWIDTH 750 0
DWIDTH 9 0
BBX 11 14 0 -6
BITMAP
0000001ED000
000000032000
0B76E60D6000
2F8FF72F5000
5FD6F44F3000
6FC4F27F2930
6F66F8FFDC10
3E22EDCF8000
000005FA0000
00005DF70000
0002E4F30000
000887D00000
000BBE700000
0006EA000000
ENDCHAR
STARTCHAR Gcaron
ENCODING 486
SWIDTH 811 0
DWIDTH 10 0
BBX 11 21 0 -6
BITMAP
0000881C4000
00004E9B0000
00000AD20000
000000000000
0004BEE91000
007FC78F8000
03FA000DB000
0AF1000E8000
1FB000010000
2F9000121000
3F9005FFE000
2FB0014AE000
0CF30009C2C0
03EF968EDE70
003AEFCFE400
0000009F5000
000009DF2000
00005C7D0000
0000D4B90000
0000F9F30000
00009E700000
ENDCHAR
STARTCHAR gcaron
ENCODING 487
SWIDTH 479 0
DWIDTH 6 0
BBX 7 17 0 -6
BITMAP
00A61D20
009A8C00
006DE300
001D8000
00000000
01AE7100
0CEAF200
5F57F000
8F0AC2B0
7F8FDE90
2DDEE600
009F6000
09DF2000
5C6E0000
C5B90000
F9F30000
9E700000
ENDCHAR
STARTCHAR uni01EA
ENCODING 490
SWIDTH 816 0
DWIDTH 10 0
BBX 10 15 0 -4
BITMAP
0005CEE800
007FB7AFA0
03F9000AF3
0AF10005F7
0EB00003F8
2F900004F7
3F800007F5
2FA0000CE1
0DF2006F80
06FE9BFC00
005DFE7000
0001E40000
0003F30000
0001CFD000
0000031000
ENDCHAR
STARTCHAR uni01EB
ENCODING 491
SWIDTH 451 0
DWIDTH 5 0
BBX 7 10 0 -4
BITMAP
06DE6000
3FAEF330
8E0AFFE0
9E05E410
5FBE9000
07FB0000
04E10000
07D00000
03EF8000
00120000
ENDCHAR
STARTCHAR Aringacute
ENCODING 506
SWIDTH 786 0
DWIDTH 9 0
BBX 12 17 0 0
BITMAP
000000000033
0000000103E9
000000BF9A70
000002F8F000
000001EFA000
000000130000
00006BEFEA00
001BFC98AA00
00BF60097000
06F7001FA000
0CE0004F7000
2FA0007F4000
4F7000BF1000
5F7002FF0000
3FA009FF01A0
0CF9ADBF9CA0
02BEC32CE910
ENDCHAR
STARTCHAR aringacute
ENCODING 507
SWIDTH 470 0
DWIDTH 6 0
BBX 8 12 0 0
BITMAP
00000025
002EE4C6
009AC700
00A8B600
005FE200
00032000
01AE7100
0CEAF200
5F57F000
8F0AD081
7F8FE9D0
2DD5DC20
ENDCHAR
STARTCHAR AEacute
ENCODING 508
SWIDTH 1015 0
DWIDTH 12 0
BBX 14 15 0 0
BITMAP
0000000002C700
000000002DE400
00000000B81000
00000000000000
00007CE2CFFFC0
001CFC87F86630
00CF600AE00000
06F7000EC00000
0DE1003F900000
2FA0007FFFFE10
4F8000BF866400
5F7001FF200000
3FA008FF500013
0CF88F5EE879E8
02BED503BEEC70
ENDCHAR
STARTCHAR aeacute
ENCODING 509
SWIDTH 653 0
DWIDTH 8 0
BBX 10 11 0 0
BITMAP
000001D400
000006F300
00000C8000
00001B0000
0000000000
01AEACE500
0CE8FACB00
5F35F2C800
8F0AFE8184
7F8EFA7CE2
1CE57EEA20
ENDCHAR
STARTCHAR Oslashacute
ENCODING 510
SWIDTH 816 0
DWIDTH 10 0
BBX 10 17 0 -2
BITMAP
000000AB00
00001BF700
00008A2000
000000D400
0005CEF910
007FBCFFB0
03F90B8AF3
0AF10F55F7
0EB03F13F8
2F907C04F7
3F80B906F5
2FA0E50BF1
0DE4F24F80
06FEE8EB10
006EFD7100
000E500000
0006100000
ENDCHAR
STARTCHAR oslashacute
ENCODING 511
SWIDTH 459 0
DWIDTH 6 0
BBX 8 13 0 -2
BITMAP
002D2000
008E1000
00E60000
03A50000
000D0000
06EF6000
3FCEF200
8E78FCD1
9D96FA60
6FEBD000
0AFC3000
02B00000
01400000
ENDCHAR
STARTCHAR uni0200
ENCODING 512
SWIDTH 786 0
DWIDTH 9 0
BBX 11 15 0 0
BITMAP
00002D2D3000
00001E5D8000
00000684A000
000000000000
00006BEFEA00
001BFC98AA00
00BF60097000
06F7001FA000
0CE0004F7000
2FA0007F4000
4F7000BF1000
5F7002FF0000
3FA009FF01A0
0CF9ADBF9CA0
02BEC32CE910
ENDCHAR
STARTCHAR uni0201
ENCODING 513
SWIDTH 470 0
DWIDTH 6 0
BBX 8 11 0 0
BITMAP
1D3C5000
0E8CB000
06C4E000
00C0A300
00000000
01AE7100
0CEAF200
5F57F000
8F0AD081
7F8FE9D0
2DD5DC20
ENDCHAR
STARTCHAR uni0202
ENCODING 514
SWIDTH 786 0
DWIDTH 9 0
BBX 11 15 0 0
BITMAP
000000010000
000005EFE400
00000F95CC00
000003001200
00006BEFEA00
001BFC98AA00
00BF60097000
06F7001FA000
0CE0004F7000
2FA0007F4000
4F7000BF1000
5F7002FF0000
3FA009FF01A0
0CF9ADBF9CA0
02BEC32CE910
ENDCHAR
STARTCHAR uni0203
ENCODING 515
SWIDTH 470 0
DWIDTH 6 0
BBX 8 11 0 0
BITMAP
00011000
00AFF800
06F69F30
06600A20
00000000
01AE7100
0CEAF200
5F57F000
8F0AD081
7F8FE9D0
2DD5DC20
ENDCHAR
STARTCHAR uni0204
ENCODING 516
SWIDTH 686 0
DWIDTH 8 0
BBX 10 15 0 0
BITMAP
000987A000
0008D5F100
0001D1B300
0000000000
0018DFD600
00CF96AF40
05F8001F80
06F5002F70
02FC310610
008FFA0000
1CE8520000
7F50000000
9F40000012
3FE9678BEA
03ADFEDB71
ENDCHAR
STARTCHAR uni0205
ENCODING 517
SWIDTH 393 0
DWIDTH 5 0
BBX 7 11 0 0
BITMAP
7A5C0000
7F5F3000
1D5B7000
0673A000
00000000
05DE4000
3F9D9000
8E2D6000
9FD71930
5F97DD10
08EE9100
ENDCHAR
STARTCHAR uni0206
ENCODING 518
SWIDTH 686 0
DWIDTH 8 0
BBX 10 15 0 0
BITMAP
0000011000
0001BFFA00
0008D67F40
0002100300
0018DFD600
00CF96AF40
05F8001F80
06F5002F70
02FC310610
008FFA0000
1CE8520000
7F50000000
9F40000012
3FE9678BEA
03ADFEDB71
ENDCHAR
STARTCHAR uni0207
ENCODING 519
SWIDTH 393 0
DWIDTH 5 0
BBX 7 11 0 0
BITMAP
00010000
04EFD300
0EB5DB00
0A104800
00000000
05DE4000
3F9D9000
8E2D6000
9FD71930
5F97DD10
08EE9100
ENDCHAR
STARTCHAR uni0208
ENCODING 520
SWIDTH 495 0
DWIDTH 6 0
BBX 8 15 -1 0
BITMAP
003D2D30
001E5D70
000775A0
00000000
009FFFF8
0037FC62
0003F800
0005F600
0007F300
0009F100
000BE000
000DC000
001FA000
047FB500
2FFFFE20
ENDCHAR
STARTCHAR uni0209
ENCODING 521
SWIDTH 246 0
DWIDTH 3 0
BBX 6 11 -1 0
BITMAP
A78A00
AD7F10
2F3E50
085670
000000
00C700
02F600
05F300
06F156
05F8E3
01DD40
ENDCHAR
STARTCHAR uni020A
ENCODING 522
SWIDTH 495 0
DWIDTH 6 0
BBX 8 15 -1 0
BITMAP
00000100
0006EFD4
001F95CB
00030012
009FFFF8
0037FC62
0003F800
0005F600
0007F300
0009F100
000BE000
000DC000
001FA000
047FB500
2FFFFE20
ENDCHAR
STARTCHAR uni020B
ENCODING 523
SWIDTH 246 0
DWIDTH 3 0
BBX 6 11 -1 0
BITMAP
000100
06EFC1
2F96F8
290075
000000
00C700
02F600
05F300
06F156
05F8E3
01DD40
ENDCHAR
STARTCHAR uni020C
ENCODING 524
SWIDTH 816 0
DWIDTH 10 0
BBX 10 15 0 0
BITMAP
0007A4D000
0005F3F300
0000B39600
0000000000
0005CEE800
007FB7AFA0
03FA000AF3
0AF10005F7
0EB00003F8
2F900004F7
3F800006F5
2FA0000BF1
0DE1004F80
06FC79FB10
005CFD7100
ENDCHAR
STARTCHAR uni020D
ENCODING 525
SWIDTH 451 0
DWIDTH 5 0
BBX 7 11 0 0
BITMAP
8A6C0000
7E5F2000
1E4C7000
06749000
00000000
05DE6000
3FAEF330
8F0AFFE0
9E05F410
5F8CA000
09EB1000
ENDCHAR
STARTCHAR uni020E
ENCODING 526
SWIDTH 816 0
DWIDTH 10 0
BBX 10 15 0 0
BITMAP
0000011000
00009FFC10
0005E76E70
0001200210
0005CEE800
007FB7AFA0
03FA000AF3
0AF10005F7
0EB00003F8
2F900004F7
3F800006F5
2FA0000BF1
0DE1004F80
06FC79FB10
005CFD7100
ENDCHAR
STARTCHAR uni020F
ENCODING 527
SWIDTH 451 0
DWIDTH 5 0
BBX 7 11 0 0
BITMAP
00010000
04EFD200
1EA5EA00
1A105700
00000000
05DE6000
3FAEF330
8F0AFFE0
9E05F410
5F8CA000
09EB1000
ENDCHAR
STARTCHAR uni0210
ENCODING 528
SWIDTH 880 0
DWIDTH 11 0
BBX 13 15 0 0
BITMAP
0002D2D4000000
0001E6C8000000
0000684B000000
00000000000000
0003ADFC600000
006FB77EF40000
03F62404FA0000
0BA0BD02FA0000
1F40EC06F60000
3F11FA5EB00000
5F0EFFF8000000
5F07F9ED100000
2F38F26F800710
0CBDE00DF8AD00
02CE7003CFB200
ENDCHAR
STARTCHAR uni0211
ENCODING 529
SWIDTH 455 0
DWIDTH 5 0
BBX 8 11 0 0
BITMAP
3D2D3000
2F6E8000
0997C000
02B0C000
00000000
0B75E600
2F7FF700
5FC7F7A1
6FC1EFB0
6F702400
3E200000
ENDCHAR
STARTCHAR uni0212
ENCODING 530
SWIDTH 880 0
DWIDTH 11 0
BBX 13 15 0 0
BITMAP
00000010000000
00005EFE500000
0000EA5BD00000
00003001200000
0003ADFC600000
006FB77EF40000
03F62404FA0000
0BA0BD02FA0000
1F40EC06F60000
3F11FA5EB00000
5F0EFFF8000000
5F07F9ED100000
2F38F26F800710
0CBDE00DF8AD00
02CE7003CFB200
ENDCHAR
STARTCHAR uni0213
ENCODING 531
SWIDTH 455 0
DWIDTH 5 0
BBX 8 11 0 0
BITMAP
00010000
01BFE600
09D5BF10
08401A10
00000000
0B75E600
2F7FF700
5FC7F7A1
6FC1EFB0
6F702400
3E200000
ENDCHAR
STARTCHAR uni0214
ENCODING 532
SWIDTH 890 0
DWIDTH 11 0
BBX 13 15 0 0
BITMAP
0000C5A7000000
0000BA8C000000
00003C1D000000
00000000000000
06DE40007D0000
7E7FA000BF0000
D20FB000DD0000
102F9001FB0000
005F6004F90000
008F3008F60000
00BF000DF40000
00EC005DF20000
00FB02D9F20920
00EFAE77FCCD00
005ED701BEB200
ENDCHAR
STARTCHAR uni0215
ENCODING 533
SWIDTH 462 0
DWIDTH 6 0
BBX 7 11 0 0
BITMAP
3D2D3000
2F6E8000
09A6C000
01B0C000
00000000
0B81D300
1F55F100
5F2AD000
6F3FA0A0
6FEDCAB0
1D96EA10
ENDCHAR
STARTCHAR uni0216
ENCODING 534
SWIDTH 890 0
DWIDTH 11 0
BBX 13 15 0 0
BITMAP
00000010000000
00003CFF700000
0000BC59F10000
00002100300000
06DE40007D0000
7E7FA000BF0000
D20FB000DD0000
102F9001FB0000
005F6004F90000
008F3008F60000
00BF000DF40000
00EC005DF20000
00FB02D9F20920
00EFAE77FCCD00
005ED701BEB200
ENDCHAR
STARTCHAR uni0217
ENCODING 535
SWIDTH 462 0
DWIDTH 6 0
BBX 7 11 0 0
BITMAP
00010000
01BFE600
09E5AF10
07401A10
00000000
0B81D300
1F55F100
5F2AD000
6F3FA0A0
6FEDCAB0
1D96EA10
ENDCHAR
STARTCHAR uni0218
ENCODING 536
SWIDTH 693 0
DWIDTH 8 0
BBX 9 15 0 -4
BITMAP
004BEEB400
03FC77DE10
0AF1004F40
0AF2004F20
05FD500100
006EFD5000
00017EF600
6E0002EC00
8F0000DC00
4FB77BF600
06CEEB5000
0000000000
0009400000
000E600000
000D200000
ENDCHAR
STARTCHAR uni0219
ENCODING 537
SWIDTH 427 0
DWIDTH 5 0
BBX 8 10 -1 -4
BITMAP
000A9000
003F7000
00AED100
05D3F859
1E7BFEF5
024EFE70
00000000
000D4000
001F3000
001D0000
ENDCHAR
STARTCHAR uni021A
ENCODING 538
SWIDTH 697 0
DWIDTH 8 0
BBX 11 15 0 -4
BITMAP
017BDEFFFE90
2EC77FB66740
7E004F700000
7F107F400000
18009F200000
0000CE000000
0000EC000000
0001FA000000
0003F8000000
0005F6000000
0004E3000000
000000000000
0003A0000000
0007D0000000
000680000000
ENDCHAR
STARTCHAR uni021B
ENCODING 539
SWIDTH 393 0
DWIDTH 5 0
BBX 7 16 0 -4
BITMAP
00001000
002DE100
00BAF300
02F3F200
06E5B000
0ADD3000
DFFFF400
5EB65000
0E800000
0DA00720
09E7AD10
01BEB200
00000000
00B60000
00F50000
00D10000
ENDCHAR
STARTCHAR uni022A
ENCODING 554
SWIDTH 816 0
DWIDTH 10 0
BBX 10 16 0 0
BITMAP
0000022100
00009FFF10
0001FCBF10
0001D77D10
0000000000
0005CEE800
007FB7AFA0
03FA000AF3
0AF10005F7
0EB00003F8
2F900004F7
3F800006F5
2FA0000BF1
0DE1004F80
06FC79FB10
005CFD7100
ENDCHAR
STARTCHAR uni022B
ENCODING 555
SWIDTH 451 0
DWIDTH 5 0
BBX 7 12 0 0
BITMAP
00122000
05FFF500
01444100
09B2E400
0AB3E400
00000000
05DE6000
3FAEF330
8F0AFFE0
9E05F410
5F8CA000
09EB1000
ENDCHAR
STARTCHAR uni022C
ENCODING 556
SWIDTH 816 0
DWIDTH 10 0
BBX 10 17 0 0
BITMAP
0000022100
00008FFF20
0000694640
0003FF9B80
000893CC10
0000000000
0005CEE800
007FB7AFA0
03FA000AF3
0AF10005F7
0EB00003F8
2F900004F7
3F800006F5
2FA0000BF1
0DE1004F80
06FC79FB10
005CFD7100
ENDCHAR
STARTCHAR uni022D
ENCODING 557
SWIDTH 451 0
DWIDTH 5 0
BBX 7 12 0 0
BITMAP
00122000
04FFF600
03A55600
0DFC8C00
3C19E300
00000000
05DE6000
3FAEF330
8F0AFFE0
9E05F410
5F8CA000
09EB1000
ENDCHAR
STARTCHAR uni0230
ENCODING 560
SWIDTH 816 0
DWIDTH 10 0
BBX 10 16 0 0
BITMAP
0000022100
00009FFF10
00002FF400
00001DC000
0000000000
0005CEE800
007FB7AFA0
03FA000AF3
0AF10005F7
0EB00003F8
2F900004F7
3F800006F5
2FA0000BF1
0DE1004F80
06FC79FB10
005CFD7100
ENDCHAR
STARTCHAR uni0231
ENCODING 561
SWIDTH 451 0
DWIDTH 5 0
BBX 7 12 0 0
BITMAP
00122000
05FFF500
01444100
00010000
00AF3000
00130000
05DE6000
3FAEF330
8F0AFFE0
9E05F410
5F8CA000
09EB1000
ENDCHAR
STARTCHAR uni0232
ENCODING 562
SWIDTH 851 0
DWIDTH 10 0
BBX 12 19 0 -5
BITMAP
000001220000
00003FFF8000
000004441000
06DE40007D00
7E7FB000BF00
D20FA000ED00
002F9002FB00
005F6006F900
008F300BF700
00AF104EF500
009F54D8F200
003EFE58FCE7
000144AFFA61
00008FEEB000
0007F81E8000
000E903F4000
001F93CC0000
000AFFD20000
000033000000
ENDCHAR
STARTCHAR uni0233
ENCODING 563
SWIDTH 479 0
DWIDTH 6 0
BBX 7 15 0 -6
BITMAP
00122000
04FFF600
01444100
0B81D300
1F55F200
5F2AE000
6F3FC2B0
6FEEDE90
1DACE500
009F5000
09DF2000
5C7D0000
D4B90000
F9F30000
AE700000
ENDCHAR
STARTCHAR uni0237
ENCODING 567
SWIDTH 254 0
DWIDTH 3 0
BBX 8 12 -3 -6
BITMAP
0000C700
0001F600
0003F400
0005F284
0006FCD1
0008F910
004EB000
04DE7000
1D4F4000
796E0000
ABD80000
5EB10000
ENDCHAR
STARTCHAR uni0259
ENCODING 601
SWIDTH 458 0
DWIDTH 6 0
BBX 6 6 0 0
BITMAP
1CED40
297CE1
0126F3
6FFFF3
6FBDD0
1AED30
ENDCHAR
STARTCHAR uni02BC
ENCODING 700
SWIDTH 600 0
DWIDTH 7 0
BBX 2 3 3 7
BITMAP
89
C8
B3
ENDCHAR
STARTCHAR circumflex
ENCODING 710
SWIDTH 600 0
DWIDTH 7 0
BBX 5 4 1 7
BITMAP
00AC00
05DE30
1D6C70
4C0980
ENDCHAR
STARTCHAR caron
ENCODING 711
SWIDTH 600 0
DWIDTH 7 0
BBX 5 4 2 7
BITMAP
B52E10
B8AA00
7CE200
2E7000
ENDCHAR
STARTCHAR uni02C9
ENCODING 713
SWIDTH 600 0
DWIDTH 7 0
BBX 5 3 1 6
BITMAP
012200
3FFF70
044410
ENDCHAR
STARTCHAR breve
ENCODING 728
SWIDTH 600 0
DWIDTH 7 0
BBX 6 4 1 6
BITMAP
550082
9E37F2
2DFF70
014200
ENDCHAR
STARTCHAR dotaccent
ENCODING 729
SWIDTH 600 0
DWIDTH 7 0
BBX 3 3 2 6
BITMAP
0100
3FA0
0310
ENDCHAR
STARTCHAR ring
ENCODING 730
SWIDTH 600 0
DWIDTH 7 0
BBX 4 4 2 6
BITMAP
5FE2
BAD6
8FE2
0310
ENDCHAR
STARTCHAR ogonek
ENCODING 731
SWIDTH 600 0
DWIDTH 7 0
BBX 4 5 1 -4
BITMAP
0760
2F10
5E31
2EFB
0141
ENDCHAR
STARTCHAR tilde
ENCODING 732
SWIDTH 600 0
DWIDTH 7 0
BBX 6 3 1 7
BITMAP
063042
6FF6E4
B55D90
ENDCHAR
STARTCHAR hungarumlaut
ENCODING 733
SWIDTH 600 0
DWIDTH 7 0
BBX 5 4 2 7
BITMAP
1D3C60
5F5F50
9A7C00
B29400
ENDCHAR
STARTCHAR gravecomb
ENCODING 768
SWIDTH 0 0
DWIDTH 0 0
BBX 3 4 -6 7
BITMAP
8900
8F10
0C70
03B0
ENDCHAR
STARTCHAR acutecomb
ENCODING 769
SWIDTH 0 0
DWIDTH 0 0
BBX 3 4 -4 7
BITMAP
0B60
3F50
9B00
C100
ENDCHAR
STARTCHAR uni0302
ENCODING 770
SWIDTH 0 0
DWIDTH 0 0
BBX 5 4 -6 7
BITMAP
01CA00
08CF10
2F3F40
7A0C50
ENDCHAR
STARTCHAR tildecomb
ENCODING 771
SWIDTH 0 0
DWIDTH 0 0
BBX 6 3 -6 7
BITMAP
161051
9FE6E1
D37E60
ENDCHAR
STARTCHAR uni0304
ENCODING 772
SWIDTH 0 0
DWIDTH 0 0
BBX 5 3 -6 6
BITMAP
022200
6FFF40
144400
ENDCHAR
STARTCHAR uni0306
ENCODING 774
SWIDTH 0 0
DWIDTH 0 0
BBX 5 4 -6 6
BITMAP
730190
CC2AE0
4FFF50
014100
ENDCHAR
STARTCHAR uni0307
ENCODING 775
SWIDTH 0 0
DWIDTH 0 0
BBX 3 3 -5 6
BITMAP
0100
6F70
1300
ENDCHAR
STARTCHAR uni0308
ENCODING 776
SWIDTH 0 0
DWIDTH 0 0
BBX 5 2 -6 7
BITMAP
5E1D80
6D1D70
ENDCHAR
STARTCHAR hookabovecomb
ENCODING 777
SWIDTH 0 0
DWIDTH 0 0
BBX 4 5 -5 6
BITMAP
0100
8FC1
26F2
2FC0
0300
ENDCHAR
STARTCHAR uni030A
ENCODING 778
SWIDTH 0 0
DWIDTH 0 0
BBX 4 5 -5 6
BITMAP
0100
7FC1
E8E3
BFD0
0310
ENDCHAR
STARTCHAR uni030B
ENCODING 779
SWIDTH 0 0
DWIDTH 0 0
BBX 5 4 -5 7
BITMAP
3D2D30
8E6F20
C7A900
C0B200
ENDCHAR
STARTCHAR uni030C
ENCODING 780
SWIDTH 0 0
DWIDTH 0 0
BBX 4 4 -5 7
BITMAP
D24C
E5C7
ACD1
5E40
ENDCHAR
STARTCHAR uni030F
ENCODING 783
SWIDTH 0 0
DWIDTH 0 0
BBX 5 4 -7 7
BITMAP
4D3D20
3F5F60
0B88B0
03A1C0
ENDCHAR
STARTCHAR uni0311
ENCODING 785
SWIDTH 0 0
DWIDTH 0 0
BBX 5 4 -6 7
BITMAP
001000
2CFE50
BD5CE0
9302A0
ENDCHAR
STARTCHAR uni0312
ENCODING 786
SWIDTH 0 0
DWIDTH 0 0
BBX 2 3 -4 7
BITMAP
B6
F5
D1
ENDCHAR
STARTCHAR uni031B
ENCODING 795
SWIDTH 0 0
DWIDTH 0 0
BBX 3 4 -4 4
BITMAP
0720
2E40
BB00
3000
ENDCHAR
STARTCHAR dotbelowcomb
ENCODING 803
SWIDTH 0 0
DWIDTH 0 0
BBX 3 2 -6 -3
BITMAP
6E50
7E40
ENDCHAR
STARTCHAR uni0324
ENCODING 804
SWIDTH 0 0
DWIDTH 0 0
BBX 5 2 -7 -3
BITMAP
7D1E60
8D1E50
ENDCHAR
STARTCHAR uni0326
ENCODING 806
SWIDTH 0 0
DWIDTH 0 0
BBX 3 3 -6 -4
BITMAP
2E20
4F10
4A00
ENDCHAR
STARTCHAR uni0327
ENCODING 807
SWIDTH 0 0
DWIDTH 0 0
BBX 4 6 -7 -4
BITMAP
0010
0BF7
029E
027D
7FF5
1420
ENDCHAR
STARTCHAR uni0328
ENCODING 808
SWIDTH 0 0
DWIDTH 0 0
BBX 4 5 -6 -4
BITMAP
0A40
5D00
8C21
4FF8
0240
ENDCHAR
STARTCHAR uni032E
ENCODING 814
SWIDTH 0 0
DWIDTH 0 0
BBX 6 4 -8 -5
BITMAP
091037
1F92CA
07FFD2
002410
ENDCHAR
STARTCHAR uni0331
ENCODING 817
SWIDTH 0 0
DWIDTH 0 0
BBX 5 3 -7 -3
BITMAP
012200
5FFF50
144400
ENDCHAR
STARTCHAR uni0394
ENCODING 916
SWIDTH 700 0
DWIDTH 8 0
BBX 8 10 0 0
BITMAP
00009A00
0002FE00
0009DF20
001E6E50
007E1B80
00E809B0
06F106E0
0C9004F2
4F8667F5
7FFFFFF6
ENDCHAR
STARTCHAR uni03A9
ENCODING 937
SWIDTH 816 0
DWIDTH 10 0
BBX 11 10 -1 0
BITMAP
00006CEE9100
0009FC8BFC00
005F9000AF50
00CE10004F80
01FA00003F80
03F800005F60
02F900009F20
00ED0003F900
06BF803DF820
2FFFD09FFF70
ENDCHAR
STARTCHAR uni03BC
ENCODING 956
SWIDTH 462 0
DWIDTH 6 0
BBX 8 9 0 -3
BITMAP
0B81D300
2F55F100
4F2AD000
6F2FB0B1
8FEDCAB0
9FA6EA10
9C000000
AC000000
8A000000
ENDCHAR
STARTCHAR pi
ENCODING 960
SWIDTH 496 0
DWIDTH 6 0
BBX 8 6 0 0
BITMAP
9FFFFF80
3F95F800
3F54F300
6F26F145
8F06F7E3
7C01DD50
ENDCHAR
STARTCHAR uni0400
ENCODING 1024
SWIDTH 686 0
DWIDTH 8 0
BBX 10 15 0 0
BITMAP
006C200000
003EE30000
00018C0000
0000000000
0018DFD600
00CF96AF40
05F8001F80
06F5002F70
02FC310610
008FFA0000
1CE8520000
7F50000000
9F40000012
3FE9678BEA
03ADFEDB71
ENDCHAR
STARTCHAR uni0401
ENCODING 1025
SWIDTH 686 0
DWIDTH 8 0
BBX 10 14 0 0
BITMAP
0003F5AC00
0003E4AB00
0000000000
0018DFD600
00CF96AF40
05F8001F80
06F5002F70
02FC310610
008FFA0000
1CE8520000
7F50000000
9F40000012
3FE9678BEA
03ADFEDB71
ENDCHAR
STARTCHAR uni0402
ENCODING 1026
SWIDTH 974 0
DWIDTH 12 0
BBX 13 17 0 -6
BITMAP
017BDEFFFE9000
1DC77FB5564000
7E004F70000000
8E007F40000000
3C109F20000000
0000CE3BED4000
0000EED87EC000
0001FE300CE010
0003F9000DD7E0
0005F6000FFF70
0004E3003FE400
00000003EF5000
0000003EEF2000
000000DABD0000
000004F2E70000
000006FAE10000
000002DD400000
ENDCHAR
STARTCHAR uni0403
ENCODING 1027
SWIDTH 635 0
DWIDTH 8 0
BBX 11 15 0 0
BITMAP
0000006D1000
000008FA0000
00004C400000
000000000100
029CEFFFFF30
2EDAFA555300
8E15F5000000
8F18F3000000
270AF0000000
000DD0000000
000FB0000000
002F90000000
005F70000000
006F50000000
005E20000000
ENDCHAR
STARTCHAR uni0404
ENCODING 1028
SWIDTH 687 0
DWIDTH 8 0
BBX 10 11 0 0
BITMAP
0005CED700
007FB6AF30
03FB003F60
0AF2003F30
0EC0000100
2FFFFF6000
3FB5552000
1FB0000000
0CF3000012
03EE8679EA
002AEFEB71
ENDCHAR
STARTCHAR uni0405
ENCODING 1029
SWIDTH 693 0
DWIDTH 8 0
BBX 9 11 0 0
BITMAP
004BEEB400
03FC77DE10
0AF1004F40
0AF2004F20
05FD500100
006EFD5000
00017EF600
6E0002EC00
8F0000DC00
4FB77BF600
06CEEB5000
ENDCHAR
STARTCHAR uni0406
ENCODING 1030
SWIDTH 495 0
DWIDTH 6 0
BBX 8 11 -1 0
BITMAP
009FFFF8
0037FC62
0003F800
0005F600
0007F300
0009F100
000BE000
000DC000
001FA000
047FB500
2FFFFE20
ENDCHAR
STARTCHAR uni0407
ENCODING 1031
SWIDTH 495 0
DWIDTH 6 0
BBX 8 14 -1 0
BITMAP
000BC3F4
000AB3E4
00000000
009FFFF8
0037FC62
0003F800
0005F600
0007F300
0009F100
000BE000
000DC000
001FA000
047FB500
2FFFFE20
ENDCHAR
STARTCHAR uni0408
ENCODING 1032
SWIDTH 743 0
DWIDTH 9 0
BBX 10 13 0 -2
BITMAP
006BEFFDA1
0AFA768FC1
1F60004F70
1F70005F50
0840007F30
000017EF10
0003DEEC00
004EB1E900
00DC03F500
03F609E000
03F86F6000
00BFF90000
0003200000
ENDCHAR
STARTCHAR uni0409
ENCODING 1033
SWIDTH 1158 0
DWIDTH 14 0
BBX 14 11 0 0
BITMAP
0000004E600000
000000AF800000
000000EF700000
000004FF700000
000009DFBCFFA1
00000E9FD75BF7
00005F4F6002FA
0000CB2F7001FA
C605F50FB005F6
BD7EB009F87ED1
2CEA1001AEEA10
ENDCHAR
STARTCHAR uni040A
ENCODING 1034
SWIDTH 1182 0
DWIDTH 14 0
BBX 15 11 -1 0
BITMAP
007EE3001D500000
0AC7F9005F600000
2D10EA008F200000
0100F900BD010000
0004F823EEEEFB20
00BFFFFFFA202EC0
002BF533F7000BF0
000BE002F7000CE0
000EB001F9003FA0
002F8000BE77EE20
002E30001AEEA200
ENDCHAR
STARTCHAR uni040B
ENCODING 1035
SWIDTH 979 0
DWIDTH 12 0
BBX 14 11 0 0
BITMAP
017BDEFFFE9000
1DC77FB5564000
7E004F70000000
8E007F40000000
3C109F20000000
0000CE3BED4000
0000EED87ED000
0001FF300CE000
0003F9000DC073
0005F6000FD8D1
0004E3000BFB20
ENDCHAR
STARTCHAR uni040C
ENCODING 1036
SWIDTH 937 0
DWIDTH 11 0
BBX 13 15 0 0
BITMAP
0000000009C000
00000001BF8000
00000007B30000
00000000000000
019DFEA001D600
0CD77FC007F400
2F404F601DD000
1F606F409F4000
05209F6AF50000
0007FFFC200000
0001DDAF600000
0000EA0EE10000
9703F708F603A0
8F7CF201EE9E60
1AED50005DE700
ENDCHAR
STARTCHAR uni040D
ENCODING 1037
SWIDTH 890 0
DWIDTH 11 0
BBX 13 15 0 0
BITMAP
000AA100000000
0006FC10000000
00002A90000000
00000000000000
06DE40007D0000
7E7FA000BF0000
D20FB000DD0000
102F9001FB0000
005F6004F90000
008F3008F60000
00BF000DF40000
00EC005DF20000
00FB02D9F20920
00EFAE77FCCD00
005ED701BEB200
ENDCHAR
STARTCHAR uni040E
ENCODING 1038
SWIDTH 824 0
DWIDTH 10 0
BBX 12 18 0 -4
BITMAP
000000006000
00008B18B000
00003DFB2000
07EE40008C00
7D7FA000DE00
211F9001FB00
005F6007F900
008F302EF700
008F53DBF400
002EFF86F231
00013108FFF6
000004BFE950
0001AFFFA000
000AF82E7000
001F804F3000
002F83CB0000
000BFFC10000
000033000000
ENDCHAR
STARTCHAR uni040F
ENCODING 1039
SWIDTH 890 0
DWIDTH 11 0
BBX 13 14 0 -3
BITMAP
06DE40007D0000
7D7FA000BF0000
D20FB000DD0000
002F9001FB0000
005F6004F90000
008F3008F60000
00BF000DF40000
00EC005EF20000
01FB02DAF20A20
00EFAE77FCCD00
006EF701BEB200
000CC000000000
000E9000000000
00062000000000
ENDCHAR
STARTCHAR uni0410
ENCODING 1040
SWIDTH 786 0
DWIDTH 9 0
BBX 11 11 0 0
BITMAP
00006BEFEA00
001BFC98AA00
00BF60097000
06F7001FA000
0CE0004F7000
2FA0007F4000
4F7000BF1000
5F7002FF0000
3FA009FF01A0
0CF9ADBF9CA0
02BEC32CE910
ENDCHAR
STARTCHAR uni0411
ENCODING 1041
SWIDTH 917 0
DWIDTH 11 0
BBX 11 13 0 -1
BITMAP
000000000100
028CEFFFFF30
2EB6DE555300
7E00EC000000
8E01FA000000
4D14F7000000
0019FEEFD700
007FF966CF60
001CF1001FB0
000CE0001FB0
000EC0009F60
000FB17CFA00
000A63C94000
ENDCHAR
STARTCHAR uni0412
ENCODING 1042
SWIDTH 827 0
DWIDTH 10 0
BBX 11 12 0 -1
BITMAP
016ADEFD9200
5EFB867AFE10
982410008F60
007F30007F40
00BE0026EC00
00EB0EFE7100
02F806AF9000
04F6000BF100
06F4001DE000
08F878DF6000
09FFFDA40000
036000000000
ENDCHAR
STARTCHAR uni0413
ENCODING 1043
SWIDTH 635 0
DWIDTH 8 0
BBX 11 12 0 0
BITMAP
000000000100
029CEFFFFF30
2EDAFA555300
8E15F5000000
8F18F3000000
270AF0000000
000DD0000000
000FB0000000
002F90000000
005F70000000
006F50000000
005E20000000
ENDCHAR
STARTCHAR uni0414
ENCODING 1044
SWIDTH 964 0
DWIDTH 12 0
BBX 12 11 0 0
BITMAP
0006BEFEA300
00CFB768EE30
008323002FC0
0000CB000AF2
0003F60008F4
0008F20007F4
000BE00009F2
000DB0000CE0
5EFF90004F80
CDCFDA67ED10
6EE619EEA200
ENDCHAR
STARTCHAR uni0415
ENCODING 1045
SWIDTH 686 0
DWIDTH 8 0
BBX 10 11 0 0
BITMAP
0018DFD600
00CF96AF40
05F8001F80
06F5002F70
02FC310610
008FFA0000
1CE8520000
7F50000000
9F40000012
3FE9678BEA
03ADFEDB71
ENDCHAR
STARTCHAR uni0416
ENCODING 1046
SWIDTH 1234 0
DWIDTH 15 0
BBX 16 11 0 0
BITMAP
008ED300B8006EE4
02C6EC00FA02F8C9
00006F22F809E000
00002F63F62F8000
00000CC6F8DD1000
000003FFFFB10000
00005EBCE9F40000
0001EC0DC0DC0000
3308F30FA08F4018
9E7F902F801ED6B9
2DF9002E5004DE90
ENDCHAR
STARTCHAR uni0417
ENCODING 1047
SWIDTH 725 0
DWIDTH 9 0
BBX 9 11 0 0
BITMAP
002AEEB200
01ED77FA00
05F300CC00
03F100E900
000008E200
000AFEE600
000440AF20
2D30008F40
4F6001DF10
1ED66CF700
03BEEB5000
ENDCHAR
STARTCHAR uni0418
ENCODING 1048
SWIDTH 890 0
DWIDTH 11 0
BBX 13 11 0 0
BITMAP
06DE40007D0000
7E7FA000BF0000
D20FB000DD0000
102F9001FB0000
005F6004F90000
008F3008F60000
00BF000DF40000
00EC005DF20000
00FB02D9F20920
00EFAE77FCCD00
005ED701BEB200
ENDCHAR
STARTCHAR uni0419
ENCODING 1049
SWIDTH 890 0
DWIDTH 11 0
BBX 13 14 0 0
BITMAP
00000000600000
00006C16D00000
00002CFC300000
06DE40007D0000
7E7FA000BF0000
D20FB000DD0000
102F9001FB0000
005F6004F90000
008F3008F60000
00BF000DF40000
00EC005DF20000
00FB02D9F20920
00EFAE77FCCD00
005ED701BEB200
ENDCHAR
STARTCHAR uni041A
ENCODING 1050
SWIDTH 937 0
DWIDTH 11 0
BBX 13 11 0 0
BITMAP
019DFEA001D600
0CD77FC007F400
2F404F601DD000
1F606F409F4000
05209F6AF50000
0007FFFC200000
0001DDAF600000
0000EA0EE10000
9703F708F603A0
8F7CF201EE9E60
1AED50005DE700
ENDCHAR
STARTCHAR uni041B
ENCODING 1051
SWIDTH 861 0
DWIDTH 10 0
BBX 12 11 0 0
BITMAP
0000004E7000
000000AF8000
000000EF7000
000004FF7000
000009EF6000
00000EAF6000
00005F6F7000
0000CC2F8000
A505F60EA01A
BD7EB00AF6C8
2CEA1002CE90
ENDCHAR
STARTCHAR uni041C
ENCODING 1052
SWIDTH 1133 0
DWIDTH 14 0
BBX 16 11 0 0
BITMAP
000009E300AD1000
00000EF503FF1000
00002FF509FF0000
00005FF41EDE0000
00008DF55FBD0000
0000BAF5ABBD0000
0000F7E7F6BD0000
0004F3DCF2AD0000
A50AD0BFC09F10A1
CE9F609F705FABC0
3DE8004E200AFB10
ENDCHAR
STARTCHAR uni041D
ENCODING 1053
SWIDTH 873 0
DWIDTH 10 0
BBX 13 12 -1 0
BITMAP
00000000000100
008EE30004EE20
0BC7F9001EAB60
2B00EA007F1B50
0000F900BB5F10
0004F823FEF800
00BFFFFFFE7000
002BF524F60000
000BE004F60000
000EB002F801C0
002F8000CE7CA0
002E30003DE900
ENDCHAR
STARTCHAR uni041E
ENCODING 1054
SWIDTH 816 0
DWIDTH 10 0
BBX 10 11 0 0
BITMAP
0005CEE800
007FB7AFA0
03FA000AF3
0AF10005F7
0EB00003F8
2F900004F7
3F800006F5
2FA0000BF1
0DE1004F80
06FC79FB10
005CFD7100
ENDCHAR
STARTCHAR uni041F
ENCODING 1055
SWIDTH 892 0
DWIDTH 11 0
BBX 13 11 0 0
BITMAP
017BDEFFEDCA10
1DD9FB55BF9A10
7E13F700AF0000
7F06F500DD0000
2809F201FA0000
000BF003F80000
000EC006F50000
001FA008F20000
003F9009F10720
005F7007F88D10
003E4001BEB200
ENDCHAR
STARTCHAR uni0420
ENCODING 1056
SWIDTH 805 0
DWIDTH 10 0
BBX 10 12 0 -1
BITMAP
00029DFD60
004EC77DF6
01E87D01FC
09C0BE00EC
0E60DC04F8
3F36FC8ED1
5F2FFFD810
6E05F50000
6E08F20000
4F3AF00000
0DCEC00000
03CE500000
ENDCHAR
STARTCHAR uni0421
ENCODING 1057
SWIDTH 686 0
DWIDTH 8 0
BBX 10 11 0 0
BITMAP
0005CED600
007FB7BF20
03FA003F60
0BF1004F40
1FB0000400
2F90000000
3F90000000
2FB0000000
0CF3000013
03EF977AF9
002AEFDB61
ENDCHAR
STARTCHAR uni0422
ENCODING 1058
SWIDTH 697 0
DWIDTH 8 0
BBX 11 11 0 0
BITMAP
017BDEFFFE90
2EC77FB66740
7E004F700000
7F107F400000
18009F200000
0000CE000000
0000EC000000
0001FA000000
0003F8000000
0005F6000000
0004E3000000
ENDCHAR
STARTCHAR uni0423
ENCODING 1059
SWIDTH 824 0
DWIDTH 10 0
BBX 12 15 0 -4
BITMAP
07EE40008C00
7D7FA000DE00
211F9001FB00
005F6007F900
008F302EF700
008F53DBF400
002EFF86F231
00013108FFF6
000004BFE950
0001AFFFA000
000AF82E7000
001F804F3000
002F83CB0000
000BFFC10000
000033000000
ENDCHAR
STARTCHAR uni0424
ENCODING 1060
SWIDTH 977 0
DWIDTH 12 0
BBX 12 17 0 -4
BITMAP
001000000000
00E931100000
00AFFFFF4000
000144EA0100
006EFBF6BFC1
05FA6DFDA8F5
0CE007FB03F7
1F9009E204F7
4F700CC006F5
4F606FA00AF1
3F85EFD45F90
0CFE6FDFFB10
00315F333000
04508E000000
09E3E8000000
02EFD1000000
001300000000
ENDCHAR
STARTCHAR uni0425
ENCODING 1061
SWIDTH 712 0
DWIDTH 9 0
BBX 11 11 -1 0
BITMAP
009ED3007E20
0AB8FC04FA00
0700AF4ED100
00005FEE2000
00001FF40000
00005FE00000
0003EFF20000
001DD6F60000
00CF31FA0090
09F700AF7BC0
1E90002CEA10
ENDCHAR
STARTCHAR uni0426
ENCODING 1062
SWIDTH 890 0
DWIDTH 11 0
BBX 13 16 0 -5
BITMAP
06DE40007C0000
7D7FA000BF0000
D20FB000DD0000
102F9001FB0000
005F6004F90000
008F3008F70000
00BF100CF50000
00EC004EF30000
00FB00CAF20000
00EE6C75ED8D20
005ED7018FE600
0000002DFF3000
000000DD8E0000
000002F7CA0000
000001EFD20000
00000013100000
ENDCHAR
STARTCHAR uni0427
ENCODING 1063
SWIDTH 773 0
DWIDTH 9 0
BBX 8 11 1 0
BITMAP
1D60009B
2F9000CC
3F8000EB
6F5003F9
8F3008F7
9F203EF5
7FDAFAF3
1AEE76F2
000009F0
00000BE0
000009A0
ENDCHAR
STARTCHAR uni0428
ENCODING 1064
SWIDTH 1272 0
DWIDTH 15 0
BBX 17 11 0 0
BITMAP
06DE4000B9000D6000
7D7FA000FB002F8000
D20FB002F9005F7000
002F9005F6007F5000
005F6008F200BF3000
008F300CE000EF0000
00BF002FB005FD0000
00EC009F900BEB0000
00FB04DC806AEB0290
00EFAE5CEAE2DFAE70
006ED605ED405EE700
ENDCHAR
STARTCHAR uni0429
ENCODING 1065
SWIDTH 1272 0
DWIDTH 15 0
BBX 17 16 0 -5
BITMAP
06DE4000B9000D6000
7D7FA000FB002F8000
D20FB002F9005F7000
002F9005F6007F4000
005F6008F200BF2000
008F300CE000EF0000
00BF002FB005FD0000
00EC009F900BEB0000
00FB04DD806AEB0020
00EFAE4CEAE2AFECA0
006ED606ED403CF910
000000000006FFB000
00000000004F8D8000
00000000009E5F3000
00000000006FF90000
000000000002300000
ENDCHAR
STARTCHAR uni042A
ENCODING 1066
SWIDTH 863 0
DWIDTH 10 0
BBX 10 11 1 0
BITMAP
0123630000
9FFFF60000
134EB00000
004F500000
009FDFFD40
0BFD646EE1
06FA0009F3
00F90009F2
00EB001EC0
009F76DF40
0019EEB300
ENDCHAR
STARTCHAR uni042B
ENCODING 1067
SWIDTH 1078 0
DWIDTH 13 0
BBX 13 11 0 0
BITMAP
007C0000001D60
00DD0000003F70
01F90000005F50
03F60100007F30
06FDFFE7009F10
7FF855CF40BE00
4DE0004F70EB00
0AE0005F61F900
09F100AF23F700
04FA6AF805F600
006DEC6004E300
ENDCHAR
STARTCHAR uni042C
ENCODING 1068
SWIDTH 721 0
DWIDTH 9 0
BBX 9 11 0 0
BITMAP
007C000000
00DD000000
01F9000000
03F6010000
06FDFFE700
7FF855CF40
4DE0004F70
0AE0005F60
09F100AF20
04FA6AF800
006DEC6000
ENDCHAR
STARTCHAR uni042D
ENCODING 1069
SWIDTH 755 0
DWIDTH 9 0
BBX 9 11 0 0
BITMAP
005CEEA200
07FA69FD10
0A40008F70
0000002FB0
0000000FC0
006FFFFFB0
0025557F90
2900006F50
6F2001DD00
4FA67DE300
06DFDA2000
ENDCHAR
STARTCHAR uni042E
ENCODING 1070
SWIDTH 1246 0
DWIDTH 15 0
BBX 16 11 -1 0
BITMAP
007ED3000003EB20
07E9F9003DD18FD0
1E30EA01DBE007F5
1500FA06FCA002F9
0002F80BFE2001FA
0049FCDFD20002FA
00BFFB8FA00004F7
000AF00EC00009F3
000DC00BF3004FA0
001F9004FE9AFD20
002E40005CFD8100
ENDCHAR
STARTCHAR uni042F
ENCODING 1071
SWIDTH 850 0
DWIDTH 10 0
BBX 12 11 0 0
BITMAP
0004CFEBD500
002FC66AF700
009F2005F500
00BE0009F300
00BE000DF100
007F825FE000
000BFFFFC000
000029EDA000
72006F5D9016
DC6AF60CD6C7
3CEB4005EE80
ENDCHAR
STARTCHAR uni0430
ENCODING 1072
SWIDTH 470 0
DWIDTH 6 0
BBX 8 6 0 0
BITMAP
01AE7100
0CEAF200
5F57F000
8F0AD081
7F8FE9D0
2DD5DC20
ENDCHAR
STARTCHAR uni0431
ENCODING 1073
SWIDTH 473 0
DWIDTH 6 0
BBX 8 12 0 0
BITMAP
00003400
019EF800
08E52000
06F30000
00BE2000
001DB000
05EEF300
2FBCF631
6F26FFF3
8F08F410
5F7E9000
0AEB1000
ENDCHAR
STARTCHAR uni0432
ENCODING 1074
SWIDTH 473 0
DWIDTH 6 0
BBX 8 12 0 0
BITMAP
003DB000
00DAF200
05E2F100
0AB4C000
0E8B6000
2F9C0000
4FEFC000
5F8AF741
5F35FFF3
3F31F720
0EBAD000
05DD3000
ENDCHAR
STARTCHAR uni0433
ENCODING 1075
SWIDTH 380 0
DWIDTH 5 0
BBX 7 6 0 0
BITMAP
2BED2000
297F6000
02BC1000
3E700910
8F67DC00
3CFD8100
ENDCHAR
STARTCHAR uni0434
ENCODING 1076
SWIDTH 479 0
DWIDTH 6 0
BBX 7 12 0 -6
BITMAP
01AE7100
0CEAF200
5F57F000
8F0AC2B0
7F8FDE90
2DDEE600
009F6000
09DF2000
5C6E0000
C5B90000
F9F30000
9E700000
ENDCHAR
STARTCHAR uni0435
ENCODING 1077
SWIDTH 393 0
DWIDTH 5 0
BBX 7 6 0 0
BITMAP
05DE4000
3F9D9000
8E2D6000
9FD71930
5F97DD10
08EE9100
ENDCHAR
STARTCHAR uni0436
ENCODING 1078
SWIDTH 717 0
DWIDTH 9 0
BBX 11 6 0 0
BITMAP
09E5A77EA000
0EADE9F8F000
002FFCA28000
794EEF900A10
BCC8FBE6AC00
6EB0D29EB100
ENDCHAR
STARTCHAR uni0437
ENCODING 1079
SWIDTH 435 0
DWIDTH 5 0
BBX 8 12 -1 -6
BITMAP
008EE500
01C7BB00
0000A900
005CC134
04F918F5
008FDC20
004ED000
03ECC000
0D5BA000
5C2F6000
7CBD0000
3EC30000
ENDCHAR
STARTCHAR uni0438
ENCODING 1080
SWIDTH 462 0
DWIDTH 6 0
BBX 7 6 0 0
BITMAP
0B81D300
1F55F100
5F2AD000
6F3FA0A0
6FEDCAB0
1D96EA10
ENDCHAR
STARTCHAR uni0439
ENCODING 1081
SWIDTH 462 0
DWIDTH 6 0
BBX 7 10 0 0
BITMAP
01101700
0AA2B800
05FFC100
00230000
0B81D300
1F55F100
5F2AD000
6F3FA0A0
6FEDCAB0
1D96EA10
ENDCHAR
STARTCHAR uni043A
ENCODING 1082
SWIDTH 465 0
DWIDTH 6 0
BBX 8 6 0 0
BITMAP
0B78E900
2F9F9F00
5FDA3900
6FF90091
6FDE7BC0
3E2AFB10
ENDCHAR
STARTCHAR uni043B
ENCODING 1083
SWIDTH 549 0
DWIDTH 7 0
BBX 8 6 0 0
BITMAP
0005E500
000CF700
002FE700
C79BE71C
EBF4DCB9
9E707E90
ENDCHAR
STARTCHAR uni043C
ENCODING 1084
SWIDTH 734 0
DWIDTH 9 0
BBX 11 6 0 0
BITMAP
0009C08E1000
001FF3FF1000
115EF9CF1000
C7A9FE7F1640
EBF3FD4F8D10
8E70B61DD300
ENDCHAR
STARTCHAR uni043D
ENCODING 1085
SWIDTH 475 0
DWIDTH 6 0
BBX 8 6 0 0
BITMAP
0B70C500
2F53F400
5FFFF110
6F4AD0B3
6F08E9C0
3D04EB10
ENDCHAR
STARTCHAR uni043E
ENCODING 1086
SWIDTH 451 0
DWIDTH 5 0
BBX 7 6 0 0
BITMAP
05DE6000
3FAEF330
8F0AFFE0
9E05F410
5F8CA000
09EB1000
ENDCHAR
STARTCHAR uni043F
ENCODING 1087
SWIDTH 496 0
DWIDTH 6 0
BBX 8 6 0 0
BITMAP
0B76E600
2F8FF700
5FD6F400
6FC4F256
6F66F8E3
3E22ED40
ENDCHAR
STARTCHAR uni0440
ENCODING 1088
SWIDTH 481 0
DWIDTH 6 0
BBX 10 12 -2 -6
BITMAP
002E7DB000
003FD9F400
003F44F400
005F48F173
00CF8FC9E1
04EFEAEC20
0AAF200000
0E6F000000
3C7D000000
6A9A000000
6DD5000000
2DB0000000
ENDCHAR
STARTCHAR uni0441
ENCODING 1089
SWIDTH 368 0
DWIDTH 4 0
BBX 6 6 0 0
BITMAP
05DD20
2FAD60
7F1920
9E001A
6F97D9
09ED80
ENDCHAR
STARTCHAR uni0442
ENCODING 1090
SWIDTH 744 0
DWIDTH 9 0
BBX 11 6 0 0
BITMAP
0B77E45E5000
2F8FF8FF7000
5FD6FD6F4000
6FB5FB5F1550
6F66F66F8E30
3E23E13ED400
ENDCHAR
STARTCHAR uni0443
ENCODING 1091
SWIDTH 479 0
DWIDTH 6 0
BBX 7 12 0 -6
BITMAP
0B81D300
1F55F200
5F2AE000
6F3FC2B0
6FEEDE90
1DACE500
009F5000
09DF2000
5C7D0000
D4B90000
F9F30000
AE700000
ENDCHAR
STARTCHAR uni0444
ENCODING 1092
SWIDTH 721 0
DWIDTH 9 0
BBX 11 14 0 -4
BITMAP
00005E000000
00009C000000
0000C9000000
0000F6000000
01AEF9E90000
0CE9FBAF2000
5F57F46F2000
8F0AF1BD0820
7F8FE9FBAD00
2DDAFEBEB100
000AA0000000
000AA0000000
000BA0000000
000980000000
ENDCHAR
STARTCHAR uni0445
ENCODING 1093
SWIDTH 529 0
DWIDTH 6 0
BBX 8 6 0 0
BITMAP
0AE79E50
0EAFDC60
022F8100
684F6019
BCCFC6D8
6EA6DE80
ENDCHAR
STARTCHAR uni0446
ENCODING 1094
SWIDTH 501 0
DWIDTH 6 0
BBX 8 11 0 -5
BITMAP
0B81D300
1F55F100
5F2AD000
6F3FA020
6FEDE8E3
1D95FE50
003DF300
02E8E000
07BA9000
06FD2000
00310000
ENDCHAR
STARTCHAR uni0447
ENCODING 1095
SWIDTH 555 0
DWIDTH 7 0
BBX 10 7 -1 0
BITMAP
0008D31000
000ECFFB00
005D1BF500
00C79E3000
06D2F701B2
1E32FA7DC0
01009EE810
ENDCHAR
STARTCHAR uni0448
ENCODING 1096
SWIDTH 693 0
DWIDTH 8 0
BBX 10 6 0 0
BITMAP
0B81E23E00
1F56F18D00
5F2BE0DA00
6F3FC5F719
6FEDFEEAC8
1DA4E69E80
ENDCHAR
STARTCHAR uni0449
ENCODING 1097
SWIDTH 732 0
DWIDTH 9 0
BBX 10 11 0 -5
BITMAP
0B81E23E00
1F56F18C00
5F2BE0D900
6F3FC5F602
6FEDFEDE8E
1DA4E68FD3
000005FE10
00004D9A00
0000A8D600
00009FB000
0000030000
ENDCHAR
STARTCHAR uni044A
ENCODING 1098
SWIDTH 542 0
DWIDTH 7 0
BBX 8 6 0 0
BITMAP
6FFD0000
19F31000
0DEEF600
1FB3CC08
0EC7ECBC
05DECEA1
ENDCHAR
STARTCHAR uni044B
ENCODING 1099
SWIDTH 702 0
DWIDTH 8 0
BBX 10 6 0 0
BITMAP
0B90005D00
2F7000CD00
4FBFE6FA00
5F84FFF808
3FA9F7EBBB
07ED607EA1
ENDCHAR
STARTCHAR uni044C
ENCODING 1100
SWIDTH 517 0
DWIDTH 6 0
BBX 8 6 0 0
BITMAP
0B900000
2F700000
4FBFE300
5F84F716
3FA9FAD7
07EEDE70
ENDCHAR
STARTCHAR uni044D
ENCODING 1101
SWIDTH 466 0
DWIDTH 6 0
BBX 8 6 0 0
BITMAP
0AEE8000
076AF640
12BFFFF2
7A26F720
7E6BE100
1BEC4000
ENDCHAR
STARTCHAR uni044E
ENCODING 1102
SWIDTH 676 0
DWIDTH 8 0
BBX 10 6 0 0
BITMAP
0B71AED300
2F59F9FC21
5FFFA1DFFA
6F5D909C31
6F09E6E500
3D01BE8000
ENDCHAR
STARTCHAR uni044F
ENCODING 1103
SWIDTH 543 0
DWIDTH 7 0
BBX 8 6 0 0
BITMAP
007EDE20
01F98F00
02F59C00
B7CFFA0C
EB6ECCAA
7ED55EA1
ENDCHAR
STARTCHAR uni0450
ENCODING 1104
SWIDTH 393 0
DWIDTH 5 0
BBX 7 11 0 0
BITMAP
0C600000
0BD00000
02E40000
00580000
00000000
05DE4000
3F9D9000
8E2D6000
9FD71930
5F97DD10
08EE9100
ENDCHAR
STARTCHAR uni0451
ENCODING 1105
SWIDTH 393 0
DWIDTH 5 0
BBX 7 9 0 0
BITMAP
09C2E500
09B2E400
00000000
05DE4000
3F9D9000
8E2D6000
9FD71930
5F97DD10
08EE9100
ENDCHAR
STARTCHAR uni0452
ENCODING 1106
SWIDTH 514 0
DWIDTH 6 0
BBX 8 17 0 -6
BITMAP
00C70000
04F50000
4FFFF300
0BE54000
0DA00000
0F85E700
2F8FF800
3FD6F600
4FC3F485
4F84FDD2
2E36FA10
003EC000
03EE9000
1D5E5000
6B4F1000
9CC90000
4EC10000
ENDCHAR
STARTCHAR uni0453
ENCODING 1107
SWIDTH 380 0
DWIDTH 5 0
BBX 7 11 0 0
BITMAP
00099000
001F8000
007D1000
00A30000
00000000
2BED2000
297F6000
02BC1000
3E700910
8F67DC00
3CFD8100
ENDCHAR
STARTCHAR uni0454
ENCODING 1108
SWIDTH 379 0
DWIDTH 5 0
BBX 7 6 0 0
BITMAP
06EE6000
3F99A000
8FF90100
9F421D10
5FA6DA00
08EE8000
ENDCHAR
STARTCHAR uni0455
ENCODING 1109
SWIDTH 427 0
DWIDTH 5 0
BBX 8 6 -1 0
BITMAP
000A9000
003F7000
00AED100
05D3F859
1E7BFEF5
024EFE70
ENDCHAR
STARTCHAR uni0456
ENCODING 1110
SWIDTH 246 0
DWIDTH 3 0
BBX 5 9 0 0
BITMAP
001000
0BF300
023000
0C7000
2F6000
5F3000
6F1560
5F8E30
1DD400
ENDCHAR
STARTCHAR uni0457
ENCODING 1111
SWIDTH 246 0
DWIDTH 3 0
BBX 5 9 0 0
BITMAP
B94E20
C95E20
000000
0C7000
2F6000
5F3000
6F1560
5F8E30
1DD400
ENDCHAR
STARTCHAR uni0458
ENCODING 1112
SWIDTH 254 0
DWIDTH 3 0
BBX 8 14 -3 -6
BITMAP
0001ED00
00003200
0000C700
0001F600
0003F400
0005F284
0006FCD1
0008F910
004EB000
04DE7000
1D4F4000
796E0000
ABD80000
5EB10000
ENDCHAR
STARTCHAR uni0459
ENCODING 1113
SWIDTH 794 0
DWIDTH 10 0
BBX 11 6 0 0
BITMAP
0005E6000000
000CF8010000
002FFADF7000
759DDC5CC080
EBF5CC7ECBC0
9E804DECEA10
ENDCHAR
STARTCHAR uni045A
ENCODING 1114
SWIDTH 751 0
DWIDTH 9 0
BBX 11 6 0 0
BITMAP
0B70D6000000
2F54F3100000
5FFFFEFD1000
6F48F46F4460
6F04F8AF8E40
3D008EDED400
ENDCHAR
STARTCHAR uni045B
ENCODING 1115
SWIDTH 502 0
DWIDTH 6 0
BBX 8 11 0 0
BITMAP
00D70000
04F61000
4FFFF400
0BD43000
0DA00000
0F75E700
2F7FF800
3FD6F500
4FC3F347
4F85F8E4
2E32ED50
ENDCHAR
STARTCHAR uni045C
ENCODING 1116
SWIDTH 465 0
DWIDTH 6 0
BBX 8 11 0 0
BITMAP
0000A700
0002F600
0008C000
000B2000
00000000
0B78E900
2F9F9F00
5FDA3900
6FF90091
6FDE7BC0
3E2AFB10
ENDCHAR
STARTCHAR uni045D
ENCODING 1117
SWIDTH 462 0
DWIDTH 6 0
BBX 7 11 0 0
BITMAP
07B00000
06F30000
00B90000
002C0000
00000000
0B81D300
1F55F100
5F2AD000
6F3FA0A0
6FEDCAB0
1D96EA10
ENDCHAR
STARTCHAR uni045E
ENCODING 1118
SWIDTH 479 0
DWIDTH 6 0
BBX 7 16 0 -6
BITMAP
01101700
0AA2B800
05FFC100
00230000
0B81D300
1F55F200
5F2AE000
6F3FC2B0
6FEEDE90
1DACE500
009F5000
09DF2000
5C7D0000
D4B90000
F9F30000
AE700000
ENDCHAR
STARTCHAR uni045F
ENCODING 1119
SWIDTH 600 0
DWIDTH 7 0
BBX 7 8 0 -2
BITMAP
0B81D300
1F55F100
5F2AD000
6F3FA0A0
5FEDCAB0
1EC6EA10
0C600000
0A300000
ENDCHAR
STARTCHAR uni0462
ENCODING 1122
SWIDTH 721 0
DWIDTH 9 0
BBX 9 11 0 0
BITMAP
019D100000
3FFFF40000
05FA400000
04F6010000
07FDFFE700
8FF855CF40
4DE0004F70
0AE0005F60
09F100AF20
04FA6AF800
006DEC6000
ENDCHAR
STARTCHAR uni0463
ENCODING 1123
SWIDTH 517 0
DWIDTH 6 0
BBX 8 9 0 0
BITMAP
01600000
08F10000
0BD10000
BFFF3000
3F830000
5FBEE300
6F84F716
3F98F9D7
08EEDE70
ENDCHAR
STARTCHAR uni046A
ENCODING 1130
SWIDTH 1234 0
DWIDTH 15 0
BBX 16 11 0 0
BITMAP
008FFFFFFFFFFFE0
0035CF555559F830
00005F40000BE000
00001F70004F8000
00000BC105DD1000
000003FFFFA10000
00005EBCE9F40000
0001EC0DC0DC0000
3308F30FA08F4018
9E7F902F801ED6B9
2DF9002E5004DE90
ENDCHAR
STARTCHAR uni046B
ENCODING 1131
SWIDTH 788 0
DWIDTH 9 0
BBX 11 11 0 0
BITMAP
000001D90000
000005FB0000
00000AD90000
00000EC80000
00003FB80000
003EDBBCE600
0018F7BE7100
0005F4D80000
680CF8FA00A0
BCAECEBF7BB0
6EC28D19EB10
ENDCHAR
STARTCHAR uni0472
ENCODING 1138
SWIDTH 816 0
DWIDTH 10 0
BBX 10 11 0 0
BITMAP
0005CEE800
007FB6AFA0
03FB000BF3
0AF20005F7
0ED11004F8
2FFFFFFFF7
3FA4455AF5
2FA0000BF1
0DE1004F80
06FC68FB10
005CFD7100
ENDCHAR
STARTCHAR uni0473
ENCODING 1139
SWIDTH 451 0
DWIDTH 5 0
BBX 7 6 0 0
BITMAP
05DE6000
3F9AF440
8FB6FFE0
9F9FF410
5F9DA000
09EB1000
ENDCHAR
STARTCHAR uni0474
ENCODING 1140
SWIDTH 797 0
DWIDTH 10 0
BBX 11 11 1 0
BITMAP
1E60000CFE80
4F70003FC980
6F60006F6000
7F40009F2000
8F3000DD0000
8F3002F80000
7F4008F30000
5F601EB00000
2FA09F300000
0CFDF8000000
03DE70000000
ENDCHAR
STARTCHAR uni0475
ENCODING 1141
SWIDTH 420 0
DWIDTH 5 0
BBX 7 6 0 0
BITMAP
4E01DE60
6F16F420
6F1CA000
5F7F3000
3FEA0000
0DC10000
ENDCHAR
STARTCHAR uni048A
ENCODING 1162
SWIDTH 890 0
DWIDTH 11 0
BBX 13 18 0 -3
BITMAP
00000000600000
00006C27E00000
00003EFF500000
00000131000000
06DE40007D0000
7D7FA000BF0000
D20FB000DD0000
002F9001FB0000
005F6004F90000
008F3008F60000
00BF000DF40000
00EC005DF20000
00FB02D9F20A20
00EFAE77FCCD10
005ED701CFE300
000000005F6000
00000000DC0000
00000001E30000
ENDCHAR
STARTCHAR uni048B
ENCODING 1163
SWIDTH 462 0
DWIDTH 6 0
BBX 8 13 0 -3
BITMAP
03302A00
0AB2B700
05FFB100
00230000
0B81D300
1F55F100
5F2AD000
6F3FA0A1
6FEDCAC0
1D96FE20
0005F400
000C9000
00051000
ENDCHAR
STARTCHAR uni048C
ENCODING 1164
SWIDTH 721 0
DWIDTH 9 0
BBX 9 11 0 0
BITMAP
019D100000
3FFFF40000
05FA400000
04F6010000
07FDFFE700
8FF855CF40
4DE0004F70
0AE0005F60
09F100AF20
04FA6AF800
006DEC6000
ENDCHAR
STARTCHAR uni048D
ENCODING 1165
SWIDTH 517 0
DWIDTH 6 0
BBX 8 9 0 0
BITMAP
01600000
08F10000
0BD10000
BFFF3000
3F830000
5FBEE300
6F84F716
3F98F9D7
08EEDE70
ENDCHAR
STARTCHAR uni048E
ENCODING 1166
SWIDTH 805 0
DWIDTH 10 0
BBX 11 12 0 -1
BITMAP
00029DFD7000
004EB66CF700
01E87D01FC00
09C0BE3BFB00
0E60DC0AFE40
3F26FC9FC650
5F2EFFD81000
6E05F5000000
6E08F2000000
4F3AF0000000
0DCEC0000000
03CE50000000
ENDCHAR
STARTCHAR uni048F
ENCODING 1167
SWIDTH 481 0
DWIDTH 6 0
BBX 10 12 -2 -6
BITMAP
002E7EB000
003FD9F400
003F43F400
005F9CF173
00CFAFC8D1
04EFEBEC20
0AAF200000
0E6F000000
4C7D000000
6A9A000000
6CD5000000
2DB0000000
ENDCHAR
STARTCHAR uni0490
ENCODING 1168
SWIDTH 645 0
DWIDTH 8 0
BBX 11 14 0 0
BITMAP
000000000980
000000000CA0
000000000E70
029CEFFFFF40
2EDAFA554200
8E15F5000000
8F18F3000000
270AF0000000
000DD0000000
000FB0000000
002F90000000
005F70000000
006F50000000
005E20000000
ENDCHAR
STARTCHAR uni0491
ENCODING 1169
SWIDTH 394 0
DWIDTH 5 0
BBX 6 8 0 0
BITMAP
0000D0
0004F1
0CFFC0
2F8410
5F2000
6F1000
6F0000
3D0000
ENDCHAR
STARTCHAR uni0492
ENCODING 1170
SWIDTH 635 0
DWIDTH 8 0
BBX 11 12 0 0
BITMAP
000000000100
029CEFFFFF30
2EDAFA555300
8E15F5000000
8F18F3000000
290AF1000000
01EFFF600000
005FC5100000
002F90000000
004F70000000
006F50000000
005E20000000
ENDCHAR
STARTCHAR uni0493
ENCODING 1171
SWIDTH 380 0
DWIDTH 5 0
BBX 7 6 0 0
BITMAP
2BED2000
297F6000
65BD1000
6FE80910
8F67DC00
3CFD8100
ENDCHAR
STARTCHAR uni0494
ENCODING 1172
SWIDTH 884 0
DWIDTH 11 0
BBX 12 18 0 -6
BITMAP
000000000100
028CEFFFFF30
2EDAFA555300
7E15F6000000
8E08F3000000
4C1AF1000000
000DD3CED300
000FDD77FB00
002FE200DD01
005F8000EB8D
006F5001FFF6
005E2004FD30
0000004EF400
000004FEF100
00001E9CC000
00006E2F6000
00008EAD1000
00003ED30000
ENDCHAR
STARTCHAR uni0495
ENCODING 1173
SWIDTH 441 0
DWIDTH 5 0
BBX 7 11 0 -5
BITMAP
2BED2000
297F6000
02BC1000
3E700110
8F678D70
3DEFF900
01BF7000
0B8E3000
3F6D0000
2FF50000
02200000
ENDCHAR
STARTCHAR uni0496
ENCODING 1174
SWIDTH 1234 0
DWIDTH 15 0
BBX 17 16 0 -5
BITMAP
008ED300B8006EE400
02C6EC00FA02F8C900
00006F22F809E00000
00002F63F62F800000
00000CC6F8DD100000
000003FFFFB1000000
00005EBCE9F5000000
0001EC0DC0DD000000
3408F30FA08F600100
9E7F902F801EFB9E30
2DF9002E5002DFE500
000000000008FF4000
00000000009E7F1000
0000000001F9AC0000
0000000000DFE40000
000000000013100000
ENDCHAR
STARTCHAR uni0497
ENCODING 1175
SWIDTH 803 0
DWIDTH 10 0
BBX 11 11 0 -5
BITMAP
09E5A77EA000
0EADE9F8F000
002FFCA28000
794EEF900020
BCC8FBE689C0
6EB0D2AFFC20
0000006FC000
000006CA8000
00000D7E3000
00000BF90000
000001300000
ENDCHAR
STARTCHAR uni0498
ENCODING 1176
SWIDTH 725 0
DWIDTH 9 0
BBX 9 16 0 -5
BITMAP
002AEEB200
01ED77FA00
05F300CC00
03F100E900
000008E200
000AFEE600
000440AF20
2D30008F40
4F6001DF10
1ED66CF700
03BEFF8000
001AEF3000
00AD6F1000
01F8BB0000
00DFE30000
0013100000
ENDCHAR
STARTCHAR uni0499
ENCODING 1177
SWIDTH 445 0
DWIDTH 5 0
BBX 7 11 0 -5
BITMAP
08EE7000
4E6BD000
025C6000
118D7130
9B6CDE80
3DFFF800
01AF6000
0AAF2000
1F7D0000
1EF50000
02200000
ENDCHAR
STARTCHAR uni049A
ENCODING 1178
SWIDTH 937 0
DWIDTH 11 0
BBX 13 16 0 -5
BITMAP
019DFEA001D600
0CD77FC007F400
2F404F601DD000
1F606F409F4000
05209F5AF50000
0007FFFC200000
0001DDAF700000
1000EA0EE10000
9803F708F60140
8F7BF201EFCD90
1AED50005FF700
00000004DFA000
0000003F8D7000
0000009E5F3000
0000006FF90000
00000003300000
ENDCHAR
STARTCHAR uni049B
ENCODING 1179
SWIDTH 531 0
DWIDTH 6 0
BBX 8 11 0 -5
BITMAP
0B78E900
2F9F8F00
5FDA3900
6FF90001
6FDE57C8
3E3AFFA1
000AF800
00A9D400
01F6E000
01EF6000
00220000
ENDCHAR
STARTCHAR uni049C
ENCODING 1180
SWIDTH 937 0
DWIDTH 11 0
BBX 13 11 0 0
BITMAP
019DFEA001D600
0CD77FC007F400
2F404F610DD000
1F606F9A8F4000
05209FAEF50000
0007FFFC200000
0001DDCF600000
0000EACFE10000
9703F7DCF603B0
8E7BF232FE9E60
1AED50005EE700
ENDCHAR
STARTCHAR uni049D
ENCODING 1181
SWIDTH 485 0
DWIDTH 6 0
BBX 8 6 0 0
BITMAP
0B74EC00
2F4C9F30
5FAE0C10
6FED0063
6FEF88E2
3D78ED40
ENDCHAR
STARTCHAR uni049E
ENCODING 1182
SWIDTH 937 0
DWIDTH 11 0
BBX 13 11 0 0
BITMAP
019DFEA001D600
0CD77FC007F400
2F404F701DD000
2F5BFFF79F4000
0833AF9AF50000
0007FFFC200000
0001DDAF600000
0000EA0EE10000
9703F707F603B0
8E7BF201EE9E60
1AED50005DE700
ENDCHAR
STARTCHAR uni049F
ENCODING 1183
SWIDTH 473 0
DWIDTH 6 0
BBX 8 11 0 0
BITMAP
00D70000
05F61000
4FFFF400
0BD44000
0DA00000
1F77EB00
2F8F8F10
4FCB1A00
4FFA0082
4FDE79D0
1E39EC20
ENDCHAR
STARTCHAR uni04A0
ENCODING 1184
SWIDTH 937 0
DWIDTH 11 0
BBX 13 11 0 0
BITMAP
06889A9001D700
0BEFEFC007F400
00004F601DC000
00006F409F3000
00009F5AF50000
0007FFFC200000
0001DDAF600000
0000EA0EE10000
9703F707F603B0
8E7BF201EE9E60
1AED50005DE700
ENDCHAR
STARTCHAR uni04A1
ENCODING 1185
SWIDTH 555 0
DWIDTH 7 0
BBX 9 6 0 0
BITMAP
6FF87EA000
15F9F8F100
03FDB2A000
04FFA00820
04FDE7AD00
02E39EC200
ENDCHAR
STARTCHAR uni04A2
ENCODING 1186
SWIDTH 907 0
DWIDTH 11 0
BBX 14 16 -1 -5
BITMAP
008EE30004EE20
0BB7F9001EAB60
2A00EA007F1B50
0000F900BB5E10
0003F812FEF600
00BFFFFFFD4000
002BF524F60000
000BE004F60000
000EB002FA0032
002F8000DFECF3
002E30003CFC30
000000008FF500
00000008E6F200
0000000EA9C000
0000000CFF4000
00000000310000
ENDCHAR
STARTCHAR uni04A3
ENCODING 1187
SWIDTH 515 0
DWIDTH 6 0
BBX 8 11 0 -5
BITMAP
0B70C500
2F54F300
5FFFF100
6F4AD033
6F08F9F4
3D02FE50
002CF400
00D8F100
04D7B000
03FE3000
00210000
ENDCHAR
STARTCHAR uni04A4
ENCODING 1188
SWIDTH 873 0
DWIDTH 10 0
BBX 15 11 -1 0
BITMAP
008EE30003CFEC30
0BC7F9001DD55510
2B00EA006F500000
0000F900BE000000
0003F812FB000000
00BFFFFFF8000000
002BF524F6000000
000BE004F6000000
000EB002F701C000
002F8000CE6BA000
002E30003DE91000
ENDCHAR
STARTCHAR uni04A5
ENCODING 1189
SWIDTH 475 0
DWIDTH 6 0
BBX 8 7 0 0
BITMAP
00000520
0B70CD40
2F53F300
5FFFF110
6F4AD0B3
6F08E9C0
3D04EB10
ENDCHAR
STARTCHAR uni04A8
ENCODING 1192
SWIDTH 997 0
DWIDTH 12 0
BBX 14 11 0 0
BITMAP
0006DD00000000
008FD62AED7000
03FB02EE9CF600
0AF20AF301ED00
0EB00EC000BF00
2F901F9000BF00
3F901FA000DC00
2FB00ED005F600
0CF208F75EB032
04FEA8FFFFACF5
003AEFDBCFEA40
ENDCHAR
STARTCHAR uni04A9
ENCODING 1193
SWIDTH 574 0
DWIDTH 7 0
BBX 9 6 0 0
BITMAP
05D7000000
2F84DE4000
8F0B9B9000
9E0E4B6540
6F6DDEAE30
09EDDEB300
ENDCHAR
STARTCHAR uni04AA
ENCODING 1194
SWIDTH 781 0
DWIDTH 9 0
BBX 11 17 0 -6
BITMAP
0004BED60000
007FB6AF3000
03FA003F6000
0AF1004F4000
0EB000040000
2F9000000000
3F9000000000
2FA000000000
0DE100085580
05FD76CFBE40
005CEECFC200
000001CF1000
00001CDC0000
0000B8B80000
0003E2F30000
0005DAC00000
0002DD300000
ENDCHAR
STARTCHAR uni04AB
ENCODING 1195
SWIDTH 431 0
DWIDTH 5 0
BBX 7 11 0 -5
BITMAP
05DD2000
2FAD6000
7F192000
9E000110
6F877D50
0AFFF700
01CF5000
0C8F1000
4D7B0000
3FE30000
02100000
ENDCHAR
STARTCHAR uni04AC
ENCODING 1196
SWIDTH 697 0
DWIDTH 8 0
BBX 11 16 0 -5
BITMAP
018BDEFFFE90
2EC77FB55640
8E004F700000
7F107F400000
17009F200000
0000CE000000
0000EC000000
0001FA000000
0003F8000000
0005FA200000
0004FF600000
000ADF400000
009D5F100000
00E9AB000000
00CFE3000000
000310000000
ENDCHAR
STARTCHAR uni04AD
ENCODING 1197
SWIDTH 784 0
DWIDTH 9 0
BBX 11 11 0 -5
BITMAP
0B77E45E5000
2F8FF8FF7000
5FD6FD6F4000
6FB5FB5F1020
6F66F65F8C90
3E23E11DFA10
000000AF9000
00000AAD5000
00001F6E1000
00000EF60000
000002200000
ENDCHAR
STARTCHAR uni04AE
ENCODING 1198
SWIDTH 677 0
DWIDTH 8 0
BBX 8 11 1 0
BITMAP
3E4000BB
2FB006F6
0BF21EC0
05F78F40
00EDEA00
008FE200
003F8000
002F6000
003F6000
004F5000
003E3000
ENDCHAR
STARTCHAR uni04AF
ENCODING 1199
SWIDTH 472 0
DWIDTH 6 0
BBX 8 11 0 -5
BITMAP
4E13D600
4F38F741
2F58FFF3
1F7E6420
0EEC0000
0DE30000
0CB00000
0BC00000
0AD00000
09E00000
03500000
ENDCHAR
STARTCHAR uni04B0
ENCODING 1200
SWIDTH 677 0
DWIDTH 8 0
BBX 8 11 1 0
BITMAP
3E5000BB
1FC007F5
0AF32EB0
03F9AE20
00CFF600
007FC100
09FFFD00
026F8200
003F5000
004F5000
003E3000
ENDCHAR
STARTCHAR uni04B1
ENCODING 1201
SWIDTH 472 0
DWIDTH 6 0
BBX 8 11 0 -5
BITMAP
4E13D600
4F38F741
2F58FFF3
1F6E6420
0EDD0000
0DF60000
BFFF3000
1CD30000
0AD00000
09D00000
03500000
ENDCHAR
STARTCHAR uni04B2
ENCODING 1202
SWIDTH 716 0
DWIDTH 9 0
BBX 11 16 -1 -5
BITMAP
009ED3007E20
0BB7FC04FA00
06009F4EC100
00004FFE2000
00001FF30000
00006FE00000
0004FEF30000
002ED5F70000
00CF31FB0030
0AF600AFCAE0
1E90002EFB20
000001AFF100
00000CC9D000
00004F6D8000
00002EFD1000
000001310000
ENDCHAR
STARTCHAR uni04B3
ENCODING 1203
SWIDTH 601 0
DWIDTH 7 0
BBX 9 11 0 -5
BITMAP
0AE79E5000
0EAFDC6000
022F710000
684F600010
BBBFC56C60
6EB9EFF800
0001AF6000
000C8F2000
004E7C0000
003FE40000
0002100000
ENDCHAR
STARTCHAR uni04B4
ENCODING 1204
SWIDTH 1040 0
DWIDTH 12 0
BBX 14 16 0 -5
BITMAP
028CEFFEB0AA00
2EC76FD540EC00
7E002F9001FA00
8F105F5004F800
29008F2007F500
0000BF000BF300
0000EC001FF100
0002F9007EF000
0003F702CBE000
0002FC6D47FD7A
00008ED501AFE7
000000004EFE20
00000002EBAC00
00000006F5E700
00000003FFC100
00000000230000
ENDCHAR
STARTCHAR uni04B5
ENCODING 1205
SWIDTH 501 0
DWIDTH 6 0
BBX 8 14 0 -5
BITMAP
00011000
02FFF800
00444100
0B81D300
1F55F100
5F2AD000
6F3FA020
6FEDE8E3
1D95FE50
003DF300
02E8E000
07BA9000
06FD2000
00310000
ENDCHAR
STARTCHAR uni04B6
ENCODING 1206
SWIDTH 804 0
DWIDTH 10 0
BBX 11 16 1 -5
BITMAP
1D60009B0000
2F9000DC0000
4F7000FB0000
6F5004F90000
9F200AF70000
9F418EF50000
5FFFE8F30000
049827F10000
000009F71610
000005EFED10
0000019FA100
00002DFF1000
0000DC8D0000
0003F6D80000
0001EFD20000
000013100000
ENDCHAR
STARTCHAR uni04B7
ENCODING 1207
SWIDTH 631 0
DWIDTH 8 0
BBX 10 12 -1 -5
BITMAP
0008D31000
000ECFFB00
005D1BF500
00B78E4000
06D2F70003
1E33FA68BB
0200AEFFB1
000008FB00
00007CB700
0000E6E200
0000CF8000
0000130000
ENDCHAR
STARTCHAR uni04B8
ENCODING 1208
SWIDTH 773 0
DWIDTH 9 0
BBX 8 11 1 0
BITMAP
1D60009B
2F9000DC
3F8000EB
6F5723F9
8F3C48F7
9F2E5FF5
7FDFFAF3
1AEE76F2
004B09F0
00130BE0
000009A0
ENDCHAR
STARTCHAR uni04B9
ENCODING 1209
SWIDTH 575 0
DWIDTH 7 0
BBX 10 8 -1 0
BITMAP
0000031000
0006AB2000
000EEFBE00
004E8AF700
00B93E6000
06E1CA0086
1E30EC7CE2
01006EEA20
ENDCHAR
STARTCHAR uni04BA
ENCODING 1210
SWIDTH 755 0
DWIDTH 9 0
BBX 10 11 1 0
BITMAP
09B0000000
0DD0000000
0FB0000000
2F80000000
4F60000000
6F5AEE8000
9FEA6CF200
BF7007F400
DE0009F237
FB000AF7D4
D70006ED50
ENDCHAR
STARTCHAR uni04BB
ENCODING 1211
SWIDTH 502 0
DWIDTH 6 0
BBX 8 12 0 0
BITMAP
003DB000
00DAF200
04F2F100
09B4C000
0D8A6000
1FAC0000
3FE7E700
4F7FF800
5FC6F500
5FC3F347
5F85F8E4
4E22ED40
ENDCHAR
STARTCHAR uni04BC
ENCODING 1212
SWIDTH 808 0
DWIDTH 10 0
BBX 12 11 0 0
BITMAP
000029EE9100
0002EE78F800
000BE200CC00
003F8000BD00
3B8F4000DB00
3FFFFFFFF700
03DF65554000
00AF30000000
006F90000030
000BFB768CF2
00007CEEC930
ENDCHAR
STARTCHAR uni04BD
ENCODING 1213
SWIDTH 483 0
DWIDTH 6 0
BBX 8 6 0 0
BITMAP
004DE400
02EACA00
57F2C700
BFFE8184
06F96BE1
007EEA20
ENDCHAR
STARTCHAR uni04BE
ENCODING 1214
SWIDTH 808 0
DWIDTH 10 0
BBX 12 15 0 -4
BITMAP
000029EE9100
0002EE78F800
000BE200CC00
003F8000BD00
3B8F4000DB00
3FFFFFFFF700
03DF65554000
00AF30000000
006F90000030
000BFB768CF2
0001AFFEC930
0000D6000000
0001F5100000
0000CFE00000
000003200000
ENDCHAR
STARTCHAR uni04BF
ENCODING 1215
SWIDTH 483 0
DWIDTH 6 0
BBX 8 10 0 -4
BITMAP
004DE400
01EACA00
57F2C800
CEFEA173
17F94AE2
009FFB30
000C6000
001F4000
000BFE00
00002100
ENDCHAR
STARTCHAR uni04C0
ENCODING 1216
SWIDTH 495 0
DWIDTH 6 0
BBX 8 11 -1 0
BITMAP
009FFFF8
0037FC62
0003F800
0005F600
0007F300
0009F100
000BE000
000DC000
001FA000
047FB500
2FFFFE20
ENDCHAR
STARTCHAR uni04C1
ENCODING 1217
SWIDTH 1234 0
DWIDTH 15 0
BBX 16 14 0 0
BITMAP
0000000000240000
0000000C71C70000
00000007EE900000
008ED300B8006EE4
02C6EC00FA02F8C9
00006F22F809E000
00002F63F62F8000
00000CC6F8DD1000
000003FFFFB10000
00005EBCE9F40000
0001EC0DC0DC0000
3308F30FA08F4018
9E7F902F801ED6B9
2DF9002E5004DE90
ENDCHAR
STARTCHAR uni04C2
ENCODING 1218
SWIDTH 717 0
DWIDTH 9 0
BBX 11 10 0 0
BITMAP
000200440000
000F63E40000
000AFF800000
000032000000
09E5A77EA000
0EADE9F8F000
002FFCA28000
794EEF900A10
BCC8FBE6AC00
6EB0D29EB100
ENDCHAR
STARTCHAR uni04C3
ENCODING 1219
SWIDTH 937 0
DWIDTH 11 0
BBX 13 16 0 -5
BITMAP
019DFEA001D600
0CD77FC007F400
2F404F601DD000
1F606F409F4000
05209F5AF50000
0007FFFC200000
0001DDAF700000
1000EA0EE10000
9803F708F60140
8F7BF201EFCD90
1AED50005FF700
00000004DFA000
0000003F8D7000
0000009E5F3000
0000006FF90000
00000003300000
ENDCHAR
STARTCHAR uni04C4
ENCODING 1220
SWIDTH 531 0
DWIDTH 6 0
BBX 8 11 0 -5
BITMAP
0B78E900
2F9F8F00
5FDA3900
6FF90001
6FDE57C8
3E3AFFA1
000AF800
00A9D400
01F6E000
01EF6000
00220000
ENDCHAR
STARTCHAR uni04C5
ENCODING 1221
SWIDTH 861 0
DWIDTH 10 0
BBX 12 14 0 -3
BITMAP
0000004E7000
000000AF8000
000000EF7000
000004FF7000
000009EF6000
00000EAF6000
00005F6F7000
0000CC2F8000
A505F60EA01A
BD7EB00AF6C9
2CEA1002CFC0
00000000AE20
00000003F700
00000006C000
ENDCHAR
STARTCHAR uni04C6
ENCODING 1222
SWIDTH 549 0
DWIDTH 7 0
BBX 8 8 0 -2
BITMAP
0005E500
000BF700
002FE700
B79BE71C
EBF4DBB8
9E708FA0
00007D10
0000D400
ENDCHAR
STARTCHAR uni04C7
ENCODING 1223
SWIDTH 907 0
DWIDTH 11 0
BBX 14 16 -1 -5
BITMAP
008EE30004EE20
0BB7F9001EAB60
2A00EA007F1B50
0000F900BB5E10
0003F812FEF600
00BFFFFFFD4000
002BF524F60000
000BE004F60000
000EB002FA0032
002F8000DFECF3
002E30003CFC30
000000008FF500
00000008E6F200
0000000EA9C000
0000000CFF4000
00000000310000
ENDCHAR
STARTCHAR uni04C8
ENCODING 1224
SWIDTH 515 0
DWIDTH 6 0
BBX 8 11 0 -5
BITMAP
0B70C500
2F54F300
5FFFF100
6F4AD033
6F08F9F4
3D02FE50
002CF400
00D8F100
04D7B000
03FE3000
00210000
ENDCHAR
STARTCHAR uni04C9
ENCODING 1225
SWIDTH 873 0
DWIDTH 10 0
BBX 13 14 -1 -3
BITMAP
008EE30004EE20
0BB7F9001EAB60
2A00EA007F1B50
0000F900BB5E10
0003F812FEF600
00BFFFFFFD5000
002BF524F60000
000BE004F60010
000EB002F902D0
002F8000CFBE90
002E30002CFC00
0000000008E200
000000002F8000
000000004D1000
ENDCHAR
STARTCHAR uni04CA
ENCODING 1226
SWIDTH 475 0
DWIDTH 6 0
BBX 8 9 0 -3
BITMAP
0B70C500
2F53F300
5FFFF110
6F4AD0C3
6F08EBC0
3D04FE20
0003F500
000AB000
00042000
ENDCHAR
STARTCHAR uni04CB
ENCODING 1227
SWIDTH 773 0
DWIDTH 9 0
BBX 8 16 1 -5
BITMAP
1D60009B
2F9000CC
3F8000EB
6F5003F9
8F3008F7
9F203EF5
7FDAFAF3
1AEE76F2
000009F0
00003CE0
0002DFA0
006EE800
05F4E500
0BC7E100
08FF7000
00320000
ENDCHAR
STARTCHAR uni04CC
ENCODING 1228
SWIDTH 555 0
DWIDTH 7 0
BBX 10 9 -1 -2
BITMAP
0008D31000
000ECFFB00
005D1BF500
00C79E3000
06D2F701B2
1E32FA7DC0
01009EFD10
0000009800
0000003200
ENDCHAR
STARTCHAR uni04CD
ENCODING 1229
SWIDTH 1133 0
DWIDTH 14 0
BBX 16 14 0 -3
BITMAP
000009E300AD1000
00000EF503FF1000
00002FF509FF0000
00005FF40EEE0000
00008DF55FBD0000
0000BAF5ABBD0000
0000E7E7E6BD0000
0004F3DBF2AD0000
9409D0BFC09F0081
CD7F609F705F99D0
3DE8004E2009FE30
000000000006F500
00000000001EB000
00000000002D2000
ENDCHAR
STARTCHAR uni04CE
ENCODING 1230
SWIDTH 734 0
DWIDTH 9 0
BBX 11 8 0 -2
BITMAP
0009C08E1000
001FF3FF1000
115EF9CF1000
C7A9FE7F1640
EBF3FD4F8D10
8E70B61EE300
0000002E5000
000000890000
ENDCHAR
STARTCHAR uni04CF
ENCODING 1231
SWIDTH 222 0
DWIDTH 3 0
BBX 4 11 0 0
BITMAP
0062
03F4
07F2
09E0
0CB0
0E90
2F70
4F40
6F20
8F00
7C00
ENDCHAR
STARTCHAR uni04D0
ENCODING 1232
SWIDTH 786 0
DWIDTH 9 0
BBX 11 14 0 0
BITMAP
000000001500
000009919A00
000004DEB100
00006BEFEA00
001BFC98AA00
00BF60097000
06F7001FA000
0CE0004F7000
2FA0007F4000
4F7000BF1000
5F7002FF0000
3FA009FF01A0
0CF9ADBF9CA0
02BEC32CE910
ENDCHAR
STARTCHAR uni04D1
ENCODING 1233
SWIDTH 470 0
DWIDTH 6 0
BBX 8 10 0 0
BITMAP
01100800
08C29B00
03EFD200
00131000
01AE7100
0CEAF200
5F57F000
8F0AD081
7F8FE9D0
2DD5DC20
ENDCHAR
STARTCHAR uni04D2
ENCODING 1234
SWIDTH 786 0
DWIDTH 9 0
BBX 11 14 0 0
BITMAP
00000AC3F500
000009B3E400
000000000000
00006BEFEA00
001BFC98AA00
00BF60097000
06F7001FA000
0CE0004F7000
2FA0007F4000
4F7000BF1000
5F7002FF0000
3FA009FF01A0
0CF9ADBF9CA0
02BEC32CE910
ENDCHAR
STARTCHAR uni04D3
ENCODING 1235
SWIDTH 470 0
DWIDTH 6 0
BBX 8 9 0 0
BITMAP
02E59C00
02E49B00
00000000
01AE7100
0CEAF200
5F57F000
8F0AD081
7F8FE9D0
2DD5DC20
ENDCHAR
STARTCHAR uni04D4
ENCODING 1236
SWIDTH 1015 0
DWIDTH 12 0
BBX 14 11 0 0
BITMAP
00007CE2CFFFC0
001CFC87F86630
00CF600AE00000
06F7000EC00000
0DE1003F900000
2FA0007FFFFE10
4F8000BF866400
5F7001FF200000
3FA008FF500013
0CF88F5EE879E8
02BED503BEEC70
ENDCHAR
STARTCHAR uni04D5
ENCODING 1237
SWIDTH 653 0
DWIDTH 8 0
BBX 10 6 0 0
BITMAP
01AEACE500
0CE8FACB00
5F35F2C800
8F0AFE8184
7F8EFA7CE2
1CE57EEA20
ENDCHAR
STARTCHAR uni04D6
ENCODING 1238
SWIDTH 686 0
DWIDTH 8 0
BBX 10 14 0 0
BITMAP
0000000510
0003E33E20
0000AED600
0018DFD600
00CF96AF40
05F8001F80
06F5002F70
02FC310610
008FFA0000
1CE8520000
7F50000000
9F40000012
3FE9678BEA
03ADFEDB71
ENDCHAR
STARTCHAR uni04D7
ENCODING 1239
SWIDTH 393 0
DWIDTH 5 0
BBX 7 10 0 0
BITMAP
02005400
0F63E300
0AFF8000
00320000
05DE4000
3F9D9000
8E2D6000
9FD71930
5F97DD10
08EE9100
ENDCHAR
STARTCHAR uni04D8
ENCODING 1240
SWIDTH 792 0
DWIDTH 10 0
BBX 10 11 0 0
BITMAP
003AEFC500
03EC77DF60
0470001EE0
00000009F3
01222228F4
2EFFFFFFF3
4FA4444DF1
3F90001FC0
0ED0009F50
06FC7AF900
006DEC6000
ENDCHAR
STARTCHAR uni04D9
ENCODING 1241
SWIDTH 455 0
DWIDTH 5 0
BBX 7 6 0 0
BITMAP
1BEE7000
177BF440
7FFFFFF0
AB47F620
9D6CD000
2CEC3000
ENDCHAR
STARTCHAR uni04DA
ENCODING 1242
SWIDTH 792 0
DWIDTH 10 0
BBX 10 14 0 0
BITMAP
0006E2D900
0006E2D800
0000000000
003AEFC500
03EC77DF60
0470001EE0
00000009F3
01222228F4
2EFFFFFFF3
4FA4444DF1
3F90001FC0
0ED0009F50
06FC7AF900
006DEC6000
ENDCHAR
STARTCHAR uni04DB
ENCODING 1243
SWIDTH 455 0
DWIDTH 5 0
BBX 7 9 0 0
BITMAP
09B2E400
0AB3E400
00000000
1BEE7000
177BF440
7FFFFFF0
AB47F620
9D6CD000
2CEC3000
ENDCHAR
STARTCHAR uni04DC
ENCODING 1244
SWIDTH 1234 0
DWIDTH 15 0
BBX 16 14 0 0
BITMAP
0000000D95F20000
0000000C85E20000
0000000000000000
008ED300B8006EE4
02C6EC00FA02F8C9
00006F22F809E000
00002F63F62F8000
00000CC6F8DD1000
000003FFFFB10000
00005EBCE9F40000
0001EC0DC0DC0000
3308F30FA08F4018
9E7F902F801ED6B9
2DF9002E5004DE90
ENDCHAR
STARTCHAR uni04DD
ENCODING 1245
SWIDTH 717 0
DWIDTH 9 0
BBX 11 9 0 0
BITMAP
0008C2E50000
0009C2E40000
000000000000
09E5A77EA000
0EADE9F8F000
002FFCA28000
794EEF900A10
BCC8FBE6AC00
6EB0D29EB100
ENDCHAR
STARTCHAR uni04DE
ENCODING 1246
SWIDTH 725 0
DWIDTH 9 0
BBX 9 14 0 0
BITMAP
0006E2D800
0006E1D800
0000000000
002AEEB200
01ED77FA00
05F300CC00
03F100E900
000008E200
000AFEE600
000440AF20
2D30008F40
4F6001DF10
1ED66CF700
03BEEB5000
ENDCHAR
STARTCHAR uni04DF
ENCODING 1247
SWIDTH 435 0
DWIDTH 5 0
BBX 8 15 -1 -6
BITMAP
01E67D00
01E58C00
00000000
008EE500
01C7BB00
0000A900
005CC134
04F918F5
008FDC20
004ED000
03ECC000
0D5BA000
5C2F6000
7CBD0000
3EC30000
ENDCHAR
STARTCHAR uni04E0
ENCODING 1248
SWIDTH 744 0
DWIDTH 9 0
BBX 10 11 0 0
BITMAP
004CEFEB80
02FA67AFE2
06F2008F30
02E301EB00
00000BE200
000AFEE600
000440AF20
2D30008F40
4F6001DE10
1ED66CF700
03BEEB5000
ENDCHAR
STARTCHAR uni04E1
ENCODING 1249
SWIDTH 435 0
DWIDTH 5 0
BBX 8 12 -1 -6
BITMAP
04FFFF80
0158FD30
004E8000
02E70086
04F83CD2
005EF910
006FC000
05EBC000
1E4BA000
5C2F5000
7CBD0000
3EC20000
ENDCHAR
STARTCHAR uni04E2
ENCODING 1250
SWIDTH 890 0
DWIDTH 11 0
BBX 13 14 0 0
BITMAP
00000222000000
00006FFF400000
00001444000000
06DE40007D0000
7E7FA000BF0000
D20FB000DD0000
102F9001FB0000
005F6004F90000
008F3008F60000
00BF000DF40000
00EC005DF20000
00FB02D9F20920
00EFAE77FCCD00
005ED701BEB200
ENDCHAR
STARTCHAR uni04E3
ENCODING 1251
SWIDTH 462 0
DWIDTH 6 0
BBX 7 9 0 0
BITMAP
00122000
04FFF600
01444100
0B81D300
1F55F100
5F2AD000
6F3FA0A0
6FEDCAB0
1D96EA10
ENDCHAR
STARTCHAR uni04E4
ENCODING 1252
SWIDTH 890 0
DWIDTH 11 0
BBX 13 14 0 0
BITMAP
00006E2D800000
00006E1D800000
00000000000000
06DE40007D0000
7E7FA000BF0000
D20FB000DD0000
102F9001FB0000
005F6004F90000
008F3008F60000
00BF000DF40000
00EC005DF20000
00FB02D9F20920
00EFAE77FCCD00
005ED701BEB200
ENDCHAR
STARTCHAR uni04E5
ENCODING 1253
SWIDTH 462 0
DWIDTH 6 0
BBX 7 9 0 0
BITMAP
04E2B900
04E2C900
00000000
0B81D300
1F55F100
5F2AD000
6F3FA0A0
6FEDCAB0
1D96EA10
ENDCHAR
STARTCHAR uni04E6
ENCODING 1254
SWIDTH 816 0
DWIDTH 10 0
BBX 10 14 0 0
BITMAP
0001E77E10
0001D77D10
0000000000
0005CEE800
007FB7AFA0
03FA000AF3
0AF10005F7
0EB00003F8
2F900004F7
3F800006F5
2FA0000BF1
0DE1004F80
06FC79FB10
005CFD7100
ENDCHAR
STARTCHAR uni04E7
ENCODING 1255
SWIDTH 451 0
DWIDTH 5 0
BBX 7 9 0 0
BITMAP
09B2E400
0AB3E400
00000000
05DE6000
3FAEF330
8F0AFFE0
9E05F410
5F8CA000
09EB1000
ENDCHAR
STARTCHAR uni04E8
ENCODING 1256
SWIDTH 816 0
DWIDTH 10 0
BBX 10 11 0 0
BITMAP
0005CEE800
007FB6AFA0
03FA000BF3
0AF20005F7
0EC00003F8
2FFFFFFFF7
3FB55559F5
2FA0000AF1
0DE1004F80
06FC68FB10
005CFD7100
ENDCHAR
STARTCHAR uni04E9
ENCODING 1257
SWIDTH 451 0
DWIDTH 5 0
BBX 7 6 0 0
BITMAP
05DE6000
3F9AF330
8FFFFFE0
9F48F410
5F8CA000
09EB1000
ENDCHAR
STARTCHAR uni04EA
ENCODING 1258
SWIDTH 816 0
DWIDTH 10 0
BBX 10 14 0 0
BITMAP
0001E77E10
0001D77D10
0000000000
0005CEE800
007FB6AFA0
03FA000BF3
0AF20005F7
0EC00003F8
2FFFFFFFF7
3FB55559F5
2FA0000AF1
0DE1004F80
06FC68FB10
005CFD7100
ENDCHAR
STARTCHAR uni04EB
ENCODING 1259
SWIDTH 451 0
DWIDTH 5 0
BBX 7 9 0 0
BITMAP
09B2E400
0AA3E300
00000000
05DE6000
3F9AF330
8FFFFFE0
9F48F410
5F8CA000
09EB1000
ENDCHAR
STARTCHAR uni04EC
ENCODING 1260
SWIDTH 755 0
DWIDTH 9 0
BBX 9 14 0 0
BITMAP
0007E2E800
0007D1D700
0000000000
005CEEA200
07FA69FD10
0A40008F70
0000002FB0
0000000FC0
006FFFFFB0
0025557F90
2900006F50
6F2001DD00
4FA67DE300
06DFDA2000
ENDCHAR
STARTCHAR uni04ED
ENCODING 1261
SWIDTH 466 0
DWIDTH 6 0
BBX 8 9 0 0
BITMAP
06D1D600
07D1E600
00000000
0AEE8000
076AF640
12BFFFF2
7A26F720
7E6BE100
1BEC4000
ENDCHAR
STARTCHAR uni04EE
ENCODING 1262
SWIDTH 824 0
DWIDTH 10 0
BBX 12 18 0 -4
BITMAP
000002210000
00008FFF2000
000024440000
07EE40008C00
7D7FA000DE00
211F9001FB00
005F6007F900
008F302EF700
008F53DBF400
002EFF86F231
00013108FFF6
000004BFE950
0001AFFFA000
000AF82E7000
001F804F3000
002F83CB0000
000BFFC10000
000033000000
ENDCHAR
STARTCHAR uni04EF
ENCODING 1263
SWIDTH 479 0
DWIDTH 6 0
BBX 7 15 0 -6
BITMAP
00122000
04FFF600
01444100
0B81D300
1F55F200
5F2AE000
6F3FC2B0
6FEEDE90
1DACE500
009F5000
09DF2000
5C7D0000
D4B90000
F9F30000
AE700000
ENDCHAR
STARTCHAR uni04F0
ENCODING 1264
SWIDTH 824 0
DWIDTH 10 0
BBX 12 18 0 -4
BITMAP
00008D2E6000
00008D2E6000
000000000000
07EE40008C00
7D7FA000DE00
211F9001FB00
005F6007F900
008F302EF700
008F53DBF400
002EFF86F231
00013108FFF6
000004BFE950
0001AFFFA000
000AF82E7000
001F804F3000
002F83CB0000
000BFFC10000
000033000000
ENDCHAR
STARTCHAR uni04F1
ENCODING 1265
SWIDTH 479 0
DWIDTH 6 0
BBX 7 15 0 -6
BITMAP
04E2B900
04E2C900
00000000
0B81D300
1F55F200
5F2AE000
6F3FC2B0
6FEEDE90
1DACE500
009F5000
09DF2000
5C7D0000
D4B90000
F9F30000
AE700000
ENDCHAR
STARTCHAR uni04F2
ENCODING 1266
SWIDTH 824 0
DWIDTH 10 0
BBX 12 19 0 -4
BITMAP
00000977A000
00000E6C9000
00002C0D1000
000000000000
07EE40008C00
7D7FA000DE00
211F9001FB00
005F6007F900
008F302EF700
008F53DBF400
002EFF86F231
00013108FFF6
000004BFE950
0001AFFFA000
000AF82E7000
001F804F3000
002F83CB0000
000BFFC10000
000033000000
ENDCHAR
STARTCHAR uni04F3
ENCODING 1267
SWIDTH 479 0
DWIDTH 6 0
BBX 7 17 0 -6
BITMAP
002D3D40
006F5F40
00B88B00
00C1A300
00000000
0B81D300
1F55F200
5F2AE000
6F3FC2B0
6FEEDE90
1DACE500
009F5000
09DF2000
5C7D0000
D4B90000
F9F30000
AE700000
ENDCHAR
STARTCHAR uni04F4
ENCODING 1268
SWIDTH 773 0
DWIDTH 9 0
BBX 8 14 1 0
BITMAP
006E2D90
006E2D80
00000000
1D60009B
2F9000CC
3F8000EB
6F5003F9
8F3008F7
9F203EF5
7FDAFAF3
1AEE76F2
000009F0
00000BE0
000009A0
ENDCHAR
STARTCHAR uni04F5
ENCODING 1269
SWIDTH 555 0
DWIDTH 7 0
BBX 10 9 -1 0
BITMAP
00009B2E40
0000AB3E40
0008D31000
000ECFFB00
005D1BF500
00C79E3000
06D2F701B2
1E32FA7DC0
01009EE810
ENDCHAR
STARTCHAR uni04F6
ENCODING 1270
SWIDTH 600 0
DWIDTH 7 0
BBX 11 17 0 -5
BITMAP
000000000100
029CEFFFFF30
2EDAFA555300
8E05F5000000
7F18F3000000
170BF0000000
000DD0000000
000FB0000000
002F90000000
005F70000000
006F92000000
005FF5000000
01ADF3000000
0AD5F0000000
1F8BB0000000
0DFE30000000
013100000000
ENDCHAR
STARTCHAR uni04F7
ENCODING 1271
SWIDTH 441 0
DWIDTH 5 0
BBX 7 11 0 -5
BITMAP
2BED2000
297F6000
02BC1000
3E700110
8F678D70
3DEFF900
01BF7000
0B8E3000
3F6D0000
2FF50000
02200000
ENDCHAR
STARTCHAR uni04F8
ENCODING 1272
SWIDTH 1078 0
DWIDTH 13 0
BBX 13 14 0 0
BITMAP
000003F5AC0000
000003E4AB0000
00000000000000
007C0000001D60
00DD0000003F70
01F90000005F50
03F60100007F30
06FDFFE7009F10
7FF855CF40BE00
4DE0004F70EB00
0AE0005F61F900
09F100AF23F700
04FA6AF805F600
006DEC6004E300
ENDCHAR
STARTCHAR uni04F9
ENCODING 1273
SWIDTH 702 0
DWIDTH 8 0
BBX 10 9 0 0
BITMAP
000B94E200
000C95E200
0000000000
0B90005D00
2F7000CD00
4FBFE6FA00
5F84FFF808
3FA9F7EBBB
07ED607EA1
ENDCHAR
STARTCHAR uni04FA
ENCODING 1274
SWIDTH 635 0
DWIDTH 8 0
BBX 12 17 -1 -5
BITMAP
000000000010
0029CEFFFFF3
02EDAFA55530
08E15F500000
08F18F300000
0290AF100000
001EFFF60000
0005FC510000
0002F9000000
0004F7000000
0006F5000000
0009F2000000
000CE0000000
001FA0000000
AB7F40000000
8FF900000000
032000000000
ENDCHAR
STARTCHAR uni04FB
ENCODING 1275
SWIDTH 441 0
DWIDTH 5 0
BBX 7 11 0 -5
BITMAP
2BED2000
297F6000
65BD1000
6FE80110
8F678D70
3DEFF900
01BF7000
0B8E3000
3F6D0000
2FF50000
02200000
ENDCHAR
STARTCHAR uni04FC
ENCODING 1276
SWIDTH 716 0
DWIDTH 9 0
BBX 11 16 -1 -5
BITMAP
009ED3007E20
0BB7FC04FA00
06009F4EC100
00004FFE2000
00001FF30000
00006FE00000
0004FEF30000
002ED5F70000
00CF31FB0030
0AF600AFCAE0
1E90002EFB20
000001AFF100
00000CC9D000
00004F6D8000
00002EFD1000
000001310000
ENDCHAR
STARTCHAR uni04FD
ENCODING 1277
SWIDTH 601 0
DWIDTH 7 0
BBX 9 11 0 -5
BITMAP
0AE79E5000
0EAFDC6000
022F710000
684F600010
BBBFC56C60
6EB9EFF800
0001AF6000
000C8F2000
004E7C0000
003FE40000
0002100000
ENDCHAR
STARTCHAR uni04FE
ENCODING 1278
SWIDTH 712 0
DWIDTH 9 0
BBX 11 11 -1 0
BITMAP
009EC2006E20
0AB7FB03FC00
0800AF2DE200
00006FDF5000
00002FF90000
001EFFFFA000
0005DFF62000
0009FAF50000
008F62F90060
07F900BF7AD0
1EA0002CEB20
ENDCHAR
STARTCHAR uni04FF
ENCODING 1279
SWIDTH 529 0
DWIDTH 6 0
BBX 8 6 0 0
BITMAP
0AE79E50
0EAFCC60
14DFF602
AA7F803C
BCCFC6D6
6EA6DE70
ENDCHAR
STARTCHAR uni0510
ENCODING 1296
SWIDTH 706 0
DWIDTH 8 0
BBX 8 11 0 0
BITMAP
002AEEA2
00CE67EC
02F7009F
02F7007B
00BD1000
04DEFC00
2EA03400
5F60005C
5FA000AF
0DF969F9
02AEFD70
ENDCHAR
STARTCHAR uni0511
ENCODING 1297
SWIDTH 392 0
DWIDTH 5 0
BBX 7 6 0 0
BITMAP
09ED3000
2F883000
1DF40000
9E511D10
AE68EB00
3DFD7000
ENDCHAR
STARTCHAR uni0512
ENCODING 1298
SWIDTH 884 0
DWIDTH 11 0
BBX 13 16 0 -5
BITMAP
0000004E700000
000000AF800000
000000EF700000
000004FF700000
000009EF600000
00000EAF600000
00005F6F700000
0000CC2F800000
A505F60FA00200
BD7EB00BF99E20
2CEA1003DFD400
00000019FF2000
000000BD7E0000
000002F7CA0000
000001EFE20000
00000014100000
ENDCHAR
STARTCHAR uni0513
ENCODING 1299
SWIDTH 631 0
DWIDTH 8 0
BBX 9 11 0 -5
BITMAP
0004E60000
000BF70000
002FE60000
B79BE60010
EAF4EA68B0
9E70AFFC20
00006FB000
0006BC7000
000D6F3000
000CF90000
0001300000
ENDCHAR
STARTCHAR uni051A
ENCODING 1306
SWIDTH 816 0
DWIDTH 10 0
BBX 11 16 0 -5
BITMAP
0004BEE80000
007FB7AFA000
03FA000AF300
0AF20005F700
0EB00003F800
2F900004F800
3F800006F500
2FA0000BF100
0EE1004FA000
06FC68FD1000
007EFFB20000
00009F700000
00001EE10140
000008F93B60
000001CFFA00
000000033000
ENDCHAR
STARTCHAR uni051B
ENCODING 1307
SWIDTH 500 0
DWIDTH 6 0
BBX 8 12 0 -5
BITMAP
00004400
01AEF900
0CE9F500
5F56F100
8F0BC121
7F8F9DF7
2DDF7E41
002F5D10
004F4E00
004F5D00
002FD900
000AD200
ENDCHAR
STARTCHAR uni051C
ENCODING 1308
SWIDTH 1217 0
DWIDTH 15 0
BBX 16 11 1 0
BITMAP
1D60006E102CE600
4F7000BF10BBCE00
6F5000EE00E58E00
7F4002FD00D7BB00
8F3006FC007EF920
8F200AFC000AFFF4
8F301EDC000DB340
6F406D8D005F3000
4F81E76F21E90000
0EFDD12FDED10000
05EC2008EB200000
ENDCHAR
STARTCHAR uni051D
ENCODING 1309
SWIDTH 700 0
DWIDTH 8 0
BBX 10 6 0 0
BITMAP
4E03E06E20
6F1AF1CF43
6F3FF2DFFE
5FACF8E331
3FF5FF8000
0DA0BB1000
ENDCHAR
STARTCHAR uni0524
ENCODING 1316
SWIDTH 892 0
DWIDTH 11 0
BBX 13 16 0 -5
BITMAP
017BDEFFEDCA10
2ED9FB55BF9A10
7E14F700AF0000
7F06F500DD0000
1709F201FA0000
000BF003F70000
000EC006F40000
001FA008F20000
003F8009F40000
005F7006FFBE30
003E40006FE600
00000009FF4000
000000AD7F1000
000001F8BB0000
000000DFE30000
00000013100000
ENDCHAR
STARTCHAR uni0525
ENCODING 1317
SWIDTH 536 0
DWIDTH 6 0
BBX 8 11 0 -5
BITMAP
0B76E600
2F8FF700
5FD6F400
6FC4F202
6F65F8C9
3E21DFA1
000AF900
009AD500
01F6E100
00EF6000
00220000
ENDCHAR
STARTCHAR uni0526
ENCODING 1318
SWIDTH 818 0
DWIDTH 10 0
BBX 11 16 1 -5
BITMAP
06D000000000
0BF000000000
0EC000000000
1FA000000000
4F7000000000
6F59EE800000
9FDA6CF30000
BF8007F40000
DE0008F30100
FB0009FF9D30
D90007EFE600
000005DF4000
00007E7F1000
0000F9AC0000
0000DFE30000
000013100000
ENDCHAR
STARTCHAR uni0527
ENCODING 1319
SWIDTH 542 0
DWIDTH 7 0
BBX 8 17 0 -5
BITMAP
004EC000
00D9F200
04E1F100
09B4C000
0D8A6000
1FAC0000
3FE7E700
4F7FF800
5FC6F500
5FC3F302
5F84F9BA
4E20CFB1
0009FA00
008BC600
00E6F200
00DF7000
00130000
ENDCHAR
STARTCHAR uni0528
ENCODING 1320
SWIDTH 873 0
DWIDTH 10 0
BBX 14 16 -2 -5
BITMAP
0008EE30004EE2
00BB7F9001EAB6
02A00EA007F1B5
00000F900BB5F2
00003F812FEF80
000BFFFFFFF800
0002AF524F6000
0000BE004F6000
0000DC002F701C
0001FA000CE6BA
0004F70003DE91
0007F300000000
000BE000000000
4F4F8000000000
3FFD1000000000
02300000000000
ENDCHAR
STARTCHAR uni0529
ENCODING 1321
SWIDTH 475 0
DWIDTH 6 0
BBX 10 11 -2 -5
BITMAP
000B70C500
002F53F400
004FFFF110
005F4AD0B3
006F08E9C0
005F14EB10
004F100000
004F100000
3E7E000000
2EF8000000
0130000000
ENDCHAR
STARTCHAR uni052E
ENCODING 1326
SWIDTH 884 0
DWIDTH 11 0
BBX 13 16 0 -5
BITMAP
0000004E700000
000000AF800000
000000EF700000
000004FF700000
000009EF600000
00000EAF600000
00005F6F700000
0000CC2F800000
A505F60FA00200
BD7EB00BF99E20
2CEA1003DFD400
00000019FF2000
000000BD7E0000
000002F7CA0000
000001EFE20000
00000014100000
ENDCHAR
STARTCHAR uni052F
ENCODING 1327
SWIDTH 631 0
DWIDTH 8 0
BBX 9 11 0 -5
BITMAP
0004E60000
000BF70000
002FE60000
B79BE60010
EAF4EA68B0
9E70AFFC20
00006FB000
0006BC7000
000D6F3000
000CF90000
0001300000
ENDCHAR
STARTCHAR Wgrave
ENCODING 7808
SWIDTH 1217 0
DWIDTH 15 0
BBX 16 15 1 0
BITMAP
00009B1000000000
00006EC100000000
0000029A00000000
0000000000000000
1D60006E102CE600
4F7000BF10BBCE00
6F5000EE00E58E00
7F4002FD00D7BB00
8F3006FC007EF920
8F200AFC000AFFF4
8F301EDC000DB340
6F406D8D005F3000
4F81E76F21E90000
0EFDD12FDED10000
05EC2008EB200000
ENDCHAR
STARTCHAR wgrave
ENCODING 7809
SWIDTH 700 0
DWIDTH 8 0
BBX 10 11 0 0
BITMAP
006B000000
005F300000
000A900000
0001C00000
0000000000
4E03E06E20
6F1AF1CF43
6F3FF2DFFE
5FACF8E331
3FF5FF8000
0DA0BB1000
ENDCHAR
STARTCHAR Wacute
ENCODING 7810
SWIDTH 1217 0
DWIDTH 15 0
BBX 16 15 1 0
BITMAP
000000002C700000
00000003EE400000
0000000C81000000
0000000000000000
1D60006E102CE600
4F7000BF10BBCE00
6F5000EE00E58E00
7F4002FD00D7BB00
8F3006FC007EF920
8F200AFC000AFFF4
8F301EDC000DB340
6F406D8D005F3000
4F81E76F21E90000
0EFDD12FDED10000
05EC2008EB200000
ENDCHAR
STARTCHAR wacute
ENCODING 7811
SWIDTH 700 0
DWIDTH 8 0
BBX 10 11 0 0
BITMAP
0000099000
00001F8000
00007C0000
0000A30000
0000000000
4E03E06E20
6F1AF1CF43
6F3FF2DFFE
5FACF8E331
3FF5FF8000
0DA0BB1000
ENDCHAR
STARTCHAR Wdieresis
ENCODING 7812
SWIDTH 1217 0
DWIDTH 15 0
BBX 16 14 1 0
BITMAP
000006F2D9000000
000005E2D8000000
0000000000000000
1D60006E102CE600
4F7000BF10BBCE00
6F5000EE00E58E00
7F4002FD00D7BB00
8F3006FC007EF920
8F200AFC000AFFF4
8F301EDC000DB340
6F406D8D005F3000
4F81E76F21E90000
0EFDD12FDED10000
05EC2008EB200000
ENDCHAR
STARTCHAR wdieresis
ENCODING 7813
SWIDTH 700 0
DWIDTH 8 0
BBX 10 9 0 0
BITMAP
003E3BA000
004E2B9000
0000000000
4E03E06E20
6F1AF1CF43
6F3FF2DFFE
5FACF8E331
3FF5FF8000
0DA0BB1000
ENDCHAR
STARTCHAR uni1E9E
ENCODING 7838
SWIDTH 843 0
DWIDTH 10 0
BBX 9 12 1 -1
BITMAP
08D05CEB10
0EC7E79F90
1FAE202FA0
4FE7009F40
6FE16DD500
8F90EFD600
AF5002BF30
CF20005F70
DE00007F50
EC0005ED10
D704DFC200
0002730000
ENDCHAR
STARTCHAR uni1EA0
ENCODING 7840
SWIDTH 786 0
DWIDTH 9 0
BBX 11 14 0 -3
BITMAP
00006BEFEA00
001BFC98AA00
00BF60097000
06F7001FA000
0CE0004F7000
2FA0007F4000
4F7000BF1000
5F7002FF0000
3FA009FF01A0
0CF9ADBF9CA0
02BEC32CE910
000000000000
0008F5000000
0008E3000000
ENDCHAR
STARTCHAR uni1EA1
ENCODING 7841
SWIDTH 470 0
DWIDTH 6 0
BBX 8 9 0 -3
BITMAP
01AE7100
0CEAF200
5F57F000
8F0AD081
7F8FE9D0
2DD5DC20
00000000
08E30000
09E30000
ENDCHAR
STARTCHAR uni1EA2
ENCODING 7842
SWIDTH 786 0
DWIDTH 9 0
BBX 11 16 0 0
BITMAP
000000010000
000000BFA000
00000039F000
0000005FA000
000000130000
00006BEFEA00
001BFC98AA00
00BF60097000
06F7001FA000
0CE0004F7000
2FA0007F4000
4F7000BF1000
5F7002FF0000
3FA009FF01A0
0CF9ADBF9CA0
02BEC32CE910
ENDCHAR
STARTCHAR uni1EA3
ENCODING 7843
SWIDTH 470 0
DWIDTH 6 0
BBX 8 11 0 0
BITMAP
00010000
004FE300
0015D600
000DE200
00031000
01AE7100
0CEAF200
5F57F000
8F0AD081
7F8FE9D0
2DD5DC20
ENDCHAR
STARTCHAR uni1EA4
ENCODING 7844
SWIDTH 786 0
DWIDTH 9 0
BBX 11 18 0 0
BITMAP
000000001B90
00000001CE60
0000001FB200
000000CFA000
000006F7F100
00000B71D300
000000000000
00006BEFEA00
001BFC98AA00
00BF60097000
06F7001FA000
0CE0004F7000
2FA0007F4000
4F7000BF1000
5F7002FF0000
3FA009FF01A0
0CF9ADBF9CA0
02BEC32CE910
ENDCHAR
STARTCHAR uni1EA5
ENCODING 7845
SWIDTH 470 0
DWIDTH 6 0
BBX 8 12 0 0
BITMAP
00000052
000006F5
00055520
008CE500
03E28900
00000000
01AE7100
0CEAF200
5F57F000
8F0AD081
7F8FE9D0
2DD5DC20
ENDCHAR
STARTCHAR uni1EA6
ENCODING 7846
SWIDTH 786 0
DWIDTH 9 0
BBX 11 18 0 0
BITMAP
00006C200000
00004EE30000
0000019F2000
000000CFA000
000006F7F100
00000B71D300
000000000000
00006BEFEA00
001BFC98AA00
00BF60097000
06F7001FA000
0CE0004F7000
2FA0007F4000
4F7000BF1000
5F7002FF0000
3FA009FF01A0
0CF9ADBF9CA0
02BEC32CE910
ENDCHAR
STARTCHAR uni1EA7
ENCODING 7847
SWIDTH 470 0
DWIDTH 6 0
BBX 8 12 0 0
BITMAP
15000000
4F700000
02555000
008CE500
03E28900
00000000
01AE7100
0CEAF200
5F57F000
8F0AD081
7F8FE9D0
2DD5DC20
ENDCHAR
STARTCHAR uni1EA8
ENCODING 7848
SWIDTH 786 0
DWIDTH 9 0
BBX 11 19 0 0
BITMAP
000000010000
0000004FE300
00000015D700
0000001FF300
000000CFC000
000006F7F100
00000B71D300
000000000000
00006BEFEA00
001BFC98AA00
00BF60097000
06F7001FA000
0CE0004F7000
2FA0007F4000
4F7000BF1000
5F7002FF0000
3FA009FF01A0
0CF9ADBF9CA0
02BEC32CE910
ENDCHAR
STARTCHAR uni1EA9
ENCODING 7849
SWIDTH 470 0
DWIDTH 6 0
BBX 8 11 0 0
BITMAP
00000BE4
000005C8
002DE8F4
00CCE930
03C27800
01AE7100
0CEAF200
5F57F000
8F0AD081
7F8FE9D0
2DD5DC20
ENDCHAR
STARTCHAR uni1EAA
ENCODING 7850
SWIDTH 786 0
DWIDTH 9 0
BBX 11 18 0 0
BITMAP
000000630420
000006FF7E50
00000B7BFA00
000000CFA000
000006F7F100
00000B71D300
000000000000
00006BEFEA00
001BFC98AA00
00BF60097000
06F7001FA000
0CE0004F7000
2FA0007F4000
4F7000BF1000
5F7002FF0000
3FA009FF01A0
0CF9ADBF9CA0
02BEC32CE910
ENDCHAR
STARTCHAR uni1EAB
ENCODING 7851
SWIDTH 470 0
DWIDTH 6 0
BBX 8 12 0 0
BITMAP
008D4940
01D5CC00
0019A000
00ACE600
03E28900
00000000
01AE7100
0CEAF200
5F57F000
8F0AD081
7F8FE9D0
2DD5DC20
ENDCHAR
STARTCHAR uni1EAC
ENCODING 7852
SWIDTH 786 0
DWIDTH 9 0
BBX 11 19 0 -3
BITMAP
000000162000
000000CFA000
000006F7F100
00000B71D300
000000000000
00006BEFEA00
001BFC98AA00
00BF60097000
06F7001FA000
0CE0004F7000
2FA0007F4000
4F7000BF1000
5F7002FF0000
3FA009FF01A0
0CF9ADBF9CA0
02BEC32CE910
000000000000
0008F5000000
0008E3000000
ENDCHAR
STARTCHAR uni1EAD
ENCODING 7853
SWIDTH 470 0
DWIDTH 6 0
BBX 8 14 0 -3
BITMAP
0009D100
004EE400
00D7B800
04D18900
00000000
01AE7100
0CEAF200
5F57F000
8F0AD081
7F8FE9D0
2DD5DC20
00000000
08E30000
09E30000
ENDCHAR
STARTCHAR uni1EAE
ENCODING 7854
SWIDTH 786 0
DWIDTH 9 0
BBX 11 16 0 0
BITMAP
00000002D300
0000020A8200
00001F72AC00
000009FFE400
000000241000
00006BEFEA00
001BFC98AA00
00BF60097000
06F7001FA000
0CE0004F7000
2FA0007F4000
4F7000BF1000
5F7002FF0000
3FA009FF01A0
0CF9ADBF9CA0
02BEC32CE910
ENDCHAR
STARTCHAR uni1EAF
ENCODING 7855
SWIDTH 470 0
DWIDTH 6 0
BBX 8 11 0 0
BITMAP
00008A00
0114B500
08D35E40
03EFFA00
00143000
01AE7100
0CEAF200
5F57F000
8F0AD081
7F8FE9D0
2DD5DC20
ENDCHAR
STARTCHAR uni1EB0
ENCODING 7856
SWIDTH 786 0
DWIDTH 9 0
BBX 11 16 0 0
BITMAP
000003D20000
0000028B0100
00001F619C00
000008FFE400
000000130000
00006BEFEA00
001BFC98AA00
00BF60097000
06F7001FA000
0CE0004F7000
2FA0007F4000
4F7000BF1000
5F7002FF0000
3FA009FF01A0
0CF9ADBF9CA0
02BEC32CE910
ENDCHAR
STARTCHAR uni1EB1
ENCODING 7857
SWIDTH 470 0
DWIDTH 6 0
BBX 8 11 0 0
BITMAP
00A80000
015C5100
08D24E40
02DFFA00
00032000
01AE7100
0CEAF200
5F57F000
8F0AD081
7F8FE9D0
2DD5DC20
ENDCHAR
STARTCHAR uni1EB2
ENCODING 7858
SWIDTH 786 0
DWIDTH 9 0
BBX 11 18 0 0
BITMAP
000000010000
0000009F6000
0000003AA000
0000014F6100
00001F86AC00
00000AFFE400
000000341000
00006BEFEA00
001BFC98AA00
00BF60097000
06F7001FA000
0CE0004F7000
2FA0007F4000
4F7000BF1000
5F7002FF0000
3FA009FF01A0
0CF9ADBF9CA0
02BEC32CE910
ENDCHAR
STARTCHAR uni1EB3
ENCODING 7859
SWIDTH 470 0
DWIDTH 6 0
BBX 8 13 0 0
BITMAP
00010000
002FD100
0005E200
001CD100
08D66E40
03EFFB00
00143000
01AE7100
0CEAF200
5F57F000
8F0AD081
7F8FE9D0
2DD5DC20
ENDCHAR
STARTCHAR uni1EB4
ENCODING 7860
SWIDTH 786 0
DWIDTH 9 0
BBX 11 17 0 0
BITMAP
000001A51A00
000009DEBC00
00000A23A500
00001F71AC00
000008FFE300
000000130000
00006BEFEA00
001BFC98AA00
00BF60097000
06F7001FA000
0CE0004F7000
2FA0007F4000
4F7000BF1000
5F7002FF0000
3FA009FF01A0
0CF9ADBF9CA0
02BEC32CE910
ENDCHAR
STARTCHAR uni1EB5
ENCODING 7861
SWIDTH 470 0
DWIDTH 6 0
BBX 8 12 0 0
BITMAP
006A1650
01FCDE40
03907A10
08D24E40
02DFF900
00031000
01AE7100
0CEAF200
5F57F000
8F0AD081
7F8FE9D0
2DD5DC20
ENDCHAR
STARTCHAR uni1EB6
ENCODING 7862
SWIDTH 786 0
DWIDTH 9 0
BBX 11 18 0 -3
BITMAP
000002000200
00001F72AC00
000009FFE400
000000341000
00006BEFEA00
001BFC98AA00
00BF60097000
06F7001FA000
0CE0004F7000
2FA0007F4000
4F7000BF1000
5F7002FF0000
3FA009FF01A0
0CF9ADBF9CA0
02BEC32CE910
000000000000
0008F5000000
0008E3000000
ENDCHAR
STARTCHAR uni1EB7
ENCODING 7863
SWIDTH 470 0
DWIDTH 6 0
BBX 8 13 0 -3
BITMAP
04600820
08F46F30
01DFF900
00042000
01AE7100
0CEAF200
5F57F000
8F0AD081
7F8FE9D0
2DD5DC20
00000000
08E30000
09E30000
ENDCHAR
STARTCHAR uni1EB8
ENCODING 7864
SWIDTH 686 0
DWIDTH 8 0
BBX 10 14 0 -3
BITMAP
0018DFD600
00CF96AF40
05F8001F80
06F5002F70
02FC310610
008FFA0000
1CE8520000
7F50000000
9F40000012
3FE9678BEA
03ADFEDB71
0000000000
000AE30000
000AE20000
ENDCHAR
STARTCHAR uni1EB9
ENCODING 7865
SWIDTH 393 0
DWIDTH 5 0
BBX 7 9 0 -3
BITMAP
05DE4000
3F9D9000
8E2D6000
9FD71930
5F97DD10
08EE9100
00000000
04E70000
04E60000
ENDCHAR
STARTCHAR uni1EBA
ENCODING 7866
SWIDTH 686 0
DWIDTH 8 0
BBX 10 16 0 0
BITMAP
0000010000
00004FE300
000015D700
00000DF300
0000032000
0018DFD600
00CF96AF40
05F8001F80
06F5002F70
02FC310610
008FFA0000
1CE8520000
7F50000000
9F40000012
3FE9678BEA
03ADFEDB71
ENDCHAR
STARTCHAR uni1EBB
ENCODING 7867
SWIDTH 393 0
DWIDTH 5 0
BBX 7 11 0 0
BITMAP
00010000
00BF9000
0038E000
006F9000
00130000
05DE4000
3F9D9000
8E2D6000
9FD71930
5F97DD10
08EE9100
ENDCHAR
STARTCHAR uni1EBC
ENCODING 7868
SWIDTH 686 0
DWIDTH 8 0
BBX 10 15 0 0
BITMAP
0000530330
0006FF7D50
000B65DA00
0000000000
0018DFD600
00CF96AF40
05F8001F80
06F5002F70
02FC310610
008FFA0000
1CE8520000
7F50000000
9F40000012
3FE9678BEA
03ADFEDB71
ENDCHAR
STARTCHAR uni1EBD
ENCODING 7869
SWIDTH 393 0
DWIDTH 5 0
BBX 7 10 0 0
BITMAP
02600600
0CFC8C00
2D19E400
00000000
05DE4000
3F9D9000
8E2D6000
9FD71930
5F97DD10
08EE9100
ENDCHAR
STARTCHAR uni1EBE
ENCODING 7870
SWIDTH 686 0
DWIDTH 8 0
BBX 10 17 0 0
BITMAP
0000000051
00000006F4
0000055520
00008CE400
0003E28900
0000000000
0018DFD600
00CF96AF40
05F8001F80
06F5002F70
02FC310610
008FFA0000
1CE8520000
7F50000000
9F40000012
3FE9678BEA
03ADFEDB71
ENDCHAR
STARTCHAR uni1EBF
ENCODING 7871
SWIDTH 393 0
DWIDTH 5 0
BBX 7 12 0 0
BITMAP
00000150
00001CC0
00273500
02DCC000
0A91E200
00000000
05DE4000
3F9D9000
8E2D6000
9FD71930
5F97DD10
08EE9100
ENDCHAR
STARTCHAR uni1EC0
ENCODING 7872
SWIDTH 686 0
DWIDTH 8 0
BBX 10 17 0 0
BITMAP
0015000000
004F600000
0002555000
00008CE400
0003E28900
0000000000
0018DFD600
00CF96AF40
05F8001F80
06F5002F70
02FC310610
008FFA0000
1CE8520000
7F50000000
9F40000012
3FE9678BEA
03ADFEDB71
ENDCHAR
STARTCHAR uni1EC1
ENCODING 7873
SWIDTH 393 0
DWIDTH 5 0
BBX 7 12 0 0
BITMAP
52000000
BD100000
05472000
02DCC000
0A91E200
00000000
05DE4000
3F9D9000
8E2D6000
9FD71930
5F97DD10
08EE9100
ENDCHAR
STARTCHAR uni1EC2
ENCODING 7874
SWIDTH 686 0
DWIDTH 8 0
BBX 10 16 0 0
BITMAP
0000000BE4
00000005C8
00002DE8F4
0000CCE820
0003C27700
0018DFD600
00CF96AF40
05F8001F80
06F5002F70
02FC310610
008FFA0000
1CE8520000
7F50000000
9F40000012
3FE9678BEA
03ADFEDB71
ENDCHAR
STARTCHAR uni1EC3
ENCODING 7875
SWIDTH 393 0
DWIDTH 5 0
BBX 7 11 0 0
BITMAP
00004EA0
000128F0
008F7EC0
05FBE410
0971C200
05DE4000
3F9D9000
8E2D6000
9FD71930
5F97DD10
08EE9100
ENDCHAR
STARTCHAR uni1EC4
ENCODING 7876
SWIDTH 686 0
DWIDTH 8 0
BBX 10 17 0 0
BITMAP
00008D4A40
0001D5CC00
0000199000
0000ACE600
0003E28900
0000000000
0018DFD600
00CF96AF40
05F8001F80
06F5002F70
02FC310610
008FFA0000
1CE8520000
7F50000000
9F40000012
3FE9678BEA
03ADFEDB71
ENDCHAR
STARTCHAR uni1EC5
ENCODING 7877
SWIDTH 393 0
DWIDTH 5 0
BBX 7 12 0 0
BITMAP
02DA3B00
0888E500
004B4000
03EBD000
0A91E200
00000000
05DE4000
3F9D9000
8E2D6000
9FD71930
5F97DD10
08EE9100
ENDCHAR
STARTCHAR uni1EC6
ENCODING 7878
SWIDTH 686 0
DWIDTH 8 0
BBX 10 19 0 -3
BITMAP
0000045000
00004FF200
0001D9C800
0004D17900
0000000000
0018DFD600
00CF96AF40
05F8001F80
06F5002F70
02FC310610
008FFA0000
1CE8520000
7F50000000
9F40000012
3FE9678BEA
03ADFEDB71
0000000000
000AE30000
000AE20000
ENDCHAR
STARTCHAR uni1EC7
ENCODING 7879
SWIDTH 393 0
DWIDTH 5 0
BBX 7 14 0 -3
BITMAP
003D6000
00CCC000
05E4F100
0B61E200
00000000
05DE4000
3F9D9000
8E2D6000
9FD71930
5F97DD10
08EE9100
00000000
04E70000
04E60000
ENDCHAR
STARTCHAR uni1EC8
ENCODING 7880
SWIDTH 495 0
DWIDTH 6 0
BBX 8 16 -1 0
BITMAP
00000100
0000CFA0
000039E0
00006F90
00001300
009FFFF8
0037FC62
0003F800
0005F600
0007F300
0009F100
000BE000
000DC000
001FA000
047FB500
2FFFFE20
ENDCHAR
STARTCHAR uni1EC9
ENCODING 7881
SWIDTH 246 0
DWIDTH 3 0
BBX 5 11 0 0
BITMAP
001000
0EF700
04AB00
09F600
022000
0C7000
2F6000
5F3000
6F1560
5F8E30
1DD400
ENDCHAR
STARTCHAR uni1ECA
ENCODING 7882
SWIDTH 495 0
DWIDTH 6 0
BBX 8 14 -1 -3
BITMAP
009FFFF8
0037FC62
0003F800
0005F600
0007F300
0009F100
000BE000
000DC000
001FA000
047FB500
2FFFFE20
00000000
007F5000
007E4000
ENDCHAR
STARTCHAR uni1ECB
ENCODING 7883
SWIDTH 246 0
DWIDTH 3 0
BBX 5 12 0 -3
BITMAP
001000
0BF300
023000
0C7000
2F6000
5F3000
6F1560
5F8E30
1DD400
000000
AE2000
BD1000
ENDCHAR
STARTCHAR uni1ECC
ENCODING 7884
SWIDTH 816 0
DWIDTH 10 0
BBX 10 14 0 -3
BITMAP
0005CEE800
007FB7AFA0
03FA000AF3
0AF10005F7
0EB00003F8
2F900004F7
3F800006F5
2FA0000BF1
0DE1004F80
06FC79FB10
005CFD7100
0000000000
0008F40000
0009E30000
ENDCHAR
STARTCHAR uni1ECD
ENCODING 7885
SWIDTH 451 0
DWIDTH 5 0
BBX 7 9 0 -3
BITMAP
05DE6000
3FAEF330
8F0AFFE0
9E05F410
5F8CA000
09EB1000
00000000
06E50000
06E40000
ENDCHAR
STARTCHAR uni1ECE
ENCODING 7886
SWIDTH 816 0
DWIDTH 10 0
BBX 10 16 0 0
BITMAP
0000011000
00001FF600
000005CA00
00000AF500
0000022000
0005CEE800
007FB7AFA0
03FA000AF3
0AF10005F7
0EB00003F8
2F900004F7
3F800006F5
2FA0000BF1
0DE1004F80
06FC79FB10
005CFD7100
ENDCHAR
STARTCHAR uni1ECF
ENCODING 7887
SWIDTH 451 0
DWIDTH 5 0
BBX 7 11 0 0
BITMAP
00010000
00CF9000
0039D000
006F8000
00130000
05DE6000
3FAEF330
8F0AFFE0
9E05F410
5F8CA000
09EB1000
ENDCHAR
STARTCHAR uni1ED0
ENCODING 7888
SWIDTH 816 0
DWIDTH 10 0
BBX 10 16 0 0
BITMAP
0000000033
00000003F7
0000046430
00005ED700
0001E46B00
0005CEE800
007FB7AFA0
03FA000AF3
0AF10005F7
0EB00003F8
2F900004F7
3F800006F5
2FA0000BF1
0DE1004F80
06FC79FB10
005CFD7100
ENDCHAR
STARTCHAR uni1ED1
ENCODING 7889
SWIDTH 451 0
DWIDTH 5 0
BBX 7 12 0 0
BITMAP
00000250
00001DB0
00274500
02ECB000
0B82E100
00000000
05DE6000
3FAEF330
8F0AFFE0
9E05F410
5F8CA000
09EB1000
ENDCHAR
STARTCHAR uni1ED2
ENCODING 7890
SWIDTH 816 0
DWIDTH 10 0
BBX 10 16 0 0
BITMAP
0006000000
002E900000
0001646000
00005ED700
0001E46B00
0005CEE800
007FB7AFA0
03FA000AF3
0AF10005F7
0EB00003F8
2F900004F7
3F800006F5
2FA0000BF1
0DE1004F80
06FC79FB10
005CFD7100
ENDCHAR
STARTCHAR uni1ED3
ENCODING 7891
SWIDTH 451 0
DWIDTH 5 0
BBX 7 12 0 0
BITMAP
51000000
CD100000
05472000
02ECB000
0B82E100
00000000
05DE6000
3FAEF330
8F0AFFE0
9E05F410
5F8CA000
09EB1000
ENDCHAR
STARTCHAR uni1ED4
ENCODING 7892
SWIDTH 816 0
DWIDTH 10 0
BBX 10 15 0 0
BITMAP
00000008E6
00000014AA
00001CF7F7
0000ADDA30
0005FFFF00
007FB7AFA0
03FA000AF3
0AF10005F7
0EB00003F8
2F900004F7
3F800006F5
2FA0000BF1
0DE1004F80
06FC79FB10
005CFD7100
ENDCHAR
STARTCHAR uni1ED5
ENCODING 7893
SWIDTH 451 0
DWIDTH 5 0
BBX 7 11 0 0
BITMAP
00004EA0
000128F0
008F7FB0
05FBE410
0A71C100
05DE6000
3FAEF330
8F0AFFE0
9E05F410
5F8CA000
09EB1000
ENDCHAR
STARTCHAR uni1ED6
ENCODING 7894
SWIDTH 816 0
DWIDTH 10 0
BBX 10 16 0 0
BITMAP
00006E6770
0000C5BD20
000007A100
00007ED800
0001E46B00
0005CEE800
007FB7AFA0
03FA000AF3
0AF10005F7
0EB00003F8
2F900004F7
3F800006F5
2FA0000BF1
0DE1004F80
06FC79FB10
005CFD7100
ENDCHAR
STARTCHAR uni1ED7
ENCODING 7895
SWIDTH 451 0
DWIDTH 5 0
BBX 7 12 0 0
BITMAP
02D94B00
0879E500
004B4000
03FBD000
0B82E100
00000000
05DE6000
3FAEF330
8F0AFFE0
9E05F410
5F8CA000
09EB1000
ENDCHAR
STARTCHAR uni1ED8
ENCODING 7896
SWIDTH 816 0
DWIDTH 10 0
BBX 10 19 0 -3
BITMAP
0000036000
00002EF500
0000BCAB00
0002E35C00
0000000000
0005CEE800
007FB7AFA0
03FA000AF3
0AF10005F7
0EB00003F8
2F900004F7
3F800006F5
2FA0000BF1
0DE1004F80
06FC79FB10
005CFD7100
0000000000
0008F40000
0009E30000
ENDCHAR
STARTCHAR uni1ED9
ENCODING 7897
SWIDTH 451 0
DWIDTH 5 0
BBX 7 14 0 -3
BITMAP
003E6000
00CCB000
06D5E000
0B62E100
00000000
05DE6000
3FAEF330
8F0AFFE0
9E05F410
5F8CA000
09EB1000
00000000
06E50000
06E40000
ENDCHAR
STARTCHAR uni1EDA
ENCODING 7898
SWIDTH 816 0
DWIDTH 10 0
BBX 11 15 0 0
BITMAP
00000008C000
000000AF9000
000006B31D30
000000006F30
0005CEFFFB00
007FB7AFE100
03FA000AF400
0AF10005F700
0EB00003F800
2F900004F700
3F800006F500
2FA0000BE100
0DE1004F8000
06FC79FB1000
005CFD710000
ENDCHAR
STARTCHAR uni1EDB
ENCODING 7899
SWIDTH 451 0
DWIDTH 5 0
BBX 7 11 0 0
BITMAP
0004D000
000BD000
002F3000
00670600
00006E00
05DFF700
3FAEE330
8F0AFFE0
9E05F410
5F8CA000
09EB1000
ENDCHAR
STARTCHAR uni1EDC
ENCODING 7900
SWIDTH 816 0
DWIDTH 10 0
BBX 11 15 0 0
BITMAP
004D40000000
002CF5000000
00006D101D30
000000006F30
0005CEFFFB00
007FB7AFE100
03FA000AF400
0AF10005F700
0EB00003F800
2F900004F700
3F800006F500
2FA0000BE100
0DE1004F8000
06FC79FB1000
005CFD710000
ENDCHAR
STARTCHAR uni1EDD
ENCODING 7901
SWIDTH 451 0
DWIDTH 5 0
BBX 7 11 0 0
BITMAP
2D200000
1E900000
05E10000
00940600
00006E00
05DFF700
3FAEE330
8F0AFFE0
9E05F410
5F8CA000
09EB1000
ENDCHAR
STARTCHAR uni1EDE
ENCODING 7902
SWIDTH 816 0
DWIDTH 10 0
BBX 11 16 0 0
BITMAP
000001100000
00001FF60000
000005CA0000
00000AF51D30
000002206F30
0005CEFFFB00
007FB7AFE100
03FA000AF400
0AF10005F700
0EB00003F800
2F900004F700
3F800006F500
2FA0000BE100
0DE1004F8000
06FC79FB1000
005CFD710000
ENDCHAR
STARTCHAR uni1EDF
ENCODING 7903
SWIDTH 451 0
DWIDTH 5 0
BBX 7 11 0 0
BITMAP
00110000
01EF5000
005BA000
00AF5600
00226E00
05DFF700
3FAEE330
8F0AFFE0
9E05F410
5F8CA000
09EB1000
ENDCHAR
STARTCHAR uni1EE0
ENCODING 7904
SWIDTH 816 0
DWIDTH 10 0
BBX 11 15 0 0
BITMAP
000045024000
0003FF9B8000
000893CC2D30
000000006F30
0005CEFFFB00
007FB7AFE100
03FA000AF400
0AF10005F700
0EB00003F800
2F900004F700
3F800006F500
2FA0000BE100
0DE1004F8000
06FC79FB1000
005CFD710000
ENDCHAR
STARTCHAR uni1EE1
ENCODING 7905
SWIDTH 451 0
DWIDTH 5 0
BBX 7 10 0 0
BITMAP
02504100
0CF7D200
2C3C9600
00006E00
05DFF700
3F9EE230
8E0AFFE0
9E05F310
5F8CA000
09EB1000
ENDCHAR
STARTCHAR uni1EE2
ENCODING 7906
SWIDTH 816 0
DWIDTH 10 0
BBX 11 16 0 -3
BITMAP
000000001D30
000000006F30
0005CEFFFB00
007FB7AFE100
03FA000AF400
0AF10005F700
0EB00003F800
2F900004F700
3F800006F500
2FA0000BE100
0DE1004F8000
06FC79FB1000
005CFD710000
000000000000
0008F4000000
0009E3000000
ENDCHAR
STARTCHAR uni1EE3
ENCODING 7907
SWIDTH 451 0
DWIDTH 5 0
BBX 7 11 0 -3
BITMAP
00000600
00006E00
05DFF700
3FAEE330
8F0AFFE0
9E05F410
5F8CA000
09EB1000
00000000
06E50000
06E40000
ENDCHAR
STARTCHAR uni1EE4
ENCODING 7908
SWIDTH 890 0
DWIDTH 11 0
BBX 13 14 0 -3
BITMAP
06DE40007D0000
7E7FA000BF0000
D20FB000DD0000
102F9001FB0000
005F6004F90000
008F3008F60000
00BF000DF40000
00EC005DF20000
00FB02D9F20920
00EFAE77FCCD00
005ED701BEB200
00000000000000
0000DD10000000
0000DC00000000
ENDCHAR
STARTCHAR uni1EE5
ENCODING 7909
SWIDTH 462 0
DWIDTH 6 0
BBX 7 9 0 -3
BITMAP
0B81D300
1F55F100
5F2AD000
6F3FA0A0
6FEDCAB0
1D96EA10
00000000
05E70000
05E60000
ENDCHAR
STARTCHAR uni1EE6
ENCODING 7910
SWIDTH 890 0
DWIDTH 11 0
BBX 13 16 0 0
BITMAP
00000010000000
000007FD100000
0000026F400000
000001FE100000
00000041000000
06DE40007D0000
7E7FA000BF0000
D20FB000DD0000
102F9001FB0000
005F6004F90000
008F3008F60000
00BF000DF40000
00EC005DF20000
00FB02D9F20920
00EFAE77FCCD00
005ED701BEB200
ENDCHAR
STARTCHAR uni1EE7
ENCODING 7911
SWIDTH 462 0
DWIDTH 6 0
BBX 7 11 0 0
BITMAP
00010000
006FD100
0026E400
001FD100
00031000
0B81D300
1F55F100
5F2AD000
6F3FA0A0
6FEDCAB0
1D96EA10
ENDCHAR
STARTCHAR uni1EE8
ENCODING 7912
SWIDTH 890 0
DWIDTH 11 0
BBX 13 15 0 0
BITMAP
00000002C70000
0000003EE40000
000000C8105B00
0000000001CC00
06DE40007FF500
7E7FA000BF3000
D20FB000DD0000
102F9001FB0000
005F6004F80000
008F3008F60000
00BF000DF40000
00EC005DF20000
00FB02D9F20920
00EFAE77FCCD00
005ED701BEB200
ENDCHAR
STARTCHAR uni1EE9
ENCODING 7913
SWIDTH 512 0
DWIDTH 6 0
BBX 8 11 0 0
BITMAP
0000A800
0002F700
0007C000
000B2240
000009B0
0B81DF50
1F55F200
5F2AD000
6F3FB038
6FEDD7E5
1D95ED50
ENDCHAR
STARTCHAR uni1EEA
ENCODING 7914
SWIDTH 890 0
DWIDTH 11 0
BBX 13 15 0 0
BITMAP
0009B100000000
0006EC10000000
000029A0005B00
0000000001CC00
06DE40007FF500
7E7FA000BF3000
D20FB000DD0000
102F9001FB0000
005F6004F80000
008F3008F60000
00BF000DF40000
00EC005DF20000
00FB02D9F20920
00EFAE77FCCD00
005ED701BEB200
ENDCHAR
STARTCHAR uni1EEB
ENCODING 7915
SWIDTH 512 0
DWIDTH 6 0
BBX 8 11 0 0
BITMAP
07B00000
06F30000
00B90000
002C0240
000009B0
0B81DF50
1F55F200
5F2AD000
6F3FB038
6FEDD7E5
1D95ED50
ENDCHAR
STARTCHAR uni1EEC
ENCODING 7916
SWIDTH 890 0
DWIDTH 11 0
BBX 13 16 0 0
BITMAP
00000010000000
000007FD100000
0000026F400000
000001FE105B00
0000004101CC00
06DE40007FF500
7E7FA000BF3000
D20FB000DD0000
102F9001FB0000
005F6004F80000
008F3008F60000
00BF000DF40000
00EC005DF20000
00FB02D9F20920
00EFAE77FCCD00
005ED701BEB200
ENDCHAR
STARTCHAR uni1EED
ENCODING 7917
SWIDTH 512 0
DWIDTH 6 0
BBX 8 11 0 0
BITMAP
00010000
006FD100
0026E400
001FD240
000319B0
0B81DF50
1F55F200
5F2AD000
6F3FB038
6FEDD7E5
1D95ED50
ENDCHAR
STARTCHAR uni1EEE
ENCODING 7918
SWIDTH 890 0
DWIDTH 11 0
BBX 13 15 0 0
BITMAP
00001620510000
00009FE6F20000
0000D37E805B00
0000000001CC00
06DE40007FF500
7E7FA000BF3000
D20FB000DD0000
102F9001FB0000
005F6004F80000
008F3008F60000
00BF000DF40000
00EC005DF20000
00FB02D9F20920
00EFAE77FCCD00
005ED701BEB200
ENDCHAR
STARTCHAR uni1EEF
ENCODING 7919
SWIDTH 512 0
DWIDTH 6 0
BBX 8 10 0 0
BITMAP
00520500
03FE6B00
0777E540
000009B0
0B81DF50
1F55F200
5F2AD000
6F3FB038
6FEDD7E5
1D95ED50
ENDCHAR
STARTCHAR uni1EF0
ENCODING 7920
SWIDTH 890 0
DWIDTH 11 0
BBX 13 16 0 -3
BITMAP
00000000005B00
0000000001CC00
06DE40007FF500
7E7FA000BF3000
D20FB000DD0000
102F9001FB0000
005F6004F80000
008F3008F60000
00BF000DF40000
00EC005DF20000
00FB02D9F20920
00EFAE77FCCD00
005ED701BEB200
00000000000000
0000DD10000000
0000DC00000000
ENDCHAR
STARTCHAR uni1EF1
ENCODING 7921
SWIDTH 512 0
DWIDTH 6 0
BBX 8 11 0 -3
BITMAP
00000240
000009B0
0B81DF50
1F55F200
5F2AD000
6F3FB038
6FEDD7E5
1D95ED50
00000000
05E70000
05E60000
ENDCHAR
STARTCHAR Ygrave
ENCODING 7922
SWIDTH 851 0
DWIDTH 10 0
BBX 12 20 0 -5
BITMAP
0007C2000000
0004ED300000
000018C00000
000000000000
06DE40007D00
7E7FB000BF00
D20FA000ED00
002F9002FB00
005F6006F900
008F300BF700
00AF104EF500
009F54D8F200
003EFE58FCE7
000144AFFA61
00008FEEB000
0007F81E8000
000E903F4000
001F93CC0000
000AFFD20000
000033000000
ENDCHAR
STARTCHAR ygrave
ENCODING 7923
SWIDTH 479 0
DWIDTH 6 0
BBX 7 17 0 -6
BITMAP
07B00000
06F30000
00B90000
002C0000
00000000
0B81D300
1F55F200
5F2AE000
6F3FC2B0
6FEEDE90
1DACE500
009F5000
09DF2000
5C7D0000
D4B90000
F9F30000
AE700000
ENDCHAR
STARTCHAR uni1EF4
ENCODING 7924
SWIDTH 851 0
DWIDTH 10 0
BBX 12 16 0 -5
BITMAP
06DE40007D00
7E7FB000BF00
D20FA000ED00
002F9002FB00
005F6006F900
008F300BF700
00AF104EF500
009F54D8F200
003EFE58FCE7
000144AFFA61
00008FEEB000
0007F81E8000
000E903F4000
001F93CCCE10
000AFFD2CD10
000033000000
ENDCHAR
STARTCHAR uni1EF5
ENCODING 7925
SWIDTH 479 0
DWIDTH 6 0
BBX 7 12 0 -6
BITMAP
0B81D300
1F55F200
5F2AE000
6F3FC2B0
6FEEDE90
1DACE500
009F5000
09DF2000
5C7D0000
D4B90000
F9F7E700
AE75E600
ENDCHAR
STARTCHAR uni1EF6
ENCODING 7926
SWIDTH 851 0
DWIDTH 10 0
BBX 12 21 0 -5
BITMAP
000000100000
000004FE3000
0000015D6000
000000EE2000
000000310000
06DE40007D00
7E7FB000BF00
D20FA000ED00
002F9002FB00
005F6006F900
008F300BF700
00AF104EF500
009F54D8F200
003EFE58FCE7
000144AFFA61
00008FEEB000
0007F81E8000
000E903F4000
001F93CC0000
000AFFD20000
000033000000
ENDCHAR
STARTCHAR uni1EF7
ENCODING 7927
SWIDTH 479 0
DWIDTH 6 0
BBX 7 17 0 -6
BITMAP
00010000
006FD100
0026E400
001FD100
00031000
0B81D300
1F55F200
5F2AE000
6F3FC2B0
6FEEDE90
1DACE500
009F5000
09DF2000
5C7D0000
D4B90000
F9F30000
AE700000
ENDCHAR
STARTCHAR uni1EF8
ENCODING 7928
SWIDTH 851 0
DWIDTH 10 0
BBX 12 20 0 -5
BITMAP
000006304200
00007FF7E500
0000B55DA000
000000000000
06DE40007D00
7E7FB000BF00
D20FA000ED00
002F9002FB00
005F6006F900
008F300BF700
00AF104EF500
009F54D8F200
003EFE58FCE7
000144AFFA61
00008FEEB000
0007F81E8000
000E903F4000
001F93CC0000
000AFFD20000
000033000000
ENDCHAR
STARTCHAR uni1EF9
ENCODING 7929
SWIDTH 479 0
DWIDTH 6 0
BBX 7 16 0 -6
BITMAP
00620510
08FE6E20
0C46E800
00000000
0B81D300
1F55F200
5F2AE000
6F3FC2B0
6FEEDE90
1DACE500
009F5000
09DF2000
5C7D0000
D4B90000
F9F30000
AE700000
ENDCHAR
STARTCHAR endash
ENCODING 8211
SWIDTH 484 0
DWIDTH 6 0
BBX 6 3 0 2
BITMAP
012210
4FFFF4
044440
ENDCHAR
STARTCHAR emdash
ENCODING 8212
SWIDTH 620 0
DWIDTH 7 0
BBX 7 3 0 2
BITMAP
01222210
4FFFFFE0
04444430
ENDCHAR
STARTCHAR quoteleft
ENCODING 8216
SWIDTH 237 0
DWIDTH 3 0
BBX 3 5 1 7
BITMAP
0B50
3F40
8F20
BF10
3500
ENDCHAR
STARTCHAR quoteright
ENCODING 8217
SWIDTH 236 0
DWIDTH 3 0
BBX 3 5 1 7
BITMAP
2E50
5F70
6F20
9B00
3200
ENDCHAR
STARTCHAR quotesinglbase
ENCODING 8218
SWIDTH 257 0
DWIDTH 3 0
BBX 3 5 0 -2
BITMAP
1710
7F50
8F30
AC00
B500
ENDCHAR
STARTCHAR quotedblleft
ENCODING 8220
SWIDTH 457 0
DWIDTH 5 0
BBX 5 5 1 7
BITMAP
0B52D0
3F48E0
8F2EC0
BF2FB0
350520
ENDCHAR
STARTCHAR quotedblright
ENCODING 8221
SWIDTH 456 0
DWIDTH 5 0
BBX 6 5 1 7
BITMAP
2E57E1
5F7BF1
6F2CC0
9B0E60
320500
ENDCHAR
STARTCHAR quotedblbase
ENCODING 8222
SWIDTH 477 0
DWIDTH 6 0
BBX 5 5 0 -2
BITMAP
171350
7F5CE0
8F3EC0
AC0F70
B51D10
ENDCHAR
STARTCHAR dagger
ENCODING 8224
SWIDTH 588 0
DWIDTH 7 0
BBX 6 9 1 3
BITMAP
001E20
015F21
5FFFFD
14AD42
00AA00
00C800
00E700
01F500
01D200
ENDCHAR
STARTCHAR daggerdbl
ENCODING 8225
SWIDTH 588 0
DWIDTH 7 0
BBX 6 9 1 3
BITMAP
001E20
015F21
5FFFFD
14AC42
009A00
02BA20
BFFFF7
24F841
01E200
ENDCHAR
STARTCHAR bullet
ENCODING 8226
SWIDTH 512 0
DWIDTH 6 0
BBX 4 4 1 1
BITMAP
3DE6
AFFE
BFFD
4EE5
ENDCHAR
STARTCHAR ellipsis
ENCODING 8230
SWIDTH 777 0
DWIDTH 9 0
BBX 9 3 0 0
BITMAP
0200200100
8F76F94FA0
7E55E64E80
ENDCHAR
STARTCHAR perthousand
ENCODING 8240
SWIDTH 1277 0
DWIDTH 15 0
BBX 16 10 0 0
BITMAP
06EB101B40000000
2F7F84CF30000000
6E1DFFFA00000000
4F2D79F200000000
0BFB2E9000000000
00109E28EB02CE60
0002F85E4E6BA7F0
0009E18C0B8E63F2
002F706E3E5D98D0
003D101BE904ED40
ENDCHAR
STARTCHAR guilsinglleft
ENCODING 8249
SWIDTH 350 0
DWIDTH 4 0
BBX 4 5 0 1
BITMAP
02B8
4ED3
9F20
2DD2
02C6
ENDCHAR
STARTCHAR guilsinglright
ENCODING 8250
SWIDTH 350 0
DWIDTH 4 0
BBX 4 5 0 1
BITMAP
3D30
1BE4
01DC
1BF6
5D30
ENDCHAR
STARTCHAR fraction
ENCODING 8260
SWIDTH 200 0
DWIDTH 2 0
BBX 5 8 -1 1
BITMAP
0004C0
000DA0
007F20
01E800
09D100
3F6000
BC0000
D30000
ENDCHAR
STARTCHAR uni2074
ENCODING 8308
SWIDTH 450 0
DWIDTH 5 0
BBX 5 6 1 4
BITMAP
06C000
0E7810
6E5F10
B97D00
DFFF80
13A900
ENDCHAR
STARTCHAR colonmonetary
ENCODING 8353
SWIDTH 517 0
DWIDTH 6 0
BBX 7 11 0 -2
BITMAP
00003250
0016C890
03EEFF20
0DAB7F10
3F6AB600
5FC69000
5FBA2400
1ECDAB00
2DEFB200
87B00000
52300000
ENDCHAR
STARTCHAR franc
ENCODING 8355
SWIDTH 750 0
DWIDTH 9 0
BBX 9 9 0 0
BITMAP
0122221000
0FFFFFF500
0BC4443000
0D90005E20
0FFFE5FF30
2F74FC9FB0
4F33FE1D60
6F13F90000
5D01E30000
ENDCHAR
STARTCHAR lira
ENCODING 8356
SWIDTH 525 0
DWIDTH 6 0
BBX 7 8 0 0
BITMAP
00001000
01BFFC10
0AE76B20
7FFF7000
2EB61000
AFFF5000
3FDA6500
AFFFFD00
ENDCHAR
STARTCHAR uni20A6
ENCODING 8358
SWIDTH 672 0
DWIDTH 8 0
BBX 8 8 0 0
BITMAP
01600061
05F501F6
07FD02F5
0AEF75F4
7FFFFFFB
AFFFFFFB
3F948FC2
1E400B70
ENDCHAR
STARTCHAR peseta
ENCODING 8359
SWIDTH 1085 0
DWIDTH 13 0
BBX 13 9 0 0
BITMAP
00100001000000
3DFF803F200000
3DC8F46F000000
0D80FFFFF95D00
1F61F9DC61CB00
3F6AE1D803FE10
5FEB20E70A9E90
7F0000CB8D4CB0
6C00005EC2DD40
ENDCHAR
STARTCHAR uni20A9
ENCODING 8361
SWIDTH 775 0
DWIDTH 9 0
BBX 10 8 0 0
BITMAP
0222222221
7FFFFFFFF8
2CC6FD6DB2
9FFFFFFFF7
2AC9FC7F51
07CBBCAA00
06EE6EF300
02E72E8000
ENDCHAR
STARTCHAR dong
ENCODING 8363
SWIDTH 463 0
DWIDTH 6 0
BBX 7 13 0 -3
BITMAP
00007D00
0122BD00
0DFFFF60
0344FA10
02BEF500
1DDAF200
6F48E000
9E0CD000
8F8FC000
2DBA9000
12222000
DFFFF400
34444000
ENDCHAR
STARTCHAR Euro
ENCODING 8364
SWIDTH 552 0
DWIDTH 7 0
BBX 7 9 0 0
BITMAP
00001000
005DFC10
03F95E60
0AD20D70
8FFF4410
BFFF3000
3DC40320
08F88E20
009ED600
ENDCHAR
STARTCHAR uni20AD
ENCODING 8365
SWIDTH 590 0
DWIDTH 7 0
BBX 8 8 0 0
BITMAP
01600250
06F00CB0
08D06F30
0AB6E600
AFFFFFB0
0F7BD100
3F42FB61
3E206ED2
ENDCHAR
STARTCHAR uni20AE
ENCODING 8366
SWIDTH 513 0
DWIDTH 6 0
BBX 7 8 0 0
BITMAP
00122100
2EFFFF30
056F5410
006F9000
0ADD7100
05DC5000
02D70000
00D40000
ENDCHAR
STARTCHAR uni20B1
ENCODING 8369
SWIDTH 557 0
DWIDTH 7 0
BBX 7 8 0 0
BITMAP
02674000
0EFBF800
9FFFFFC0
FFFFFFC0
3DCAF720
0EFC5000
1F600000
1E300000
ENDCHAR
STARTCHAR uni20B2
ENCODING 8370
SWIDTH 599 0
DWIDTH 7 0
BBX 7 11 0 -2
BITMAP
00048000
00087000
02DFFB00
0CDC7F40
3F5B2E30
5F2C0100
5F3C6FC0
1EDD8EB0
04DFCC90
00670850
00320000
ENDCHAR
STARTCHAR uni20B4
ENCODING 8372
SWIDTH 570 0
DWIDTH 7 0
BBX 7 9 0 0
BITMAP
00010000
04DFE400
0CB5CC00
0532AD00
3FFFFF60
8FFFFF70
2DC44810
0EB6AF10
05DFC400
ENDCHAR
STARTCHAR uni20B5
ENCODING 8373
SWIDTH 517 0
DWIDTH 6 0
BBX 7 11 0 -2
BITMAP
00048000
00189100
02DFFB00
0CBB7F10
3F4C3A00
5F2D0000
5F4C0200
1EDC8C00
04DFC200
00670000
00320000
ENDCHAR
STARTCHAR uni20B8
ENCODING 8376
SWIDTH 522 0
DWIDTH 6 0
BBX 7 8 0 0
BITMAP
00122100
2EFFFF30
05666510
5FFFFE00
159D4400
009A0000
00C80000
00C50000
ENDCHAR
STARTCHAR uni20B9
ENCODING 8377
SWIDTH 511 0
DWIDTH 6 0
BBX 7 7 0 0
BITMAP
3DEEDD40
5DDFED20
005F4000
8FE30000
02DA0000
005F4100
0009FB00
ENDCHAR
STARTCHAR uni20BA
ENCODING 8378
SWIDTH 452 0
DWIDTH 5 0
BBX 6 8 0 0
BITMAP
016000
08F330
0AFC20
4EDB30
4ED300
9F6052
1F98E3
0CEA20
ENDCHAR
STARTCHAR uni20BC
ENCODING 8380
SWIDTH 673 0
DWIDTH 8 0
BBX 8 9 0 0
BITMAP
00008400
0001C400
005EFF50
03FBECE0
0BE3C4F3
2F84A1F6
6F3591F7
AE0771F7
B90851E4
ENDCHAR
STARTCHAR uni20BD
ENCODING 8381
SWIDTH 505 0
DWIDTH 6 0
BBX 6 9 0 0
BITMAP
000100
09FFC2
0BF6EA
07E09D
09C0BB
0CB8F5
9FFD50
BFFF30
4E7400
ENDCHAR
STARTCHAR uni2116
ENCODING 8470
SWIDTH 1198 0
DWIDTH 14 0
BBX 14 11 1 0
BITMAP
0AA18EE502CE60
0EAAC7EE0AD9F1
2FCD10BF0D72F3
4FF400CE0C96F1
6FD000EB06FF70
8F7002F9024410
AF4004F66FFFA0
CF0006F4144410
ED0009F2000000
FB000BF1000000
D60009C0000000
ENDCHAR
STARTCHAR trademark
ENCODING 8482
SWIDTH 1150 0
DWIDTH 14 0
BBX 13 5 1 5
BITMAP
9EFF8B8DD4DE10
05D00EB2EB2F30
08A01F50F52F10
0A803F13F15D00
0B503C04C06A00
ENDCHAR
STARTCHAR partialdiff
ENCODING 8706
SWIDTH 451 0
DWIDTH 5 0
BBX 6 11 0 -1
BITMAP
031000
0BE600
007F60
000AE1
0004F5
07EEF6
4F76F6
8E03F3
7F2AD0
1DFE40
002100
ENDCHAR
STARTCHAR product
ENCODING 8719
SWIDTH 700 0
DWIDTH 8 0
BBX 9 12 0 -1
BITMAP
0011111100
00EFFFFF20
02F8449F10
04F3009E00
06F100BC00
08E000DA00
0AC000F800
0CA002F600
0E8004F400
2F6006F200
3F3008E000
0300012000
ENDCHAR
STARTCHAR summation
ENCODING 8721
SWIDTH 700 0
DWIDTH 8 0
BBX 9 12 0 -1
BITMAP
0011111100
03FFFFFF30
00CF644400
002EC10000
0003EB0000
00005F7000
00005F8000
0006F80000
008F700000
09F7111000
3FFFFFF200
0444443000
ENDCHAR
STARTCHAR minus
ENCODING 8722
SWIDTH 700 0
DWIDTH 8 0
BBX 7 2 1 2
BITMAP
CFFFFF70
23333200
ENDCHAR
STARTCHAR uni2215
ENCODING 8725
SWIDTH 700 0
DWIDTH 8 0
BBX 7 12 1 0
BITMAP
00000240
00000CB0
00005F50
0000CC00
0005F400
000DB000
006F4000
00DB0000
07F30000
1EA00000
7F200000
99000000
ENDCHAR
STARTCHAR uni2219
ENCODING 8729
SWIDTH 700 0
DWIDTH 8 0
BBX 3 2 3 2
BITMAP
7B20
BE30
ENDCHAR
STARTCHAR radical
ENCODING 8730
SWIDTH 700 0
DWIDTH 8 0
BBX 9 11 0 0
BITMAP
0000000490
0000000B90
0000003F30
0000009B00
000001F400
4FE207C000
03C70E6000
008B5E0000
003FC70000
000DE10000
0005600000
ENDCHAR
STARTCHAR infinity
ENCODING 8734
SWIDTH 700 0
DWIDTH 8 0
BBX 9 5 0 0
BITMAP
1AEB5CE700
7E4CF78F20
8D19F36F10
2DFC9FF700
0020011000
ENDCHAR
STARTCHAR integral
ENCODING 8747
SWIDTH 700 0
DWIDTH 8 0
BBX 8 16 0 -4
BITMAP
00001BFE
00009E62
0000DB00
0000E900
0001F700
0003F500
0005F400
0007F200
0009F000
000AD000
000CB000
000EA000
001F8000
017F5000
5FFA0000
03200000
ENDCHAR
STARTCHAR approxequal
ENCODING 8776
SWIDTH 700 0
DWIDTH 8 0
BBX 8 6 0 0
BITMAP
02CD607B
0BC7FDF8
05203DC1
05E91052
1EDFD6F4
3D229E80
ENDCHAR
STARTCHAR notequal
ENCODING 8800
SWIDTH 700 0
DWIDTH 8 0
BBX 8 8 0 0
BITMAP
00000300
00003F20
0AFFFFF9
0136F431
0009B000
1EFFFFF4
02BB3320
00630000
ENDCHAR
STARTCHAR lessequal
ENCODING 8804
SWIDTH 700 0
DWIDTH 8 0
BBX 8 8 0 -1
BITMAP
00000388
0049DFD6
0BFC6200
07EFC720
00049EF4
01111240
2FFFFFF4
04444440
ENDCHAR
STARTCHAR greaterequal
ENCODING 8805
SWIDTH 700 0
DWIDTH 8 0
BBX 8 8 0 -1
BITMAP
04950000
04CFE940
00026DF9
0159DFC4
0EFB6100
04211110
2FFFFFF4
04444440
ENDCHAR
STARTCHAR lozenge
ENCODING 9674
SWIDTH 700 0
DWIDTH 8 0
BBX 7 12 1 0
BITMAP
00025000
000CF100
006EE500
01D89A00
07E15E00
1E601F40
5F001E50
1F308D00
0B82F400
06CAB000
02FF3000
00B80000
ENDCHAR
STARTCHAR fi
ENCODING 64257
SWIDTH 633 0
DWIDTH 8 0
BBX 10 17 0 -5
BITMAP
0005E80000
002FBD0000
009C5C0000
00E7880000
04F4E3EC00
08FC603100
8FFFFFE000
3EC66BE000
0E864AC000
0F797CA091
1F697CCAC0
1F7876EB10
0F79600000
0E8A400000
0CBD100000
07F9000000
0030000000
ENDCHAR
STARTCHAR fl
ENCODING 64258
SWIDTH 688 0
DWIDTH 8 0
BBX 10 17 0 -5
BITMAP
0009E30BD2
006EC87CD6
00D898D6B7
04F3B9F1C6
08E1E8D0E3
0CB78AB4D0
0EBC1C9A80
2FE30ECE10
4F522FF500
5FAFFF9004
5FA94CD7C9
6F7803DE80
5F6A000000
4F6B000000
2F9A000000
0CF5000000
0130000000
ENDCHAR
STARTCHAR .notdef
ENCODING -1
SWIDTH 265 0
DWIDTH 3 0
BBX 1 1 0 0
BITMAP
00
ENDCHAR
STARTCHAR Iacute_J.loclNLD
ENCODING -1
SWIDTH 776 0
DWIDTH 9 0
BBX 11 15 1 0
BITMAP
0005D2003D40
006FC105ED20
03D5001D6000
000000000000
0D70008B0000
3F9000CD0000
5F7000EB0000
7F5003FA0000
9F3008F90000
9F203EF70000
7FDAFAF50000
1AEE76F20000
10000CC00000
CC76BF400000
4CEFC4000000
ENDCHAR
STARTCHAR A.ss01
ENCODING -1
SWIDTH 780 0
DWIDTH 9 0
BBX 10 11 0 0
BITMAP
00006BEFDA
001BFC8663
00CF6009B0
06F7001FA0
0CE0004F70
2FA0007F40
4F8000BF20
5F7001FF00
3FA008FE00
0CF88EEC00
02BFC3D900
ENDCHAR
STARTCHAR Aacute.ss01
ENCODING -1
SWIDTH 780 0
DWIDTH 9 0
BBX 11 15 0 0
BITMAP
000000005D30
00000006FC10
0000002D5000
000000000000
00006BEFDA00
001BFC866300
00CF6009B000
06F7001FA000
0CE0004F7000
2FA0007F4000
4F8000BF2000
5F7001FF0000
3FA008FE0000
0CF88EEC0000
02BFC3D90000
ENDCHAR
STARTCHAR Abreve.ss01
ENCODING -1
SWIDTH 780 0
DWIDTH 9 0
BBX 10 15 0 0
BITMAP
0000020002
00001F72AC
000009FFE4
0000003410
00006BEFDA
001BFC8663
00CF6009B0
06F7001FA0
0CE0004F70
2FA0007F40
4F8000BF20
5F7001FF00
3FA008FE00
0CF88EEC00
02BFC3D900
ENDCHAR
STARTCHAR uni1EAE.ss01
ENCODING -1
SWIDTH 780 0
DWIDTH 9 0
BBX 10 16 0 0
BITMAP
00000002D3
0000020A82
00001F72AC
000009FFE4
0000002410
00006BEFDA
001BFC8663
00CF6009B0
06F7001FA0
0CE0004F70
2FA0007F40
4F8000BF20
5F7001FF00
3FA008FE00
0CF88EEC00
02BFC3D900
ENDCHAR
STARTCHAR uni1EB6.ss01
ENCODING -1
SWIDTH 780 0
DWIDTH 9 0
BBX 10 18 0 -3
BITMAP
0000020002
00001F72AC
000009FFE4
0000003410
00006BEFDA
001BFC8663
00CF6009B0
06F7001FA0
0CE0004F70
2FA0007F40
4F8000BF20
5F7001FF00
3FA008FE00
0CF88EEC00
02BFC3D900
0000000000
0008F50000
0008E30000
ENDCHAR
STARTCHAR uni1EB0.ss01
ENCODING -1
SWIDTH 780 0
DWIDTH 9 0
BBX 10 16 0 0
BITMAP
000003D200
0000028B01
00001F619C
000008FFE4
0000001300
00006BEFDA
001BFC8663
00CF6009B0
06F7001FA0
0CE0004F70
2FA0007F40
4F8000BF20
5F7001FF00
3FA008FE00
0CF88EEC00
02BFC3D900
ENDCHAR
STARTCHAR uni1EB2.ss01
ENCODING -1
SWIDTH 780 0
DWIDTH 9 0
BBX 10 18 0 0
BITMAP
0000000100
0000009F60
0000003AA0
0000014F61
00001F86AC
00000AFFE4
0000003410
00006BEFDA
001BFC8663
00CF6009B0
06F7001FA0
0CE0004F70
2FA0007F40
4F8000BF20
5F7001FF00
3FA008FE00
0CF88EEC00
02BFC3D900
ENDCHAR
STARTCHAR uni1EB4.ss01
ENCODING -1
SWIDTH 780 0
DWIDTH 9 0
BBX 10 17 0 0
BITMAP
000001A51A
000009DEBC
00000A23A5
00001F71AC
000008FFE3
0000001300
00006BEFDA
001BFC8663
00CF6009B0
06F7001FA0
0CE0004F70
2FA0007F40
4F8000BF20
5F7001FF00
3FA008FE00
0CF88EEC00
02BFC3D900
ENDCHAR
STARTCHAR Acircumflex.ss01
ENCODING -1
SWIDTH 780 0
DWIDTH 9 0
BBX 10 16 0 0
BITMAP
0000001620
000000CFA0
000006F7F1
00000B71D3
0000000000
00006BEFDA
001BFC8663
00CF6009B0
06F7001FA0
0CE0004F70
2FA0007F40
4F8000BF20
5F7001FF00
3FA008FE00
0CF88EEC00
02BFC3D900
ENDCHAR
STARTCHAR uni1EA4.ss01
ENCODING -1
SWIDTH 780 0
DWIDTH 9 0
BBX 11 17 0 0
BITMAP
000000000150
000000001CC0
000000273500
000002DCC000
00000A91E200
000000000000
00006BEFDA00
001BFC866300
00CF6009B000
06F7001FA000
0CE0004F7000
2FA0007F4000
4F8000BF2000
5F7001FF0000
3FA008FE0000
0CF88EEC0000
02BFC3D90000
ENDCHAR
STARTCHAR uni1EAC.ss01
ENCODING -1
SWIDTH 780 0
DWIDTH 9 0
BBX 10 19 0 -3
BITMAP
0000001620
000000CFA0
000006F7F1
00000B71D3
0000000000
00006BEFDA
001BFC8663
00CF6009B0
06F7001FA0
0CE0004F70
2FA0007F40
4F8000BF20
5F7001FF00
3FA008FE00
0CF88EEC00
02BFC3D900
0000000000
0008F50000
0008E30000
ENDCHAR
STARTCHAR uni1EA6.ss01
ENCODING -1
SWIDTH 780 0
DWIDTH 9 0
BBX 10 17 0 0
BITMAP
0000520000
0000BD1000
0000054720
000002DCC0
00000A91E2
0000000000
00006BEFDA
001BFC8663
00CF6009B0
06F7001FA0
0CE0004F70
2FA0007F40
4F8000BF20
5F7001FF00
3FA008FE00
0CF88EEC00
02BFC3D900
ENDCHAR
STARTCHAR uni1EA8.ss01
ENCODING -1
SWIDTH 780 0
DWIDTH 9 0
BBX 11 16 0 0
BITMAP
000000004EA0
0000000128F0
0000008F7EC0
000005FBE410
00000971C200
00006BEFDA00
001BFC866300
00CF6009B000
06F7001FA000
0CE0004F7000
2FA0007F4000
4F8000BF2000
5F7001FF0000
3FA008FE0000
0CF88EEC0000
02BFC3D90000
ENDCHAR
STARTCHAR uni1EAA.ss01
ENCODING -1
SWIDTH 780 0
DWIDTH 9 0
BBX 10 17 0 0
BITMAP
000002DA3B
00000888E5
0000004B40
000003EBD0
00000A91E2
0000000000
00006BEFDA
001BFC8663
00CF6009B0
06F7001FA0
0CE0004F70
2FA0007F40
4F8000BF20
5F7001FF00
3FA008FE00
0CF88EEC00
02BFC3D900
ENDCHAR
STARTCHAR uni0200.ss01
ENCODING -1
SWIDTH 780 0
DWIDTH 9 0
BBX 10 15 0 0
BITMAP
00002D2D30
00001E5D80
00000684A0
0000000000
00006BEFDA
001BFC8663
00CF6009B0
06F7001FA0
0CE0004F70
2FA0007F40
4F8000BF20
5F7001FF00
3FA008FE00
0CF88EEC00
02BFC3D900
ENDCHAR
STARTCHAR Adieresis.ss01
ENCODING -1
SWIDTH 780 0
DWIDTH 9 0
BBX 10 14 0 0
BITMAP
00000AC3F5
000009B3E4
0000000000
00006BEFDA
001BFC8663
00CF6009B0
06F7001FA0
0CE0004F70
2FA0007F40
4F8000BF20
5F7001FF00
3FA008FE00
0CF88EEC00
02BFC3D900
ENDCHAR
STARTCHAR uni1EA0.ss01
ENCODING -1
SWIDTH 780 0
DWIDTH 9 0
BBX 10 14 0 -3
BITMAP
00006BEFDA
001BFC8663
00CF6009B0
06F7001FA0
0CE0004F70
2FA0007F40
4F8000BF20
5F7001FF00
3FA008FE00
0CF88EEC00
02BFC3D900
0000000000
0008F50000
0008E30000
ENDCHAR
STARTCHAR Agrave.ss01
ENCODING -1
SWIDTH 780 0
DWIDTH 9 0
BBX 10 15 0 0
BITMAP
0000D80000
00009F9000
000003C600
0000000000
00006BEFDA
001BFC8663
00CF6009B0
06F7001FA0
0CE0004F70
2FA0007F40
4F8000BF20
5F7001FF00
3FA008FE00
0CF88EEC00
02BFC3D900
ENDCHAR
STARTCHAR uni1EA2.ss01
ENCODING -1
SWIDTH 780 0
DWIDTH 9 0
BBX 10 16 0 0
BITMAP
0000000100
000000BFA0
00000039F0
0000005FA0
0000001300
00006BEFDA
001BFC8663
00CF6009B0
06F7001FA0
0CE0004F70
2FA0007F40
4F8000BF20
5F7001FF00
3FA008FE00
0CF88EEC00
02BFC3D900
ENDCHAR
STARTCHAR uni0202.ss01
ENCODING -1
SWIDTH 780 0
DWIDTH 9 0
BBX 10 15 0 0
BITMAP
0000000100
000005EFE4
00000F95CC
0000030012
00006BEFDA
001BFC8663
00CF6009B0
06F7001FA0
0CE0004F70
2FA0007F40
4F8000BF20
5F7001FF00
3FA008FE00
0CF88EEC00
02BFC3D900
ENDCHAR
STARTCHAR Amacron.ss01
ENCODING -1
SWIDTH 780 0
DWIDTH 9 0
BBX 10 14 0 0
BITMAP
0000002210
000009FFF1
0000024430
00006BEFDA
001BFC8663
00CF6009B0
06F7001FA0
0CE0004F70
2FA0007F40
4F8000BF20
5F7001FF00
3FA008FE00
0CF88EEC00
02BFC3D900
ENDCHAR
STARTCHAR Aogonek.ss01
ENCODING -1
SWIDTH 780 0
DWIDTH 9 0
BBX 10 15 0 -4
BITMAP
00006BEFDA
001BFC8663
00CF6009B0
06F7001FA0
0CE0004F70
2FA0007F40
4F8000BF20
5F7001FF00
3FA008FE00
0CF88EEC00
02BFC4FA00
000008A000
00000C9200
000008FF40
0000003300
ENDCHAR
STARTCHAR Aring.ss01
ENCODING -1
SWIDTH 780 0
DWIDTH 9 0
BBX 10 16 0 0
BITMAP
0000000100
000000BFA0
000002F8F0
000001EFA0
0000001300
00006BEFDA
001BFC8663
00CF6009B0
06F7001FA0
0CE0004F70
2FA0007F40
4F8000BF20
5F7001FF00
3FA008FE00
0CF88EEC00
02BFC3D900
ENDCHAR
STARTCHAR Aringacute.ss01
ENCODING -1
SWIDTH 780 0
DWIDTH 9 0
BBX 12 17 0 0
BITMAP
000000000033
0000000103E9
000000BF9A70
000002F8F000
000001EFA000
000000130000
00006BEFDA00
001BFC866300
00CF6009B000
06F7001FA000
0CE0004F7000
2FA0007F4000
4F8000BF2000
5F7001FF0000
3FA008FE0000
0CF88EEC0000
02BFC3D90000
ENDCHAR
STARTCHAR Atilde.ss01
ENCODING -1
SWIDTH 780 0
DWIDTH 9 0
BBX 10 15 0 0
BITMAP
0000026006
00000DFC8D
00003D29E4
0000000000
00006BEFDA
001BFC8663
00CF6009B0
06F7001FA0
0CE0004F70
2FA0007F40
4F8000BF20
5F7001FF00
3FA008FE00
0CF88EEC00
02BFC3D900
ENDCHAR
STARTCHAR AE.ss01
ENCODING -1
SWIDTH 1057 0
DWIDTH 13 0
BBX 13 11 0 0
BITMAP
00007CE2CFFFC0
001CFC87F86630
00CF600AE00000
06F7000EC00000
0DE1003F900000
2FA0007FFFFE10
4F8000BF866400
5F7001FF200000
3FA008FF500000
0CF88F5EE86970
02BED503BEFC40
ENDCHAR
STARTCHAR AEacute.ss01
ENCODING -1
SWIDTH 1057 0
DWIDTH 13 0
BBX 13 15 0 0
BITMAP
0000000002C700
000000002DE400
00000000B81000
00000000000000
00007CE2CFFFC0
001CFC87F86630
00CF600AE00000
06F7000EC00000
0DE1003F900000
2FA0007FFFFE10
4F8000BF866400
5F7001FF200000
3FA008FF500000
0CF88F5EE86970
02BED503BEFC40
ENDCHAR
STARTCHAR B.ss01
ENCODING -1
SWIDTH 826 0
DWIDTH 10 0
BBX 9 11 1 0
BITMAP
06BEFEB400
0CA768EF40
0230003FA0
0DC0003F90
2F8014DE30
5F55FFB200
8F227CF600
AF0000ED00
CD0003FB00
ED679EE300
BEFED92000
ENDCHAR
STARTCHAR C.ss01
ENCODING -1
SWIDTH 704 0
DWIDTH 8 0
BBX 9 11 0 0
BITMAP
0004BED600
007FB7BF30
03FA003F60
0AF2004F40
0EB0000400
2F90000000
3F90000000
2FA0000000
0DE1000850
05FD77CD20
005CEE9100
ENDCHAR
STARTCHAR Cacute.ss01
ENCODING -1
SWIDTH 704 0
DWIDTH 8 0
BBX 9 15 0 0
BITMAP
00000009C0
000000AF80
000007B300
0000000000
0004BED600
007FB7BF30
03FA003F60
0AF2004F40
0EB0000400
2F90000000
3F90000000
2FA0000000
0DE1000850
05FD77CD20
005CEE9100
ENDCHAR
STARTCHAR Ccaron.ss01
ENCODING -1
SWIDTH 704 0
DWIDTH 8 0
BBX 9 15 0 0
BITMAP
0000B62E20
00007CB900
00001CB100
0000000000
0004BED600
007FB7BF30
03FA003F60
0AF2004F40
0EB0000400
2F90000000
3F90000000
2FA0000000
0DE1000850
05FD77CD20
005CEE9100
ENDCHAR
STARTCHAR Ccedilla.ss01
ENCODING -1
SWIDTH 704 0
DWIDTH 8 0
BBX 9 15 0 -4
BITMAP
0004BED600
007FC7BF30
03FB003F60
0AF2004F50
0EC0001600
2F90000000
3F90000000
1FA0000000
0CD0000540
04FA338E20
004EFE9100
00039C0000
00028D0000
007FF60000
0014200000
ENDCHAR
STARTCHAR Ccircumflex.ss01
ENCODING -1
SWIDTH 704 0
DWIDTH 8 0
BBX 9 16 0 0
BITMAP
0000036000
00002EF500
0000BCAA00
0002E35C00
0000000000
0004BED600
007FB7BF30
03FA003F60
0AF2004F40
0EB0000400
2F90000000
3F90000000
2FA0000000
0DE1000850
05FD77CD20
005CEE9100
ENDCHAR
STARTCHAR Cdotaccent.ss01
ENCODING -1
SWIDTH 704 0
DWIDTH 8 0
BBX 9 14 0 0
BITMAP
00001DD000
00001DC000
0000000000
0004BED600
007FB7BF30
03FA003F60
0AF2004F40
0EB0000400
2F90000000
3F90000000
2FA0000000
0DE1000850
05FD77CD20
005CEE9100
ENDCHAR
STARTCHAR D.ss01
ENCODING -1
SWIDTH 810 0
DWIDTH 10 0
BBX 9 11 1 0
BITMAP
07CEEB5000
1D978EF700
023001DF10
0DC0007F50
2F80005F70
5F50005F60
8F20007F40
BF0000DE00
DD0009F600
ED78DF8000
BEFDA40000
ENDCHAR
STARTCHAR uni01C4.ss01
ENCODING -1
SWIDTH 1455 0
DWIDTH 17 0
BBX 17 15 1 0
BITMAP
000000000000E34D00
000000000000A9D600
0000000000002E9000
000000000000000000
07CEEB5005DFFFFE80
1D978EF7026666BF90
023001DF100002EE20
0DC0007F50000BF600
2F80005F70007FB000
5F50005F6003FE1000
8F20007F401DF50000
BF0000DE009F900000
DD0009F606FD100000
ED78DF802EF9665400
BEFDA4005FFFFFFE10
ENDCHAR
STARTCHAR Eth.ss01
ENCODING -1
SWIDTH 821 0
DWIDTH 10 0
BBX 10 11 0 0
BITMAP
000BFEC600
004F97CF90
007F200CF3
00BD0005F8
01EB2002F9
AFFFFE03F8
29F74306F6
09F1000BF1
0BE0008F80
0DE67CF900
0AEFDB4000
ENDCHAR
STARTCHAR Dcaron.ss01
ENCODING -1
SWIDTH 810 0
DWIDTH 10 0
BBX 9 15 1 0
BITMAP
002E16B000
000C8E4000
0004E70000
0000000000
07CEEB5000
1D978EF700
023001DF10
0DC0007F50
2F80005F70
5F50005F60
8F20007F40
BF0000DE00
DD0009F600
ED78DF8000
BEFDA40000
ENDCHAR
STARTCHAR Dcroat.ss01
ENCODING -1
SWIDTH 821 0
DWIDTH 10 0
BBX 10 11 0 0
BITMAP
000BFEC600
004F97CF90
007F200CF3
00BD0005F8
01EB2002F9
AFFFFE03F8
29F74306F6
09F1000BF1
0BE0008F80
0DE67CF900
0AEFDB4000
ENDCHAR
STARTCHAR E.ss01
ENCODING -1
SWIDTH 720 0
DWIDTH 9 0
BBX 9 11 0 0
BITMAP
0019DFD600
01DE86BF40
08F6002F80
09F3002F70
04FB310610
008FFA0000
0BF8510000
5F70000000
7F60000750
2FE868DE20
03BEFD9200
ENDCHAR
STARTCHAR Eacute.ss01
ENCODING -1
SWIDTH 720 0
DWIDTH 9 0
BBX 9 15 0 0
BITMAP
0000001B80
000002DE50
00000B9100
0000000000
0019DFD600
01DE86BF40
08F6002F80
09F3002F70
04FB310610
008FFA0000
0BF8510000
5F70000000
7F60000750
2FE868DE20
03BEFD9200
ENDCHAR
STARTCHAR Ebreve.ss01
ENCODING -1
SWIDTH 720 0
DWIDTH 9 0
BBX 9 15 0 0
BITMAP
0001100200
000AC36F30
0004EFF900
0000142000
0019DFD600
01DE86BF40
08F6002F80
09F3002F70
04FB310610
008FFA0000
0BF8510000
5F70000000
7F60000750
2FE868DE20
03BEFD9200
ENDCHAR
STARTCHAR Ecaron.ss01
ENCODING -1
SWIDTH 720 0
DWIDTH 9 0
BBX 9 15 0 0
BITMAP
0000E25C00
0000B9E500
00003E8000
0000000000
0019DFD600
01DE86BF40
08F6002F80
09F3002F70
04FB310610
008FFA0000
0BF8510000
5F70000000
7F60000750
2FE868DE20
03BEFD9200
ENDCHAR
STARTCHAR Ecircumflex.ss01
ENCODING -1
SWIDTH 720 0
DWIDTH 9 0
BBX 9 16 0 0
BITMAP
0000054000
00006FF100
0001E8E600
0005C19800
0000000000
0019DFD600
01DE86BF40
08F6002F80
09F3002F70
04FB310610
008FFA0000
0BF8510000
5F70000000
7F60000750
2FE868DE20
03BEFD9200
ENDCHAR
STARTCHAR uni1EBE.ss01
ENCODING -1
SWIDTH 720 0
DWIDTH 9 0
BBX 10 17 0 0
BITMAP
0000000051
00000007F3
0000055520
00009CF300
0004D1A700
0000000000
0019DFD600
01DE86BF40
08F6002F80
09F3002F70
04FB310610
008FFA0000
0BF8510000
5F70000000
7F60000750
2FE868DE20
03BEFD9200
ENDCHAR
STARTCHAR uni1EC6.ss01
ENCODING -1
SWIDTH 720 0
DWIDTH 9 0
BBX 9 19 0 -3
BITMAP
0000054000
00006FF100
0001E8E600
0005C19800
0000000000
0019DFD600
01DE86BF40
08F6002F80
09F3002F70
04FB310610
008FFA0000
0BF8510000
5F70000000
7F60000750
2FE868DE20
03BEFD9200
0000000000
000DD00000
001DC00000
ENDCHAR
STARTCHAR uni1EC0.ss01
ENCODING -1
SWIDTH 720 0
DWIDTH 9 0
BBX 9 17 0 0
BITMAP
0024000000
005F500000
0003555000
00009CF300
0004D1A700
0000000000
0019DFD600
01DE86BF40
08F6002F80
09F3002F70
04FB310610
008FFA0000
0BF8510000
5F70000000
7F60000750
2FE868DE20
03BEFD9200
ENDCHAR
STARTCHAR uni1EC2.ss01
ENCODING -1
SWIDTH 720 0
DWIDTH 9 0
BBX 10 16 0 0
BITMAP
0000000CE3
00000006D6
00003ED9F3
0001DBF720
0004B18600
0019DFD600
01DE86BF40
08F6002F80
09F3002F70
04FB310610
008FFA0000
0BF8510000
5F70000000
7F60000750
2FE868DE20
03BEFD9200
ENDCHAR
STARTCHAR uni1EC4.ss01
ENCODING -1
SWIDTH 720 0
DWIDTH 9 0
BBX 9 17 0 0
BITMAP
00009D3B30
0002C5DB00
0000199000
0000BBF400
0004D1A700
0000000000
0019DFD600
01DE86BF40
08F6002F80
09F3002F70
04FB310610
008FFA0000
0BF8510000
5F70000000
7F60000750
2FE868DE20
03BEFD9200
ENDCHAR
STARTCHAR uni0204.ss01
ENCODING -1
SWIDTH 720 0
DWIDTH 9 0
BBX 9 15 0 0
BITMAP
000B689000
0009B7E000
0002D0C200
0000000000
0019DFD600
01DE86BF40
08F6002F80
09F3002F70
04FB310610
008FFA0000
0BF8510000
5F70000000
7F60000750
2FE868DE20
03BEFD9200
ENDCHAR
STARTCHAR Edieresis.ss01
ENCODING -1
SWIDTH 720 0
DWIDTH 9 0
BBX 9 14 0 0
BITMAP
0004F3BB00
0004E3BA00
0000000000
0019DFD600
01DE86BF40
08F6002F80
09F3002F70
04FB310610
008FFA0000
0BF8510000
5F70000000
7F60000750
2FE868DE20
03BEFD9200
ENDCHAR
STARTCHAR Edotaccent.ss01
ENCODING -1
SWIDTH 720 0
DWIDTH 9 0
BBX 9 14 0 0
BITMAP
00003E9000
00004E8000
0000000000
0019DFD600
01DE86BF40
08F6002F80
09F3002F70
04FB310610
008FFA0000
0BF8510000
5F70000000
7F60000750
2FE868DE20
03BEFD9200
ENDCHAR
STARTCHAR uni1EB8.ss01
ENCODING -1
SWIDTH 720 0
DWIDTH 9 0
BBX 9 14 0 -3
BITMAP
0019DFD600
01DE86BF40
08F6002F80
09F3002F70
04FB310610
008FFA0000
0BF8510000
5F70000000
7F60000750
2FE868DE20
03BEFD9200
0000000000
000DD00000
001DC00000
ENDCHAR
STARTCHAR Egrave.ss01
ENCODING -1
SWIDTH 720 0
DWIDTH 9 0
BBX 9 15 0 0
BITMAP
008C100000
004ED20000
00018B0000
0000000000
0019DFD600
01DE86BF40
08F6002F80
09F3002F70
04FB310610
008FFA0000
0BF8510000
5F70000000
7F60000750
2FE868DE20
03BEFD9200
ENDCHAR
STARTCHAR uni1EBA.ss01
ENCODING -1
SWIDTH 720 0
DWIDTH 9 0
BBX 9 16 0 0
BITMAP
0000010000
00005FE200
000016E500
00000FE200
0000031000
0019DFD600
01DE86BF40
08F6002F80
09F3002F70
04FB310610
008FFA0000
0BF8510000
5F70000000
7F60000750
2FE868DE20
03BEFD9200
ENDCHAR
STARTCHAR uni0206.ss01
ENCODING -1
SWIDTH 720 0
DWIDTH 9 0
BBX 9 15 0 0
BITMAP
0000011000
0002CFF900
0009D58F30
0002100300
0019DFD600
01DE86BF40
08F6002F80
09F3002F70
04FB310610
008FFA0000
0BF8510000
5F70000000
7F60000750
2FE868DE20
03BEFD9200
ENDCHAR
STARTCHAR Emacron.ss01
ENCODING -1
SWIDTH 720 0
DWIDTH 9 0
BBX 9 14 0 0
BITMAP
0000122000
0003FFF700
0000444100
0019DFD600
01DE86BF40
08F6002F80
09F3002F70
04FB310610
008FFA0000
0BF8510000
5F70000000
7F60000750
2FE868DE20
03BEFD9200
ENDCHAR
STARTCHAR Eogonek.ss01
ENCODING -1
SWIDTH 720 0
DWIDTH 9 0
BBX 9 15 0 -4
BITMAP
0019DFD600
01DE86BF40
08F6002F80
09F3002F70
04FB310610
008FFA0000
0BF8510000
5F70000000
7F60000750
2FE868DE20
03BEFE9200
0001E40000
0003F41000
0001DFD000
0000141000
ENDCHAR
STARTCHAR uni1EBC.ss01
ENCODING -1
SWIDTH 720 0
DWIDTH 9 0
BBX 9 15 0 0
BITMAP
0000620420
0007FE6E40
000C56E900
0000000000
0019DFD600
01DE86BF40
08F6002F80
09F3002F70
04FB310610
008FFA0000
0BF8510000
5F70000000
7F60000750
2FE868DE20
03BEFD9200
ENDCHAR
STARTCHAR F.ss01
ENCODING -1
SWIDTH 671 0
DWIDTH 8 0
BBX 9 12 0 0
BITMAP
0000001210
0CFFFFFFC0
037FA65510
005F500000
007F300000
00AF100000
2EFFFFF300
16FC665000
02F9000000
04F7000000
06F5000000
04E2000000
ENDCHAR
STARTCHAR G.ss01
ENCODING -1
SWIDTH 811 0
DWIDTH 10 0
BBX 10 14 0 -3
BITMAP
0004BEEA10
007FC78F80
03FA000DB0
0AF1000D80
0EB0000100
2F90001210
3F9005FFF1
1FB0004AF1
0CF30009E0
03EF968EC0
002AEFDEA0
0000000E80
0000002F60
0000002D20
ENDCHAR
STARTCHAR Gbreve.ss01
ENCODING -1
SWIDTH 811 0
DWIDTH 10 0
BBX 10 18 0 -3
BITMAP
0000200110
0003F63C90
0000BFFD30
0000034000
0004BEEA10
007FC78F80
03FA000DB0
0AF1000D80
0EB0000100
2F90001210
3F9005FFF1
1FB0004AF1
0CF30009E0
03EF968EC0
002AEFDEA0
0000000E80
0000002F60
0000002D20
ENDCHAR
STARTCHAR Gcaron.ss01
ENCODING -1
SWIDTH 811 0
DWIDTH 10 0
BBX 10 18 0 -3
BITMAP
0000881C40
00004E9C00
00000AD200
0000000000
0004BEEA10
007FC78F80
03FA000DB0
0AF1000D80
0EB0000100
2F90001210
3F9005FFF1
1FB0004AF1
0CF30009E0
03EF968EC0
002AEFDEA0
0000000E80
0000002F60
0000002D20
ENDCHAR
STARTCHAR Gcircumflex.ss01
ENCODING -1
SWIDTH 811 0
DWIDTH 10 0
BBX 10 19 0 -3
BITMAP
0000026100
00001DF800
00009E8D00
0000D52E10
0000000000
0004BEEA10
007FC78F80
03FA000DB0
0AF1000D80
0EB0000100
2F90001210
3F9005FFF1
1FB0004AF1
0CF30009E0
03EF968EC0
002AEFDEA0
0000000E80
0000002F60
0000002D20
ENDCHAR
STARTCHAR uni0122.ss01
ENCODING -1
SWIDTH 811 0
DWIDTH 10 0
BBX 10 15 0 -4
BITMAP
0004BEEA10
007FC78F80
03FA000DB0
0AF1000D80
0EB0000100
2F90001210
3F9005FFF1
1FB0004AF1
0CF30009E0
03EF968EC0
002AEFDEA0
0000000E80
0000942F60
0000F62D20
0000D10000
ENDCHAR
STARTCHAR Gdotaccent.ss01
ENCODING -1
SWIDTH 811 0
DWIDTH 10 0
BBX 10 17 0 -3
BITMAP
00000BE200
00000BD100
0000000000
0004BEEA10
007FC78F80
03FA000DB0
0AF1000D80
0EB0000100
2F90001210
3F9005FFF1
1FB0004AF1
0CF30009E0
03EF968EC0
002AEFDEA0
0000000E80
0000002F60
0000002D20
ENDCHAR
STARTCHAR H.ss01
ENCODING -1
SWIDTH 846 0
DWIDTH 10 0
BBX 10 11 0 0
BITMAP
007D0001D6
00BF0003F7
00CD0005F6
00EB0007F4
01F90008F2
4FFFFFFFFE
1AF8666ED5
08F2001F90
0BF0003F70
0DD0005F60
0B90004E20
ENDCHAR
STARTCHAR Hbar.ss01
ENCODING -1
SWIDTH 856 0
DWIDTH 10 0
BBX 11 11 0 0
BITMAP
006E1001D700
00AF2113F900
0CFFFFFFFF70
03ED4448F710
00FA0008F200
3EFFFFFFFE10
19F9666ED500
07F3000FA000
0AF1002F8000
0CE0004F7000
0AA0004E3000
ENDCHAR
STARTCHAR Hcircumflex.ss01
ENCODING -1
SWIDTH 846 0
DWIDTH 10 0
BBX 10 16 0 0
BITMAP
0000016100
00000CF900
00007E7E10
0000C71E20
0000000000
007D0001D6
00BF0003F7
00CD0005F6
00EB0007F4
01F90008F2
4FFFFFFFFE
1AF8666ED5
08F2001F90
0BF0003F70
0DD0005F60
0B90004E20
ENDCHAR
STARTCHAR I.ss01
ENCODING -1
SWIDTH 357 0
DWIDTH 4 0
BBX 3 11 1 0
BITMAP
09B0
0DD0
0FB0
2F80
4F60
6F40
9F10
BE00
DC00
FB00
D700
ENDCHAR
STARTCHAR Iacute.ss01
ENCODING -1
SWIDTH 357 0
DWIDTH 4 0
BBX 6 15 1 0
BITMAP
0004D3
005FC1
01D600
000000
09B000
0DD000
0FB000
2F8000
4F6000
6F4000
9F1000
BE0000
DC0000
FB0000
D70000
ENDCHAR
STARTCHAR Iacute_J.loclNLD.ss01
ENCODING -1
SWIDTH 776 0
DWIDTH 9 0
BBX 11 15 1 0
BITMAP
0005D2003D40
006FC105ED20
03D5001D6000
000000000000
0D70008B0000
3F9000CD0000
5F7000EB0000
7F5003FA0000
9F3008F90000
9F203EF70000
7FDAFAF50000
1AEE76F20000
10000CC00000
CC76BF400000
4CEFC4000000
ENDCHAR
STARTCHAR Ibreve.ss01
ENCODING -1
SWIDTH 357 0
DWIDTH 4 0
BBX 6 15 0 0
BITMAP
020002
1F82AC
09FFE5
002410
009B00
00DD00
00FB00
02F800
04F600
06F400
09F100
0BE000
0DC000
0FB000
0D7000
ENDCHAR
STARTCHAR Icircumflex.ss01
ENCODING -1
SWIDTH 357 0
DWIDTH 4 0
BBX 5 16 1 0
BITMAP
016200
0BFB00
6F7F10
B81D30
000000
09B000
0DD000
0FB000
2F8000
4F6000
6F4000
9F1000
BE0000
DC0000
FB0000
D70000
ENDCHAR
STARTCHAR uni0208.ss01
ENCODING -1
SWIDTH 357 0
DWIDTH 4 0
BBX 5 15 0 0
BITMAP
2D2D40
1E6C80
0684B0
000000
009B00
00DD00
00FB00
02F800
04F600
06F400
09F100
0BE000
0DC000
0FB000
0D7000
ENDCHAR
STARTCHAR Idieresis.ss01
ENCODING -1
SWIDTH 357 0
DWIDTH 4 0
BBX 5 14 1 0
BITMAP
9D2E50
9C2E50
000000
09B000
0DD000
0FB000
2F8000
4F6000
6F4000
9F1000
BE0000
DC0000
FB0000
D70000
ENDCHAR
STARTCHAR Idotaccent.ss01
ENCODING -1
SWIDTH 357 0
DWIDTH 4 0
BBX 4 14 1 0
BITMAP
08F4
09E3
0000
09B0
0DD0
0FB0
2F80
4F60
6F40
9F10
BE00
DC00
FB00
D700
ENDCHAR
STARTCHAR uni1ECA.ss01
ENCODING -1
SWIDTH 357 0
DWIDTH 4 0
BBX 4 14 0 -3
BITMAP
009B
00DD
00FB
02F8
04F6
06F4
09F1
0BE0
0DC0
0FB0
0D70
0000
6F60
6E50
ENDCHAR
STARTCHAR Igrave.ss01
ENCODING -1
SWIDTH 357 0
DWIDTH 4 0
BBX 4 15 0 0
BITMAP
D800
9FA0
03B6
0000
009B
00DD
00FB
02F8
04F6
06F4
09F1
0BE0
0DC0
0FB0
0D70
ENDCHAR
STARTCHAR uni1EC8.ss01
ENCODING -1
SWIDTH 357 0
DWIDTH 4 0
BBX 4 16 1 0
BITMAP
0010
0BFB
038F
05FB
0140
09B0
0DD0
0FB0
2F80
4F60
6F40
9F10
BE00
DC00
FB00
D700
ENDCHAR
STARTCHAR uni020A.ss01
ENCODING -1
SWIDTH 357 0
DWIDTH 4 0
BBX 5 15 1 0
BITMAP
001000
5EFE50
EA5BD0
300120
09B000
0DD000
0FB000
2F8000
4F6000
6F4000
9F1000
BE0000
DC0000
FB0000
D70000
ENDCHAR
STARTCHAR Imacron.ss01
ENCODING -1
SWIDTH 357 0
DWIDTH 4 0
BBX 5 14 1 0
BITMAP
022100
9FFF10
244400
09B000
0DD000
0FB000
2F8000
4F6000
6F4000
9F1000
BE0000
DC0000
FB0000
D70000
ENDCHAR
STARTCHAR Iogonek.ss01
ENCODING -1
SWIDTH 357 0
DWIDTH 4 0
BBX 4 15 0 -4
BITMAP
009B
00DD
00FB
02F8
04F6
06F4
09F2
0BE0
0DD0
0FB0
0F80
6C00
AB20
6FF6
0240
ENDCHAR
STARTCHAR Itilde.ss01
ENCODING -1
SWIDTH 357 0
DWIDTH 4 0
BBX 6 15 0 0
BITMAP
026106
0DFC8D
3D29E5
000000
009B00
00DD00
00FB00
02F800
04F600
06F400
09F100
0BE000
0DC000
0FB000
0D7000
ENDCHAR
STARTCHAR J.ss01
ENCODING -1
SWIDTH 716 0
DWIDTH 9 0
BBX 9 11 0 0
BITMAP
006BEFEC50
09F966CF50
0F7000CE00
0F8000EC00
075001FA00
000002F800
000004F500
000007F200
1E300CC000
0DE7AF5000
02BED60000
ENDCHAR
STARTCHAR Jcircumflex.ss01
ENCODING -1
SWIDTH 716 0
DWIDTH 9 0
BBX 9 16 0 0
BITMAP
0000063000
00008FE000
0003F7F400
0008B0B600
0000000000
006BEFEC50
09F966CF50
0F7000CE00
0F8000EC00
075001FA00
000002F800
000004F500
000007F200
1E300CC000
0DE7AF5000
02BED60000
ENDCHAR
STARTCHAR K.ss01
ENCODING -1
SWIDTH 779 0
DWIDTH 9 0
BBX 10 11 0 0
BITMAP
008D0005E2
00CE000DD0
00EC004F70
01F901DC00
04F84CD200
1FFFF81000
0AF6DE2000
0AF04F9000
0CD00DE100
0EC006FB61
0C80009ED2
ENDCHAR
STARTCHAR uni0136.ss01
ENCODING -1
SWIDTH 779 0
DWIDTH 9 0
BBX 10 15 0 -4
BITMAP
008D0005E2
00CE000DD0
00EC004F70
01F901DC00
04F84CD200
1FFFF81000
0AF6DE2000
0AF04F9000
0CD00DE100
0EC006FB61
0C80009ED2
0000000000
0004900000
0008C00000
0007700000
ENDCHAR
STARTCHAR L.ss01
ENCODING -1
SWIDTH 625 0
DWIDTH 8 0
BBX 8 11 0 0
BITMAP
00AB0000
00EC0000
01FA0000
03F80000
05F50000
07F30000
09F10000
0CE00000
0EC00000
0FD99992
1EFFFFE3
ENDCHAR
STARTCHAR uni01C7.ss01
ENCODING -1
SWIDTH 1291 0
DWIDTH 15 0
BBX 16 11 0 0
BITMAP
00AB000006CEFEC4
00EC0000BE966DF4
01FA0002F6000DD0
03F80002F6000FB0
05F5000084002F90
07F3000000004F70
09F1000000006F40
0CE0000000008F10
0EC00002D200DB00
0FD99992ED7BF300
1EFFFFE33BFD5000
ENDCHAR
STARTCHAR Lacute.ss01
ENCODING -1
SWIDTH 625 0
DWIDTH 8 0
BBX 8 15 0 0
BITMAP
00005D30
0006FC10
002D5000
00000000
00AB0000
00EC0000
01FA0000
03F80000
05F50000
07F30000
09F10000
0CE00000
0EC00000
0FD99992
1EFFFFE3
ENDCHAR
STARTCHAR Lcaron.ss01
ENCODING -1
SWIDTH 625 0
DWIDTH 8 0
BBX 8 11 0 0
BITMAP
00AB01A2
00EC03F2
01FA03B0
03F80000
05F50000
07F30000
09F10000
0CE00000
0EC00000
0FD99992
1EFFFFE3
ENDCHAR
STARTCHAR uni013B.ss01
ENCODING -1
SWIDTH 625 0
DWIDTH 8 0
BBX 8 15 0 -4
BITMAP
00AB0000
00EC0000
01FA0000
03F80000
05F50000
07F30000
09F10000
0CE00000
0EC00000
0FD99992
1EFFFFE3
00000000
00076000
000C9000
000B4000
ENDCHAR
STARTCHAR Ldot.ss01
ENCODING -1
SWIDTH 625 0
DWIDTH 8 0
BBX 8 11 0 0
BITMAP
00AB0000
00EC0000
01FA0000
03F80000
05F50000
07F31ED0
09F10320
0CE00000
0EC00000
0FD99992
1EFFFFE3
ENDCHAR
STARTCHAR uni01C8.ss01
ENCODING -1
SWIDTH 854 0
DWIDTH 10 0
BBX 11 17 0 -6
BITMAP
00AB00000000
00EC00000000
01FA00000100
03F800007F70
05F500001300
07F300005E00
09F100009E00
0CE00000AC00
0EC00000CA00
0FD99992E800
1EFFFFE3F500
0000000AF300
000000BDF000
000008A9B000
00001E2D6000
00003F9E1000
00000CE50000
ENDCHAR
STARTCHAR Lslash.ss01
ENCODING -1
SWIDTH 625 0
DWIDTH 8 0
BBX 8 11 0 0
BITMAP
00AB0000
00EC0000
01FA2900
03FDFB00
06FE7000
7FF40000
5DF10000
0CE00000
0EC00000
0FD99992
1EFFFFE3
ENDCHAR
STARTCHAR M.ss01
ENCODING -1
SWIDTH 1139 0
DWIDTH 14 0
BBX 13 11 1 0
BITMAP
0AA2BE903CE700
0EAC9AF4D8DF00
2FC904FB60AF10
4FF205FD00BF00
6FB007F800DD00
8F6009F401FA00
AF300CF003F800
CF000EC005F500
DC002FA008F300
FA003F800AF200
D6002E4008D000
ENDCHAR
STARTCHAR N.ss01
ENCODING -1
SWIDTH 799 0
DWIDTH 10 0
BBX 8 11 1 0
BITMAP
0AA18EE5
0E9AC7EE
2FBD10BF
4FF400CE
6FD000EB
8F7002F9
AF4004F6
CF0006F4
ED0009F2
FB000BF1
D60009C0
ENDCHAR
STARTCHAR uni01CA.ss01
ENCODING -1
SWIDTH 1515 0
DWIDTH 18 0
BBX 18 11 1 0
BITMAP
0AA18EE50028DEFEB1
0E9AC7EE01ED867FD1
2FBD10BF06F1003F80
4FF400CE06F2005F60
6FD000EB0191007F40
8F7002F90000008F20
AF4004F6000000AE00
CF0006F4000000DB00
ED0009F206B003F600
FB000BF104FB7DD000
D60009C0006DEB2000
ENDCHAR
STARTCHAR Nacute.ss01
ENCODING -1
SWIDTH 799 0
DWIDTH 10 0
BBX 8 15 1 0
BITMAP
0000009C
00001AF8
00007B30
00000000
0AA18EE5
0E9AC7EE
2FBD10BF
4FF400CE
6FD000EB
8F7002F9
AF4004F6
CF0006F4
ED0009F2
FB000BF1
D60009C0
ENDCHAR
STARTCHAR Ncaron.ss01
ENCODING -1
SWIDTH 799 0
DWIDTH 10 0
BBX 8 15 1 0
BITMAP
000B52E1
0007CB90
0001CB00
00000000
0AA18EE5
0E9AC7EE
2FBD10BF
4FF400CE
6FD000EB
8F7002F9
AF4004F6
CF0006F4
ED0009F2
FB000BF1
D60009C0
ENDCHAR
STARTCHAR uni0145.ss01
ENCODING -1
SWIDTH 799 0
DWIDTH 10 0
BBX 8 15 1 -4
BITMAP
0AA18EE5
0E9AC7EE
2FBD10BF
4FF400CE
6FD000EB
8F7002F9
AF4004F6
CF0006F4
ED0009F2
FB000BF1
D60009C0
00000000
00490000
008C0000
00770000
ENDCHAR
STARTCHAR Eng.ss01
ENCODING -1
SWIDTH 792 0
DWIDTH 10 0
BBX 8 16 1 -5
BITMAP
0AA08EE5
0EAAC7FD
2FBD10CE
4FF500EC
6FD001F9
8F8004F6
AF4007F3
CF100AE0
DD000DB0
FB001F80
D6005F40
00009E10
2100DA00
DC37F300
5EFF6000
01420000
ENDCHAR
STARTCHAR uni01CB.ss01
ENCODING -1
SWIDTH 1008 0
DWIDTH 12 0
BBX 12 17 1 -6
BITMAP
0AA18EE50000
0E9AC7EE0000
2FBD10BF0010
4FF400CE09F4
6FD000EB0130
8F7002F907C0
AF4004F60BB0
CF0006F40DA0
ED0009F20E80
FB000BF11F50
D60009C03F30
00000001CF10
0000001CDD00
000000A8B900
000002E2F400
000005EBD000
000001DD3000
ENDCHAR
STARTCHAR Ntilde.ss01
ENCODING -1
SWIDTH 799 0
DWIDTH 10 0
BBX 8 15 1 0
BITMAP
00044024
004FF8C8
00883CC1
00000000
0AA18EE5
0E9AC7EE
2FBD10BF
4FF400CE
6FD000EB
8F7002F9
AF4004F6
CF0006F4
ED0009F2
FB000BF1
D60009C0
ENDCHAR
STARTCHAR OE.ss01
ENCODING -1
SWIDTH 1166 0
DWIDTH 14 0
BBX 15 11 0 0
BITMAP
0005CEE919FFFF20
007FB7AFDFA66500
03FA000AFF400000
0AF10005FF100000
0EB00003FE000000
2F900004FFFFF500
3F800006FB665100
2FA0000BF7000000
0DE1004FFA000000
06FC79FBCFA68A00
005CFD7019EFD700
ENDCHAR
STARTCHAR P.ss01
ENCODING -1
SWIDTH 662 0
DWIDTH 8 0
BBX 8 11 0 0
BITMAP
03BEFC60
0BDF8BF7
00BF00DE
00DD00CF
00FB01EC
03F82BF5
5FFFFE60
1AF84000
09F10000
0BF00000
0AB00000
ENDCHAR
STARTCHAR Thorn.ss01
ENCODING -1
SWIDTH 658 0
DWIDTH 8 0
BBX 8 11 0 0
BITMAP
006E1000
00AF3000
07EFFE80
0AED5CF7
00FA02FB
03F702F9
06F64CF3
6FFFFC40
0BF42000
0CE00000
09B00000
ENDCHAR
STARTCHAR Q.ss01
ENCODING -1
SWIDTH 816 0
DWIDTH 10 0
BBX 10 15 0 -4
BITMAP
0005CEE800
007FB7AFA0
03F9000AF3
0AE10005F7
0FB00003F8
2F900004F7
3F800007F5
2FA0000CE1
0DF2007F80
05FEACFB00
004CFF7000
00007FA000
00000CF400
000003FB00
0000003200
ENDCHAR
STARTCHAR R.ss01
ENCODING -1
SWIDTH 744 0
DWIDTH 9 0
BBX 8 11 1 0
BITMAP
3AEFC600
DEF7CF60
0BE01FC0
0DC00EC0
0EA03F80
2FA6ED10
EFFF8100
8F9EC100
9F17F800
BE00DF75
AA003CFA
ENDCHAR
STARTCHAR Racute.ss01
ENCODING -1
SWIDTH 744 0
DWIDTH 9 0
BBX 8 15 1 0
BITMAP
000005D2
00007FB1
0003D500
00000000
3AEFC600
DEF7CF60
0BE01FC0
0DC00EC0
0EA03F80
2FA6ED10
EFFF8100
8F9EC100
9F17F800
BE00DF75
AA003CFA
ENDCHAR
STARTCHAR Rcaron.ss01
ENCODING -1
SWIDTH 744 0
DWIDTH 9 0
BBX 8 15 1 0
BITMAP
00790C50
003F8D10
0009D200
00000000
3AEFC600
DEF7CF60
0BE01FC0
0DC00EC0
0EA03F80
2FA6ED10
EFFF8100
8F9EC100
9F17F800
BE00DF75
AA003CFA
ENDCHAR
STARTCHAR uni0156.ss01
ENCODING -1
SWIDTH 744 0
DWIDTH 9 0
BBX 8 15 1 -4
BITMAP
3AEFC600
DEF7CF60
0BE01FC0
0DC00EC0
0EA03F80
2FA6ED10
EFFF8100
8F9EC100
9F17F800
BE00DF75
AA003CFA
00000000
00590000
009B0000
00860000
ENDCHAR
STARTCHAR uni0210.ss01
ENCODING -1
SWIDTH 744 0
DWIDTH 9 0
BBX 8 15 1 0
BITMAP
03D2D200
02F5D700
00875900
00000000
3AEFC600
DEF7CF60
0BE01FC0
0DC00EC0
0EA03F80
2FA6ED10
EFFF8100
8F9EC100
9F17F800
BE00DF75
AA003CFA
ENDCHAR
STARTCHAR uni0212.ss01
ENCODING -1
SWIDTH 744 0
DWIDTH 9 0
BBX 8 15 1 0
BITMAP
00001000
006EFD30
01F95CB0
00300120
3AEFC600
DEF7CF60
0BE01FC0
0DC00EC0
0EA03F80
2FA6ED10
EFFF8100
8F9EC100
9F17F800
BE00DF75
AA003CFA
ENDCHAR
STARTCHAR T.ss01
ENCODING -1
SWIDTH 631 0
DWIDTH 8 0
BBX 9 11 0 0
BITMAP
1CEFFFFFA0
0677FB6640
0004F60000
0007F40000
0009F10000
000CE00000
000EB00000
001F900000
003F700000
005F600000
004E300000
ENDCHAR
STARTCHAR Tbar.ss01
ENCODING -1
SWIDTH 631 0
DWIDTH 8 0
BBX 9 11 0 0
BITMAP
1CEFFFFFA0
0677FB6640
0004F60000
0007F40000
0009F10000
09FFFFD000
036ED64000
001F900000
003F800000
005F600000
004E300000
ENDCHAR
STARTCHAR Tcaron.ss01
ENCODING -1
SWIDTH 631 0
DWIDTH 8 0
BBX 9 15 0 0
BITMAP
000981D300
0005E9B000
0000BC1000
0000000000
1CEFFFFFA0
0677FB6640
0004F60000
0007F40000
0009F10000
000CE00000
000EB00000
001F900000
003F700000
005F600000
004E300000
ENDCHAR
STARTCHAR uni0162.ss01
ENCODING -1
SWIDTH 631 0
DWIDTH 8 0
BBX 9 15 0 -4
BITMAP
1CEFFFFFA0
0677FB6640
0004F60000
0007F30000
000AF10000
000CD00000
000EB00000
002F800000
004F700000
006F500000
00DF600000
003BC00000
0029B00000
09FE400000
0141000000
ENDCHAR
STARTCHAR uni021A.ss01
ENCODING -1
SWIDTH 631 0
DWIDTH 8 0
BBX 9 15 0 -4
BITMAP
1CEFFFFFA0
0677FB6640
0004F60000
0007F40000
0009F10000
000CE00000
000EB00000
001F900000
003F700000
005F600000
004E300000
0000000000
003B000000
006E000000
0059000000
ENDCHAR
STARTCHAR U.ss01
ENCODING -1
SWIDTH 800 0
DWIDTH 10 0
BBX 9 11 1 0
BITMAP
0AB0004E20
0ED0008F20
0FB000BF10
2F9000DE00
4F6002FC00
7F4006FA00
9F100CF800
CE004FF600
DD01DBF400
CFBEC8F200
4DEA18C000
ENDCHAR
STARTCHAR Uacute.ss01
ENCODING -1
SWIDTH 800 0
DWIDTH 10 0
BBX 9 15 1 0
BITMAP
0000008C00
00000AF800
00007B3000
0000000000
0AB0004E20
0ED0008F20
0FB000BF10
2F9000DE00
4F6002FC00
7F4006FA00
9F100CF800
CE004FF600
DD01DBF400
CFBEC8F200
4DEA18C000
ENDCHAR
STARTCHAR Ubreve.ss01
ENCODING -1
SWIDTH 800 0
DWIDTH 10 0
BBX 9 15 1 0
BITMAP
0002001100
006E43D700
001DFFC100
0000330000
0AB0004E20
0ED0008F20
0FB000BF10
2F9000DE00
4F6002FC00
7F4006FA00
9F100CF800
CE004FF600
DD01DBF400
CFBEC8F200
4DEA18C000
ENDCHAR
STARTCHAR Ucircumflex.ss01
ENCODING -1
SWIDTH 800 0
DWIDTH 10 0
BBX 9 16 1 0
BITMAP
0000360000
0002EF5000
000BCAB000
002E35C000
0000000000
0AB0004E20
0ED0008F20
0FB000BF10
2F9000DE00
4F6002FC00
7F4006FA00
9F100CF800
CE004FF600
DD01DBF400
CFBEC8F200
4DEA18C000
ENDCHAR
STARTCHAR uni0214.ss01
ENCODING -1
SWIDTH 800 0
DWIDTH 10 0
BBX 9 15 1 0
BITMAP
007A4D0000
005F3F3000
000B396000
0000000000
0AB0004E20
0ED0008F20
0FB000BF10
2F9000DE00
4F6002FC00
7F4006FA00
9F100CF800
CE004FF600
DD01DBF400
CFBEC8F200
4DEA18C000
ENDCHAR
STARTCHAR Udieresis.ss01
ENCODING -1
SWIDTH 800 0
DWIDTH 10 0
BBX 9 14 1 0
BITMAP
001E77E100
001D77D100
0000000000
0AB0004E20
0ED0008F20
0FB000BF10
2F9000DE00
4F6002FC00
7F4006FA00
9F100CF800
CE004FF600
DD01DBF400
CFBEC8F200
4DEA18C000
ENDCHAR
STARTCHAR uni1EE4.ss01
ENCODING -1
SWIDTH 800 0
DWIDTH 10 0
BBX 9 14 1 -3
BITMAP
0AB0004E20
0ED0008F20
0FB000BF10
2F9000DE00
4F6002FC00
7F4006FA00
9F100CF800
CE004FF600
DD01DBF400
CFBEC8F200
4DEA18C000
0000000000
007F500000
008E400000
ENDCHAR
STARTCHAR Ugrave.ss01
ENCODING -1
SWIDTH 800 0
DWIDTH 10 0
BBX 9 15 1 0
BITMAP
04D4000000
02DF500000
0006D10000
0000000000
0AB0004E20
0ED0008F20
0FB000BF10
2F9000DE00
4F6002FC00
7F4006FA00
9F100CF800
CE004FF600
DD01DBF400
CFBEC8F200
4DEA18C000
ENDCHAR
STARTCHAR uni1EE6.ss01
ENCODING -1
SWIDTH 800 0
DWIDTH 10 0
BBX 9 16 1 0
BITMAP
0000110000
0001FF6000
00005CA000
0000AF5000
0000220000
0AB0004E20
0ED0008F20
0FB000BF10
2F9000DE00
4F6002FC00
7F4006FA00
9F100CF800
CE004FF600
DD01DBF400
CFBEC8F200
4DEA18C000
ENDCHAR
STARTCHAR Uhorn.ss01
ENCODING -1
SWIDTH 800 0
DWIDTH 10 0
BBX 10 13 1 0
BITMAP
000000003D
000000009E
0AB0004EF7
0ED0008F50
0FB000BF10
2F9000DE00
4F6002FC00
7F4006FA00
9F100CF800
CE004FF600
DD01DBF400
CFBEC8F200
4DEA18C000
ENDCHAR
STARTCHAR uni1EE8.ss01
ENCODING -1
SWIDTH 800 0
DWIDTH 10 0
BBX 10 15 1 0
BITMAP
0000008C00
00000AF800
00007B303D
000000009E
0AB0004EF7
0ED0008F50
0FB000BF10
2F9000DE00
4F6002FC00
7F4006FA00
9F100CF800
CE004FF600
DD01DBF400
CFBEC8F200
4DEA18C000
ENDCHAR
ENDFONT
